<?xml version="1.0" encoding="UTF-8" standalone="no"?>
<!-- Created with Inkscape (http://www.inkscape.org/) -->

<svg
   xmlns:dc="http://purl.org/dc/elements/1.1/"
   xmlns:cc="http://creativecommons.org/ns#"
   xmlns:rdf="http://www.w3.org/1999/02/22-rdf-syntax-ns#"
   xmlns:svg="http://www.w3.org/2000/svg"
   xmlns="http://www.w3.org/2000/svg"
   xmlns:sodipodi="http://sodipodi.sourceforge.net/DTD/sodipodi-0.dtd"
   xmlns:inkscape="http://www.inkscape.org/namespaces/inkscape"
   width="210mm"
   height="297mm"
   viewBox="0 0 744.09448819 1052.3622047"
   id="svg17306"
   version="1.1"
   inkscape:version="0.91 r13725"
   sodipodi:docname="ange.svg">
  <defs
     id="defs17308">
    <clipPath
       clipPathUnits="userSpaceOnUse"
       id="clipPath4446">
      <path
         style="fill:#ff9955;fill-rule:evenodd;stroke:#000000;stroke-width:1px;stroke-linecap:butt;stroke-linejoin:miter;stroke-opacity:1"
         d="m -373.80078,13.013701 c 31.90982,-52.423279 241.60294,-392.034961 241.60294,-392.034961 L -344.17023,40.364978 Z M -132.19784,-358.5078 -148.15275,95.067531 -234.76512,67.716254 Z m 63.819649,-6.83782 41.026915,478.64733 116.242924,-59.261094 z m 22.79273,4.55854 257.557851,414.827696 77.49529,-84.333102 z"
         id="path4448"
         inkscape:connector-curvature="0" />
    </clipPath>
    <mask
       maskUnits="userSpaceOnUse"
       id="mask4346-7">
      <path
         style="fill:#aa4400;fill-rule:evenodd;stroke:#000000;stroke-width:1px;stroke-linecap:butt;stroke-linejoin:miter;stroke-opacity:1"
         d="M -521.21969,5.0056628 C -346.98843,-8.4710881 -179.07068,110.42006 -4.917166,95.973253 137.155,84.187739 261.24363,-85.887156 398.29052,-46.624589 462.76307,-28.153846 511.64536,44.746821 523.67827,110.72475 542.83619,215.76995 507.4245,347.30423 425.33493,415.58909 136.26524,656.04695 -401.64056,797.93027 -693.32053,560.64551 -818.92234,458.4671 -730.19928,76.304582 -730.19928,76.304582 c 0,0 135.59625,-65.622733 208.97959,-71.2989192 z"
         id="path4348-5"
         inkscape:connector-curvature="0"
         sodipodi:nodetypes="sssssscs" />
    </mask>
    <clipPath
       clipPathUnits="userSpaceOnUse"
       id="clipPath4549">
      <ellipse
         style="opacity:1;fill:#504416;fill-opacity:1;stroke:#000000;stroke-width:0;stroke-miterlimit:4;stroke-dasharray:none;stroke-opacity:1"
         id="ellipse4551"
         cx="30.851261"
         cy="354.82324"
         rx="445.87189"
         ry="248.8784"
         transform="matrix(0.98518789,-0.17147832,0.17551797,0.98447623,0,0)" />
    </clipPath>
    <clipPath
       clipPathUnits="userSpaceOnUse"
       id="clipPath4748">
      <path
         style="fill:#225500;fill-rule:evenodd;stroke:#000000;stroke-width:1px;stroke-linecap:butt;stroke-linejoin:miter;stroke-opacity:1"
         d="m -1479.9236,557.20932 -0.8058,41.09808 c 0,0 59.246,76.82593 85.4195,99.92474 28.4811,25.13531 70.1085,31.42795 70.1085,31.42795 l 0.8058,-25.78703 z"
         id="path4750"
         inkscape:connector-curvature="0"
         sodipodi:nodetypes="ccsccc" />
    </clipPath>
    <clipPath
       clipPathUnits="userSpaceOnUse"
       id="clipPath4477-2">
      <path
         style="fill:#504416;fill-rule:evenodd;stroke:#000000;stroke-width:1px;stroke-linecap:butt;stroke-linejoin:miter;stroke-opacity:1"
         d="m -275.59889,739.69446 80.58447,-120.87671 -111.20657,288.49241 12.89352,99.92474 515.74061,-51.57406 -16.11689,-343.28985 49.96237,135.38191 0,294.9392 -568.92637,14.5052 -51.57406,-182.12093 z"
         id="path4479-2"
         inkscape:connector-curvature="0" />
    </clipPath>
    <clipPath
       clipPathUnits="userSpaceOnUse"
       id="clipPath5281-0-6">
      <path
         style="fill:#ffccaa;fill-rule:evenodd;stroke:#000000;stroke-width:1px;stroke-linecap:butt;stroke-linejoin:miter;stroke-opacity:1"
         d="m 313.90242,867.88385 c 0,0 -14.28024,5.69497 -19.09189,11.31371 -14.86099,17.3537 -25.45584,63.63961 -25.45584,63.63961 -12.24219,15.57063 -33.69598,46.61163 -23.33453,62.22543 8.38169,11.4541 29.05204,-4.9142 29.05204,-4.9142 9.18597,3.1209 9.54187,17.7009 19.18198,18.9203 33.79152,3.2041 38.29055,8.22 69.1457,0.4896 5.52996,-1.3855 12.02082,-14.4957 12.02082,-14.4957 l 5.65685,-150.61378 -2.19239,-223.08683 -137.81474,65.40202 z"
         id="path5283-9-9"
         inkscape:connector-curvature="0"
         sodipodi:nodetypes="csccccsccccc" />
    </clipPath>
    <clipPath
       clipPathUnits="userSpaceOnUse"
       id="clipPath5300-0">
      <path
         style="fill:#ffccaa;fill-rule:evenodd;stroke:#000000;stroke-width:1px;stroke-linecap:butt;stroke-linejoin:miter;stroke-opacity:1"
         d="m 309.90242,864.88385 c 0,0 -14.28024,5.69497 -19.09189,11.31371 -14.86099,17.3537 -25.45584,63.63961 -25.45584,63.63961 -12.24219,15.57063 -33.69598,46.61166 -23.33453,62.22543 8.38169,11.4541 29.05204,-4.9142 29.05204,-4.9142 9.18597,3.1209 9.54187,17.7009 19.18198,18.9203 33.79152,3.2041 38.29055,8.22 69.1457,0.4896 5.52996,-1.3855 12.02082,-14.4957 12.02082,-14.4957 l 5.65685,-150.61378 -2.19239,-223.08683 -137.81474,65.40202 z"
         id="path5302-1"
         inkscape:connector-curvature="0"
         sodipodi:nodetypes="csccccsccccc" />
    </clipPath>
    <clipPath
       clipPathUnits="userSpaceOnUse"
       id="clipPath5281-0">
      <path
         style="fill:#ffccaa;fill-rule:evenodd;stroke:#000000;stroke-width:1px;stroke-linecap:butt;stroke-linejoin:miter;stroke-opacity:1"
         d="m 313.90242,867.88385 c 0,0 -14.28024,5.69497 -19.09189,11.31371 -14.86099,17.3537 -25.45584,63.63961 -25.45584,63.63961 -12.24219,15.57063 -33.69598,46.61163 -23.33453,62.22543 8.38169,11.4541 29.05204,-4.9142 29.05204,-4.9142 9.18597,3.1209 9.54187,17.7009 19.18198,18.9203 33.79152,3.2041 38.29055,8.22 69.1457,0.4896 5.52996,-1.3855 12.02082,-14.4957 12.02082,-14.4957 l 5.65685,-150.61378 -2.19239,-223.08683 -137.81474,65.40202 z"
         id="path5283-9"
         inkscape:connector-curvature="0"
         sodipodi:nodetypes="csccccsccccc" />
    </clipPath>
    <clipPath
       clipPathUnits="userSpaceOnUse"
       id="clipPath5300">
      <path
         style="fill:#ffccaa;fill-rule:evenodd;stroke:#000000;stroke-width:1px;stroke-linecap:butt;stroke-linejoin:miter;stroke-opacity:1"
         d="m 309.90242,864.88385 c 0,0 -14.28024,5.69497 -19.09189,11.31371 -14.86099,17.3537 -25.45584,63.63961 -25.45584,63.63961 -12.24219,15.57063 -33.69598,46.61166 -23.33453,62.22543 8.38169,11.4541 29.05204,-4.9142 29.05204,-4.9142 9.18597,3.1209 9.54187,17.7009 19.18198,18.9203 33.79152,3.2041 38.29055,8.22 69.1457,0.4896 5.52996,-1.3855 12.02082,-14.4957 12.02082,-14.4957 l 5.65685,-150.61378 -2.19239,-223.08683 -137.81474,65.40202 z"
         id="path5302"
         inkscape:connector-curvature="0"
         sodipodi:nodetypes="csccccsccccc" />
    </clipPath>
    <clipPath
       clipPathUnits="userSpaceOnUse"
       id="clipPath5059">
      <path
         style="display:inline;fill:#000080;fill-rule:evenodd;stroke:#000000;stroke-width:0;stroke-linecap:butt;stroke-linejoin:miter;stroke-miterlimit:4;stroke-dasharray:none;stroke-opacity:1"
         d="m -308.12458,898.01497 56.42378,128.64753 c 0,0 34.73108,19.1769 53.91466,22.6003 26.09046,4.656 79.43185,-3.477 79.43185,-3.477 l 14.21745,-39.6948 c 0,0 47.11481,3.9608 70.73443,4.3913 26.8058303,0.4885 80.40457,-2.0555 80.40457,-2.0555 l 21.19929,40.836 c 0,0 51.28909,18.6383 76.90772,13.9078 28.62293,-5.2852 74.71122,-45.2005 74.71122,-45.2005 l 19.00155,-151.24778 z"
         id="path5061"
         inkscape:connector-curvature="0"
         sodipodi:nodetypes="ccsccsccsccc" />
    </clipPath>
    <clipPath
       clipPathUnits="userSpaceOnUse"
       id="clipPath5855">
      <ellipse
         style="opacity:1;fill:#552200;fill-opacity:1;stroke:#000000;stroke-width:0;stroke-miterlimit:4;stroke-dasharray:none;stroke-opacity:1"
         id="ellipse5857"
         cx="-37"
         cy="1148.3622"
         rx="226"
         ry="138" />
    </clipPath>
    <clipPath
       clipPathUnits="userSpaceOnUse"
       id="clipPath5859">
      <ellipse
         style="opacity:1;fill:#552200;fill-opacity:1;stroke:#000000;stroke-width:0;stroke-miterlimit:4;stroke-dasharray:none;stroke-opacity:1"
         id="ellipse5861"
         cx="-37"
         cy="1148.3622"
         rx="226"
         ry="138" />
    </clipPath>
  </defs>
  <sodipodi:namedview
     id="base"
     pagecolor="#ffffff"
     bordercolor="#666666"
     borderopacity="1.0"
     inkscape:pageopacity="0.0"
     inkscape:pageshadow="2"
     inkscape:zoom="0.57521479"
     inkscape:cx="590.62379"
     inkscape:cy="564.45229"
     inkscape:document-units="px"
     inkscape:current-layer="layer1"
     showgrid="false"
     showguides="false"
     inkscape:window-width="1366"
     inkscape:window-height="744"
     inkscape:window-x="0"
     inkscape:window-y="24"
     inkscape:window-maximized="1" />
  <metadata
     id="metadata17311">
    <rdf:RDF>
      <cc:Work
         rdf:about="">
        <dc:format>image/svg+xml</dc:format>
        <dc:type
           rdf:resource="http://purl.org/dc/dcmitype/StillImage" />
      </cc:Work>
    </rdf:RDF>
  </metadata>
  <g
     inkscape:label="Calque 1"
     inkscape:groupmode="layer"
     id="layer1">
    <path
       style="display:inline;fill:none;fill-rule:evenodd;stroke:#ffffff;stroke-width:4.94999981;stroke-linecap:butt;stroke-linejoin:miter;stroke-miterlimit:4;stroke-dasharray:none;stroke-opacity:1"
       d="M 260.5332 523.39453 L 260.43555 523.38086 L 256.09961 558.37695 C 256.09961 558.37695 259.2165 574.85901 269.7207 576.16211 C 282.2716 577.71911 293.875 557.80273 293.875 557.80273 L 304.28906 530.0918 C 303.95355 530.1424 300.06457 530.73572 294.80859 531.19531 C 292.07014 531.43477 289.06413 531.62656 286.20312 531.66211 C 283.34212 531.69766 280.62706 531.57553 278.47461 531.19141 C 276.89196 530.90898 274.98818 530.30293 273.02344 529.55078 C 271.0587 528.79863 269.0334 527.90072 267.20508 527.03906 C 263.54843 525.31575 260.68164 523.73438 260.68164 523.73438 L 260.5332 523.39453 z "
       id="path18050" />
    <path
       style="display:inline;fill:none;fill-rule:evenodd;stroke:#ffffff;stroke-width:4.94999981;stroke-linecap:butt;stroke-linejoin:miter;stroke-miterlimit:4;stroke-dasharray:none;stroke-opacity:1"
       d="M 367.35742 531.52539 L 366.19141 531.80469 L 368.12305 561.24609 C 368.12305 561.24609 378.93068 578.72512 384.45898 577.88281 C 396.21928 576.09082 405.43945 559.52539 405.43945 559.52539 L 412.76172 523.5957 C 411.18753 524.88152 410.4841 525.56731 407.5 527.66992 C 405.00851 529.42543 402.22094 531.23469 399.4668 532.71484 C 398.08973 533.45492 396.72024 534.11353 395.40039 534.64062 C 394.08054 535.16772 392.80961 535.56322 391.62891 535.78125 C 390.57214 535.97638 389.38322 536.05199 388.11133 536.0332 C 386.83944 536.01442 385.48546 535.90121 384.09766 535.72266 C 381.32204 535.36555 378.41359 534.74353 375.76953 534.07227 C 371.09642 532.88587 368.18921 531.82074 367.35742 531.52539 z "
       id="path18032" />
    <path
       style="display:inline;fill:none;fill-rule:evenodd;stroke:#ffffff;stroke-width:4.94999981;stroke-linecap:butt;stroke-linejoin:miter;stroke-miterlimit:4;stroke-dasharray:none;stroke-opacity:1"
       d="M 243.13867 481.21875 L 242.0625 481.28125 L 260.68164 523.73438 C 260.68164 523.73438 272.14401 530.0617 278.47461 531.19141 C 287.08441 532.7279 304.6875 530.04492 304.6875 530.04492 L 309.37891 516.94531 C 309.37891 516.94531 324.92619 518.25253 332.7207 518.39453 C 341.5666 518.55573 359.25391 517.7168 359.25391 517.7168 L 366.25 531.19141 C 366.25 531.19141 383.17481 537.34225 391.62891 535.78125 C 401.07451 534.03705 416.28516 520.86523 416.28516 520.86523 L 422.26172 473.28711 C 422.01192 473.98158 421.85346 474.78742 421.57227 475.43945 C 421.09818 476.53876 420.57687 477.57473 420.00781 478.53125 C 419.43875 479.48777 418.82162 480.36641 418.15039 481.15234 C 416.9302 482.58104 415.63796 483.9352 414.2793 485.21875 C 412.92064 486.5023 411.49527 487.71428 410.00977 488.85938 C 408.52426 490.00447 406.97769 491.08239 405.37695 492.0957 C 403.77621 493.10901 402.12037 494.0571 400.41602 494.94531 C 397.00731 496.72173 393.40385 498.25615 389.65039 499.57227 C 385.89693 500.88838 381.99356 501.98723 377.98828 502.89648 C 373.983 503.80573 369.8751 504.52424 365.71094 505.08008 C 361.54677 505.63591 357.32776 506.02928 353.09766 506.28516 C 348.86755 506.54103 344.62695 506.66057 340.42383 506.66992 C 336.22071 506.67928 332.05389 506.57824 327.9707 506.39453 C 320.59093 506.06253 312.60946 505.83822 304.51367 505.2832 C 300.46578 505.0057 296.38952 504.64695 292.3457 504.14844 C 288.30188 503.64992 284.29074 503.01329 280.37305 502.18359 C 276.45536 501.35389 272.63045 500.32965 268.96094 499.05859 C 267.12618 498.42307 265.3299 497.72551 263.58008 496.95898 C 261.83025 496.19246 260.12815 495.3566 258.47852 494.44531 C 256.82888 493.53402 255.23341 492.54835 253.69922 491.47852 C 252.16502 490.40869 250.69256 489.25581 249.28906 488.01367 C 247.88557 486.77153 246.55051 485.43994 245.29297 484.01172 C 244.52651 483.14123 243.84635 482.16248 243.13867 481.21875 z "
       id="path18068" />
    <path
       style="display:inline;fill:none;fill-rule:evenodd;stroke:#ffffff;stroke-width:4.94999981;stroke-linecap:butt;stroke-linejoin:miter;stroke-miterlimit:4;stroke-dasharray:none;stroke-opacity:1"
       d="M 428.66602 426.39844 L 446.16406 467.50977 C 446.16406 467.50977 441.45108 469.38799 439.86328 471.24219 C 434.95908 476.96889 431.46289 492.24414 431.46289 492.24414 C 427.42289 497.38245 420.34252 507.62474 423.76172 512.77734 C 426.52772 516.55715 432.5332 511.97266 432.5332 511.97266 C 435.5646 513.00256 436.49849 516.99799 439.67969 517.40039 C 450.83089 518.45769 452.31585 520.11166 462.49805 517.56055 C 464.32285 517.10335 466.46484 512.77734 466.46484 512.77734 L 468.33203 463.07617 L 467.32422 409.44922 C 461.98743 411.58048 459.08585 412.67171 450.96484 416.10742 C 444.09981 419.01178 437.28473 422.00594 432.28516 424.45312 C 430.75609 425.20157 429.80488 425.77049 428.66602 426.39844 z "
       id="path18011" />
    <path
       style="display:inline;fill:none;fill-rule:evenodd;stroke:#ffffff;stroke-width:4.94999981;stroke-linecap:butt;stroke-linejoin:miter;stroke-miterlimit:4;stroke-dasharray:none;stroke-opacity:1"
       d="m 228.43063,473.95385 c 0,0 4.77242,1.7213 6.42118,3.52152 5.09221,5.56018 9.09555,20.70947 9.09555,20.70947 4.20886,5.00085 11.62601,15.00284 8.38032,20.2664 -2.63853,3.86994 -8.79244,-0.51228 -8.79244,-0.51228 -2.99535,1.13031 -3.79587,5.15395 -6.96196,5.66212 -11.1098,1.42834 -12.53851,3.1321 -22.79997,0.92179 -1.8392,-0.39619 -4.12411,-4.64871 -4.12411,-4.64871 l -3.52183,-49.61282 -4.59271,-56.73177 43.47524,12.28729 z"
       id="path5130-6-0"
       inkscape:connector-curvature="0"
       sodipodi:nodetypes="csccccsccccc"
       inkscape:export-xdpi="90"
       inkscape:export-ydpi="90"
       inkscape:export-filename="/home/dakayl/GDP8_redemption/Content/Images/final/heros_2.png" />
    <path
       style="display:inline;fill:#ffffff;fill-rule:evenodd;stroke:#ffffff;stroke-width:0.33000001px;stroke-linecap:butt;stroke-linejoin:miter;stroke-opacity:1;fill-opacity:1"
       d="m 272.79484,364.3239 2.9172,1.2741 0.5948,8.4622 c 0,0 27.5344,40.0348 48.3846,41.8741 17.85431,1.5751 35.35861,-13.9159 47.46821,-27.6518 3.5975,-4.0805 6.2494,-16.3497 6.2494,-16.3497 l 3.1638,-0.2986 c 0,0 -3.52,13.5328 -7.4486,17.7847 -12.6659,13.7081 -30.7955,31.1651 -48.99871,29.5559 -21.7981,-1.9269 -50.898,-44.6487 -50.898,-44.6487 z"
       id="path4669"
       inkscape:connector-curvature="0"
       sodipodi:nodetypes="cccssccsscc"
       inkscape:export-xdpi="90"
       inkscape:export-ydpi="90"
       inkscape:export-filename="/home/dakayl/GDP8_redemption/Content/Images/final/heros_2.png" />
    <path
       style="display:inline;fill:none;fill-rule:evenodd;stroke:#ffffff;stroke-width:4.94999981;stroke-linecap:butt;stroke-linejoin:miter;stroke-miterlimit:4;stroke-dasharray:none;stroke-opacity:1"
       d="m 246.57031,348.47266 c -7.18634,4.71333 -27.81099,18.88438 -34.60742,31.13476 -1.9153,3.4523 -10.84475,32.03941 -10.84475,32.03941 l 51.47366,16.06606 c 0,0 -21.01069,36.604 -10.83399,51.7168 17.5412,26.0492 56.69379,25.63684 86.21289,26.96484 32.66551,1.4697 70.65659,-2.38309 90.17969,-25.24219 10.7397,-12.5749 7.94101,-48.76431 6.34961,-51.63281 -1.5915,-2.86851 54.12305,-24.66992 54.12305,-24.66992 0,0 -22.57885,-43.05983 -42.81055,-50.48633 -5.55265,-2.03826 -12.2928,-2.13038 -19.2832,-1.125 -1.96932,1.4767 -3.79525,2.78754 -5.08985,3.53711 -3.54767,2.0541 -6.74672,4.28017 -10.23047,6.48047 -1.74187,1.10015 -3.55466,2.19326 -5.51757,3.25586 -1.96292,1.0626 -4.076,2.09466 -6.41797,3.07031 -2.34197,0.97565 -4.91393,1.89508 -7.79297,2.73438 -2.87904,0.83929 -6.06649,1.59841 -9.64063,2.25195 -0.84687,0.15485 -1.9426,0.24206 -2.83398,0.38476 l -4.48047,8.09571 c 0,0 -23.28807,24.17998 -38.23828,23.52148 -18.5667,-0.818 -44.73633,-33.27343 -44.73633,-33.27343 l 0.0996,-4.61524 c -2.12425,-0.79199 -4.25401,-1.49717 -6.37109,-2.43359 -3.69031,-1.6323 -7.37493,-3.49095 -11.0625,-5.60547 -3.68757,-2.11452 -7.37886,-4.48487 -11.08789,-7.13672 -2.1782,-1.55735 -4.37009,-3.34663 -6.5586,-5.0332 z"
       id="path18122"
       inkscape:connector-curvature="0"
       sodipodi:nodetypes="csccsssccscsssssscccccsssc" />
    <path
       style="display:inline;fill:#000000;fill-rule:evenodd;stroke:#ffffff;stroke-width:0.33000001px;stroke-linecap:butt;stroke-linejoin:miter;stroke-opacity:1"
       d="M 451.04297 247.59766 C 452.50575 247.58562 453.98152 247.48901 455.41016 247.5 L 453.98047 244.31445 C 453.56049 244.32024 453.12815 244.35758 452.70508 244.36523 L 451.04297 247.59766 z "
       id="path18159" />
    <path
       style="display:inline;fill:#ffffff;fill-rule:evenodd;stroke:#ffffff;stroke-width:0.33000001px;stroke-linecap:butt;stroke-linejoin:miter;stroke-opacity:1;fill-opacity:1"
       d="M 423.53125 247.16992 C 422.22288 247.47466 420.7639 247.7114 419.59961 248.07812 C 394.07561 256.11753 351.52148 290.62695 351.52148 290.62695 L 352.58594 293.81836 C 352.58594 293.81836 395.00606 258.66509 420.66406 250.73828 C 421.84393 250.37378 423.31706 250.14991 424.64648 249.85547 C 424.27373 248.86097 423.90678 248.1274 423.53125 247.16992 z "
       id="path18157" />
    <ellipse
       style="display:inline;opacity:1;fill:#ffffff;fill-opacity:1;stroke:#ffffff;stroke-width:0;stroke-miterlimit:4;stroke-dasharray:none;stroke-opacity:1"
       id="path4572"
       cx="408.14185"
       cy="272.23917"
       rx="7.1800761"
       ry="12.498652"
       inkscape:export-xdpi="90"
       inkscape:export-ydpi="90"
       inkscape:export-filename="/home/dakayl/GDP8_redemption/Content/Images/final/heros_2.png" />
    <path
       style="display:inline;fill:none;fill-rule:evenodd;stroke:#ffffff;stroke-width:4.94999981;stroke-linecap:butt;stroke-linejoin:miter;stroke-miterlimit:4;stroke-dasharray:none;stroke-opacity:1;color:#000000;clip-rule:nonzero;overflow:visible;visibility:visible;opacity:1;isolation:auto;mix-blend-mode:normal;color-interpolation:sRGB;color-interpolation-filters:linearRGB;solid-color:#000000;solid-opacity:1;fill-opacity:1;stroke-dashoffset:0;filter-blend-mode:normal;filter-gaussianBlur-deviation:0;color-rendering:auto;image-rendering:auto;shape-rendering:auto;text-rendering:auto;enable-background:accumulate"
       d="M 205.78516 309.08203 C 219.80134 326.2396 236.7252 341.77766 253.12891 353.50586 C 282.80121 374.72066 311.39933 377.85909 345.11914 377.0293 C 388.62604 375.9586 397.24875 364.99179 411.43945 356.77539 C 423.47015 349.80959 467.91642 309.05779 483.80078 278.91797 L 478.75195 261.00586 L 471.4707 283.2793 L 453.39844 243.01562 L 434.46094 279.85352 C 434.46094 279.85352 432.45577 272.83774 429.63867 264.16797 C 428.23012 259.83308 426.61824 255.08412 424.95312 250.5918 C 423.28801 246.09948 421.57047 241.86444 419.94727 238.55469 C 418.20789 235.00809 415.72435 230.72784 412.97852 226.30469 C 410.23269 221.88153 407.22501 217.31564 404.43359 213.19141 C 398.85076 204.94293 394.13672 198.4668 394.13672 198.4668 C 394.13672 198.4668 391.53239 201.50272 387.2168 206.38672 C 382.9012 211.27072 376.87355 218.00194 370.0293 225.39648 C 363.18504 232.79103 355.52348 240.84922 347.9375 248.38086 C 344.14451 252.14668 340.37189 255.7797 336.72852 259.13477 C 333.08514 262.48983 329.57117 265.56525 326.30078 268.21289 C 323.18029 270.73918 319.39442 273.48635 315.15625 276.35742 C 310.91808 279.2285 306.22779 282.22483 301.30273 285.25195 C 291.45261 291.3062 280.65949 297.48325 270.64648 303.0293 C 260.63348 308.57534 251.40151 313.48962 244.67188 317.01758 C 237.94224 320.54554 233.71484 322.6875 233.71484 322.6875 C 233.71484 322.6875 237.97382 315.94445 243.28516 307.86133 C 245.94082 303.81977 248.85902 299.4428 251.64062 295.40625 C 254.42223 291.3697 257.06755 287.67319 259.17383 284.99219 C 260.23809 283.63752 261.5352 282.22093 262.99023 280.77734 C 264.44527 279.33376 266.05776 277.86302 267.75391 276.4043 C 271.14621 273.48685 274.87127 270.61339 278.33008 268.07812 C 285.24769 263.00759 291.10156 259.29297 291.10156 259.29297 L 205.78516 309.08203 z "
       id="path18090" />
    <path
       style="display:inline;fill:none;fill-rule:evenodd;stroke:#ffffff;stroke-width:4.94999981;stroke-linecap:butt;stroke-linejoin:miter;stroke-miterlimit:4;stroke-dasharray:none;stroke-opacity:1"
       d="M 191.26562 289.05078 C 193.78741 293.17306 196.60153 297.20547 199.54688 301.20508 L 235.00586 267.65039 C 235.00586 267.65039 227.34143 270.84998 217.80273 275.25977 C 213.03338 277.46466 207.79632 279.97152 202.8125 282.5332 C 198.53851 284.73003 194.7091 286.9311 191.26562 289.05078 z "
       id="path18088" />
    <path
       style="display:inline;fill:none;fill-rule:evenodd;stroke:#ffffff;stroke-width:4.94999981;stroke-linecap:butt;stroke-linejoin:miter;stroke-miterlimit:4;stroke-dasharray:none;stroke-opacity:1"
       d="M 175.11914 239.44336 C 175.11552 240.44694 175.11072 241.4489 175.1543 242.45703 L 177.12891 234.44727 C 177.12891 234.44727 175.34714 238.88342 175.11914 239.44336 z "
       id="path18086" />
    <path
       style="display:inline;fill:#ffffff;fill-rule:evenodd;stroke:#ffffff;stroke-width:0.16816296px;stroke-linecap:butt;stroke-linejoin:miter;stroke-opacity:1;fill-opacity:1"
       d="m 339.87765,300.7944 c 0,0 -12.93641,14.7552 -9.8685,22.4047 2.8008,6.9835 17.2125,0 17.2125,0 0,0 -11.1699,2.3231 -13.311,-3.2007 -2.3788,-6.1372 5.967,-19.204 5.967,-19.204 z"
       id="path4553"
       inkscape:connector-curvature="0"
       sodipodi:nodetypes="cscsc"
       inkscape:export-xdpi="90"
       inkscape:export-ydpi="90"
       inkscape:export-filename="/home/dakayl/GDP8_redemption/Content/Images/final/heros_2.png" />
    <path
       style="display:inline;fill:#ffffff;fill-rule:evenodd;stroke:#ffffff;stroke-width:0.27435005px;stroke-linecap:butt;stroke-linejoin:miter;stroke-opacity:1;fill-opacity:1"
       d="m 363.66945,351.43989 c 0,0 -18.78414,10.45654 -28.72722,10.95028 -10.12217,0.50264 -29.59191,-8.22561 -29.59191,-8.22561 0,0 18.50328,12.53375 28.58731,12.1748 10.57983,-0.3764 29.73182,-14.89947 29.73182,-14.89947 z"
       id="path4648"
       inkscape:connector-curvature="0"
       sodipodi:nodetypes="cscsc"
       inkscape:export-xdpi="90"
       inkscape:export-ydpi="90"
       inkscape:export-filename="/home/dakayl/GDP8_redemption/Content/Images/final/heros_2.png" />
    <path
       style="display:inline;fill:none;fill-rule:evenodd;stroke:#ffffff;stroke-width:4.95;stroke-linecap:butt;stroke-linejoin:miter;stroke-miterlimit:4;stroke-dasharray:none;stroke-opacity:1"
       d="M 254.98242 121.63281 C 242.07388 128.11409 229.73783 135.61443 218.16992 143.63867 C 187.23672 165.09597 158.07851 193.83743 143.97461 229.64453 C 129.87061 265.45172 139.15625 360.50391 139.15625 360.50391 C 139.15625 360.50391 147.97235 307.43962 155.37695 288.54102 C 162.78155 269.64242 177.12891 234.44727 177.12891 234.44727 L 154.74609 325.25781 C 154.74609 325.25781 175.56666 299.02741 189.34766 290.13281 C 204.35366 280.44731 235.00586 267.65039 235.00586 267.65039 L 167.79297 331.25391 L 291.10156 259.29297 C 291.10156 259.29297 267.68793 274.15488 259.17383 284.99219 C 250.74873 295.71619 233.71484 322.6875 233.71484 322.6875 C 233.71484 322.6875 301.33688 288.42319 326.30078 268.21289 C 352.46389 247.03179 394.13672 198.4668 394.13672 198.4668 C 394.13672 198.4668 412.98977 224.36829 419.94727 238.55469 C 426.44007 251.79369 434.46094 279.85352 434.46094 279.85352 L 453.39844 243.01562 L 471.4707 283.2793 L 478.75195 261.00586 L 483.82227 278.99609 C 483.82227 278.99609 493.5453 263.50184 494.7832 254.15234 C 496.8507 238.53634 495.72455 220.70781 488.43555 205.32031 C 473.43885 173.6619 445.96301 146.19643 416.97461 127.36133 C 414.40798 125.69367 411.76118 124.13765 409.10352 122.60156 A 95.68116 38.745907 0 0 1 406.09961 124.20117 A 95.68116 38.745907 0 0 1 399.58008 127.03516 A 95.68116 38.745907 0 0 1 392.39453 129.58984 A 95.68116 38.745907 0 0 1 384.61523 131.84375 A 95.68116 38.745907 0 0 1 376.32031 133.77148 A 95.68116 38.745907 0 0 1 367.58984 135.35352 A 95.68116 38.745907 0 0 1 358.51367 136.57422 A 95.68116 38.745907 0 0 1 349.18164 137.42188 A 95.68116 38.745907 0 0 1 339.6875 137.88867 A 95.68116 38.745907 0 0 1 332.91992 137.98633 A 95.68116 38.745907 0 0 1 323.36719 137.79297 A 95.68116 38.745907 0 0 1 313.91016 137.21289 A 95.68116 38.745907 0 0 1 304.64258 136.25586 A 95.68116 38.745907 0 0 1 295.6582 134.92773 A 95.68116 38.745907 0 0 1 287.04688 133.24219 A 95.68116 38.745907 0 0 1 278.89258 131.21875 A 95.68116 38.745907 0 0 1 271.2793 128.875 A 95.68116 38.745907 0 0 1 264.28125 126.23438 A 95.68116 38.745907 0 0 1 257.96875 123.32422 A 95.68116 38.745907 0 0 1 254.98242 121.63281 z "
       id="path18198" />
    <path
       style="display:inline;fill:none;fill-rule:evenodd;stroke:#ffffff;stroke-width:4.94999981;stroke-linecap:butt;stroke-linejoin:miter;stroke-miterlimit:4;stroke-dasharray:none;stroke-opacity:1"
       d="M 267.375 116.06055 A 86.991859 25.654917 0 0 0 270.51562 117.11328 A 86.991859 25.654917 0 0 0 276.87695 118.86133 A 86.991859 25.654917 0 0 0 283.80078 120.41406 A 86.991859 25.654917 0 0 0 291.21289 121.75391 A 86.991859 25.654917 0 0 0 299.04297 122.86914 A 86.991859 25.654917 0 0 0 307.21094 123.75 A 86.991859 25.654917 0 0 0 315.63672 124.38281 A 86.991859 25.654917 0 0 0 324.23438 124.76758 A 86.991859 25.654917 0 0 0 332.91992 124.89453 A 86.991859 25.654917 0 0 0 339.07227 124.83008 A 86.991859 25.654917 0 0 0 347.70508 124.52148 A 86.991859 25.654917 0 0 0 356.18945 123.96094 A 86.991859 25.654917 0 0 0 364.44141 123.15039 A 86.991859 25.654917 0 0 0 372.37891 122.10352 A 86.991859 25.654917 0 0 0 379.92188 120.82812 A 86.991859 25.654917 0 0 0 386.99414 119.33594 A 86.991859 25.654917 0 0 0 393.52734 117.64453 A 86.991859 25.654917 0 0 0 397.33008 116.43945 C 376.74608 106.51147 354.48419 100.63464 333.57812 100.80469 C 310.3362 100.99371 288.19616 107.0491 267.375 116.06055 z "
       id="path3353-0-6" />
    <ellipse
       style="color:#000000;clip-rule:nonzero;display:inline;overflow:visible;visibility:visible;opacity:1;isolation:auto;mix-blend-mode:normal;color-interpolation:sRGB;color-interpolation-filters:linearRGB;solid-color:#000000;solid-opacity:1;fill:none;fill-opacity:1;fill-rule:evenodd;stroke:#ffffff;stroke-width:3.7339139;stroke-linecap:butt;stroke-linejoin:miter;stroke-miterlimit:4;stroke-dasharray:none;stroke-dashoffset:0;stroke-opacity:1;color-rendering:auto;image-rendering:auto;shape-rendering:auto;text-rendering:auto;enable-background:accumulate"
       id="path18163"
       cx="332.91913"
       cy="99.239983"
       rx="86.991859"
       ry="25.654917" />
    <ellipse
       style="color:#000000;clip-rule:nonzero;display:inline;overflow:visible;visibility:visible;opacity:1;isolation:auto;mix-blend-mode:normal;color-interpolation:sRGB;color-interpolation-filters:linearRGB;solid-color:#000000;solid-opacity:1;fill:none;fill-opacity:1;fill-rule:evenodd;stroke:#ffffff;stroke-width:3.9513545;stroke-linecap:butt;stroke-linejoin:miter;stroke-miterlimit:4;stroke-dasharray:none;stroke-dashoffset:0;stroke-opacity:1;color-rendering:auto;image-rendering:auto;shape-rendering:auto;text-rendering:auto;enable-background:accumulate"
       id="path18165"
       cx="332.91913"
       cy="99.239983"
       rx="95.68116"
       ry="38.745907" />
    <path
       style="fill:none;fill-rule:evenodd;stroke:#ffffff;stroke-width:5;stroke-linecap:butt;stroke-linejoin:miter;stroke-miterlimit:4;stroke-dasharray:none;stroke-opacity:1"
       d="M 203.30469 298.83984 L 167.79297 332.44336 L 209.38281 308.17188 C 207.37773 305.04441 205.4196 301.95314 203.30469 298.83984 z "
       id="path18312" />
    <path
       style="fill:none;fill-rule:evenodd;stroke:#ffffff;stroke-width:5;stroke-linecap:butt;stroke-linejoin:miter;stroke-miterlimit:4;stroke-dasharray:none;stroke-opacity:1"
       d="M 168.08398 258.13086 C 163.26415 270.02848 159.70247 278.69055 155.37695 289.73047 C 154.45138 292.09279 153.5044 294.98842 152.55469 298.24805 C 151.60498 301.50768 150.65264 305.13107 149.71875 308.94727 C 147.85097 316.57966 146.05503 324.98463 144.49023 332.79883 C 141.36063 348.42723 139.15625 361.69336 139.15625 361.69336 C 139.15625 361.69336 138.57593 355.75188 137.92578 346.28125 C 137.82385 344.79649 137.72644 342.74078 137.62305 341.0918 L 91.083984 436.5 C 91.083984 436.5 93.023541 451.69982 101.72656 456.44141 C 112.50931 462.31609 127.96289 450.02148 127.96289 450.02148 L 164.8418 357.82422 L 140.25586 435.26953 C 140.25586 435.26953 142.4008 454.38173 153.86523 459.11133 C 166.29064 464.23738 177.13477 447.5625 177.13477 447.5625 L 196.80273 373.80664 L 207.28125 393.36719 C 209.1665 387.72278 211.23284 381.48387 211.96289 380.16797 C 212.81244 378.63667 213.87899 377.07495 215.10742 375.50586 C 216.33585 373.93676 217.72576 372.36127 219.22656 370.79883 C 222.22816 367.67394 225.66909 364.60505 229.12109 361.77344 C 231.81195 359.56618 234.3848 357.67861 236.88867 355.8418 C 234.65695 351.48619 224.29532 331.43192 209.38281 308.17188 L 167.79297 332.44336 L 203.30469 298.83984 C 200.74921 295.07801 198.23633 291.4176 195.56641 287.8125 C 193.48788 288.98928 191.08028 290.20396 189.34766 291.32227 C 187.62503 292.43409 185.79249 293.81629 183.9043 295.38477 C 182.0161 296.95324 180.07189 298.70755 178.12695 300.5625 C 174.23707 304.2724 170.34279 308.38599 166.87891 312.2207 C 159.95114 319.89013 154.74609 326.44727 154.74609 326.44727 L 170.97852 260.58789 C 170.01553 259.79423 169.03803 258.83546 168.08398 258.13086 z "
       id="path18308" />
    <path
       style="fill:none;fill-rule:evenodd;stroke:#ffffff;stroke-width:5;stroke-linecap:butt;stroke-linejoin:miter;stroke-miterlimit:4;stroke-dasharray:none;stroke-opacity:1"
       d="M 138.09766 258.15234 C 102.42252 299.5199 38.224609 419.28906 38.224609 419.28906 C 38.224609 419.28906 34.850268 442.79315 43.142578 447.5625 C 53.369718 453.44468 76.332031 435.26953 76.332031 435.26953 L 137.55469 339.9043 C 137.35242 336.60297 137.14494 333.54095 136.96289 329.73047 C 136.66673 323.53158 136.41695 316.75114 136.27734 309.69141 C 136.13774 302.63167 136.10736 295.29247 136.25195 287.97461 C 136.39654 280.65675 136.71506 273.35998 137.27148 266.38672 C 137.49653 263.56638 137.79058 260.84708 138.09766 258.15234 z "
       id="path18306" />
    <path
       style="fill:none;fill-rule:evenodd;stroke:#ffffff;stroke-width:5;stroke-linecap:butt;stroke-linejoin:miter;stroke-miterlimit:4;stroke-dasharray:none;stroke-opacity:1"
       d="M 527.26953 253.16992 C 494.39075 255.53344 445.79191 351.61906 442.34766 358.49609 C 442.71873 358.75274 443.09022 358.9505 443.46094 359.22461 C 446.01456 361.11277 448.55618 363.40471 451.03711 365.94531 C 453.51803 368.48592 455.93719 371.27645 458.24805 374.16211 C 460.5589 377.04777 462.76127 380.02785 464.80469 382.95117 C 467.95798 387.46228 470.27838 391.33001 472.5 395 L 482.77734 375.81641 L 502.44727 449.57422 C 502.44727 449.57422 513.29139 466.24714 525.7168 461.12109 C 537.18123 456.39149 539.32617 437.28125 539.32617 437.28125 L 514.74023 359.83594 L 551.61914 452.03125 C 551.61914 452.03125 567.07272 464.32585 577.85547 458.45117 C 586.55849 453.70958 588.49805 438.50977 588.49805 438.50977 L 539.32617 337.70703 L 603.24805 437.28125 C 603.24805 437.28125 626.21231 455.4564 636.43945 449.57422 C 644.73176 444.80487 641.35742 421.29883 641.35742 421.29883 C 641.35742 421.29883 576.03919 299.40477 540.55469 259.0332 C 536.63304 254.57145 532.13687 252.82003 527.26953 253.16992 z "
       id="path18243-9-7" />
    <path
       style="display:inline;fill:#000000;fill-opacity:1;fill-rule:evenodd;stroke:none;stroke-width:4.94999981;stroke-linecap:butt;stroke-linejoin:miter;stroke-miterlimit:4;stroke-dasharray:none;stroke-opacity:1"
       d="M 848.60352 321.77539 C 857.27042 330.72112 866.52001 338.94536 875.75391 346.07031 C 873.50111 347.5495 869.93932 349.98204 865.94922 352.91992 C 864.07462 349.26732 857.86302 337.31055 848.60352 321.77539 z "
       id="path18615" />
    <path
       style="display:inline;fill:#000000;fill-opacity:1;fill-rule:evenodd;stroke:none;stroke-width:4.94999981;stroke-linecap:butt;stroke-linejoin:miter;stroke-miterlimit:4;stroke-dasharray:none;stroke-opacity:1"
       d="M 962.21094 58.019531 C 909.36734 58.019433 866.529 75.366706 866.5293 96.765625 C 866.5723 104.79399 872.77264 112.61871 884.27344 119.1582 C 871.36544 125.63931 859.03029 133.14015 847.46289 141.16406 C 816.52969 162.62136 787.37148 191.36282 773.26758 227.16992 C 770.32898 234.63062 768.41629 244.68163 767.21289 255.89062 C 731.50349 297.44446 667.51758 416.81445 667.51758 416.81445 C 667.51758 416.81445 664.14325 440.31854 672.43555 445.08789 C 682.66275 450.97007 705.625 432.79492 705.625 432.79492 L 766.84766 337.42969 C 766.64536 334.12836 766.43786 331.06634 766.25586 327.25586 C 765.95966 321.05697 765.70991 314.27653 765.57031 307.2168 C 765.54531 305.96821 765.54534 304.67457 765.52734 303.41016 C 765.98764 332.7777 768.44922 358.0293 768.44922 358.0293 C 768.44922 358.0293 777.26532 304.96501 784.66992 286.06641 C 791.36577 268.97672 802.13331 242.56 804.41016 236.96875 C 804.41016 237.97233 804.39836 238.97429 804.44336 239.98242 L 806.41406 231.98438 L 806.42383 231.97266 L 800.0332 257.9043 C 799.148 257.15391 798.25401 256.30252 797.37891 255.65625 C 792.55911 267.55387 788.99737 276.21594 784.67188 287.25586 C 783.74627 289.61818 782.79931 292.51381 781.84961 295.77344 C 780.89981 299.03307 779.94757 302.65646 779.01367 306.47266 C 777.14587 314.10505 775.34996 322.51002 773.78516 330.32422 C 770.65556 345.95262 768.45117 359.21875 768.45117 359.21875 C 768.45117 359.21875 767.8709 353.27727 767.2207 343.80664 C 767.1188 342.32188 767.02137 340.26617 766.91797 338.61719 L 720.37891 434.02539 C 720.37891 434.02539 722.31848 449.22521 731.02148 453.9668 C 741.80428 459.84148 757.25781 447.54687 757.25781 447.54688 L 794.13672 355.34961 L 769.55078 432.79492 C 769.55078 432.79492 771.69576 451.90712 783.16016 456.63672 C 795.58556 461.76277 806.42969 445.08789 806.42969 445.08789 L 826.09766 371.33203 L 836.39844 390.5625 C 833.47504 399.38299 830.41211 409.17188 830.41211 409.17188 L 881.88672 425.23828 C 881.88672 425.23828 860.87603 461.84228 871.05273 476.95508 C 871.46863 477.57267 871.9059 478.16178 872.3457 478.75 L 871.35742 478.80664 L 889.82617 520.91992 L 889.82812 520.91992 L 889.97656 521.25977 L 889.82617 520.91992 L 889.73047 520.90625 L 885.39453 555.90234 C 885.39453 555.90234 888.51142 572.3844 899.01562 573.6875 C 911.56652 575.2445 923.16992 555.32812 923.16992 555.32812 L 933.58008 527.625 C 933.62208 527.619 933.98437 527.57031 933.98438 527.57031 L 938.67578 514.4707 C 938.67578 514.4707 954.22308 515.77792 962.01758 515.91992 C 970.86348 516.08112 988.55078 515.24219 988.55078 515.24219 L 995.54688 528.7168 C 995.54688 528.7168 996.30908 528.97224 996.58398 529.06836 L 995.48828 529.33008 L 997.41992 558.77148 C 997.41992 558.77148 1008.2276 576.25051 1013.7559 575.4082 C 1025.5162 573.61621 1034.7363 557.05078 1034.7363 557.05078 L 1042.0254 521.28125 C 1044.1501 519.60874 1045.582 518.39062 1045.582 518.39062 L 1051.4805 471.43164 C 1057.3528 455.78713 1055.1444 429.4737 1053.7969 427.04492 C 1053.521 426.54771 1055.3804 425.35225 1057.9648 423.92773 L 1057.9629 423.92383 C 1059.0491 423.32498 1059.9918 422.77066 1061.4004 422.07227 C 1059.9487 422.78559 1059.0579 423.32524 1057.9648 423.92773 L 1075.4609 465.03516 C 1075.4609 465.03516 1070.748 466.91338 1069.1602 468.76758 C 1064.256 474.49428 1060.7598 489.76953 1060.7598 489.76953 C 1056.7198 494.90784 1049.6394 505.15013 1053.0586 510.30273 C 1055.8246 514.08254 1061.8301 509.49805 1061.8301 509.49805 C 1064.8615 510.52795 1065.7954 514.52338 1068.9766 514.92578 C 1080.1278 515.98308 1081.6127 517.63705 1091.7949 515.08594 C 1093.6197 514.62874 1095.7617 510.30273 1095.7617 510.30273 L 1097.6289 460.60156 L 1096.6211 406.97461 C 1093.2048 408.33892 1090.6746 409.32681 1087.2461 410.72656 C 1098.3133 406.14878 1107.9199 402.375 1107.9199 402.375 C 1107.9199 402.375 1105.6963 398.13991 1102.0254 392.09961 L 1112.0742 373.3418 L 1131.7441 447.09961 C 1131.7441 447.09961 1142.5883 463.77253 1155.0137 458.64648 C 1166.4781 453.91688 1168.623 434.80664 1168.623 434.80664 L 1144.0371 357.36133 L 1180.916 449.55664 C 1180.916 449.55664 1196.3695 461.85124 1207.1523 455.97656 C 1215.8553 451.23497 1217.7949 436.03516 1217.7949 436.03516 L 1168.623 335.23242 L 1232.5449 434.80664 C 1232.5449 434.80664 1255.5091 452.98179 1265.7363 447.09961 C 1274.0286 442.33026 1270.6543 418.82422 1270.6543 418.82422 C 1270.6543 418.82422 1205.3361 296.93016 1169.8516 256.55859 C 1165.9299 252.09683 1161.4338 250.34542 1156.5664 250.69531 C 1123.9734 253.03829 1076.061 347.23524 1071.873 355.57617 C 1069.6115 353.98929 1067.3473 352.71012 1065.1094 351.88867 C 1059.5702 349.85537 1052.8492 349.76021 1045.877 350.75781 C 1062.2849 338.40694 1098.9666 303.25645 1113.0977 276.44336 L 1113.1191 276.52148 C 1113.1191 276.52148 1122.8422 261.02723 1124.0801 251.67773 C 1126.1476 236.06173 1125.0214 218.2332 1117.7324 202.8457 C 1102.7357 171.18729 1075.2599 143.72182 1046.2715 124.88672 C 1043.7049 123.21906 1041.0581 121.66304 1038.4004 120.12695 C 1051.0083 113.40742 1057.8538 105.20472 1057.8965 96.765625 C 1057.8968 75.366706 1015.0585 58.019433 962.21484 58.019531 L 962.21094 58.019531 z M 964.37891 73.085938 A 86.991859 25.654917 0 0 1 970.53711 73.150391 A 86.991859 25.654917 0 0 1 979.16992 73.460938 A 86.991859 25.654917 0 0 1 987.6543 74.021484 A 86.991859 25.654917 0 0 1 995.9043 74.830078 A 86.991859 25.654917 0 0 1 1003.8418 75.878906 A 86.991859 25.654917 0 0 1 1011.3848 77.154297 A 86.991859 25.654917 0 0 1 1018.457 78.646484 A 86.991859 25.654917 0 0 1 1024.9902 80.339844 A 86.991859 25.654917 0 0 1 1030.916 82.214844 A 86.991859 25.654917 0 0 1 1036.1797 84.257812 A 86.991859 25.654917 0 0 1 1040.7227 86.443359 A 86.991859 25.654917 0 0 1 1044.5059 88.751953 A 86.991859 25.654917 0 0 1 1047.4863 91.162109 A 86.991859 25.654917 0 0 1 1049.6367 93.646484 A 86.991859 25.654917 0 0 1 1050.9375 96.181641 A 86.991859 25.654917 0 0 1 1051.3711 98.742188 A 86.991859 25.654917 0 0 1 1051.3105 99.650391 A 86.991859 25.654917 0 0 1 1050.5547 102.20508 A 86.991859 25.654917 0 0 1 1048.9375 104.72461 A 86.991859 25.654917 0 0 1 1046.4746 107.18359 A 86.991859 25.654917 0 0 1 1043.1934 109.55859 A 86.991859 25.654917 0 0 1 1039.123 111.82422 A 86.991859 25.654917 0 0 1 1034.3066 113.95898 A 86.991859 25.654917 0 0 1 1028.791 115.94141 C 1023.645 113.45941 1018.3943 111.22958 1013.0859 109.28516 C 1007.7776 107.34074 1002.411 105.68237 997.03516 104.33789 C 991.65936 102.99342 986.27428 101.96342 980.92578 101.28125 C 978.25148 100.94017 975.58525 100.68529 972.93555 100.52148 C 970.28585 100.35763 967.65236 100.28544 965.03906 100.30664 C 962.13386 100.33027 959.2454 100.44521 956.375 100.64648 C 953.5046 100.84774 950.65111 101.13441 947.81641 101.50195 C 942.14701 102.23702 936.5507 103.29305 931.0293 104.625 C 925.5078 105.95696 920.06211 107.56642 914.69531 109.4043 C 909.32911 111.24198 904.04264 113.30992 898.83789 115.5625 A 86.991859 25.654917 0 0 1 897.95117 115.25977 A 86.991859 25.654917 0 0 1 892.67578 113.2207 A 86.991859 25.654917 0 0 1 888.11719 111.03711 A 86.991859 25.654917 0 0 1 884.31836 108.73047 A 86.991859 25.654917 0 0 1 881.32227 106.32227 A 86.991859 25.654917 0 0 1 879.1543 103.83984 A 86.991859 25.654917 0 0 1 877.83984 101.30469 A 86.991859 25.654917 0 0 1 877.38867 98.742188 A 86.991859 25.654917 0 0 1 877.60547 96.927734 A 86.991859 25.654917 0 0 1 878.6543 94.380859 A 86.991859 25.654917 0 0 1 880.55859 91.878906 A 86.991859 25.654917 0 0 1 883.29883 89.445312 A 86.991859 25.654917 0 0 1 886.85156 87.105469 A 86.991859 25.654917 0 0 1 891.17773 84.880859 A 86.991859 25.654917 0 0 1 896.23633 82.794922 A 86.991859 25.654917 0 0 1 901.97461 80.867188 A 86.991859 25.654917 0 0 1 908.33789 79.119141 A 86.991859 25.654917 0 0 1 915.25977 77.568359 A 86.991859 25.654917 0 0 1 922.67188 76.228516 A 86.991859 25.654917 0 0 1 930.50195 75.111328 A 86.991859 25.654917 0 0 1 938.66992 74.232422 A 86.991859 25.654917 0 0 1 947.0957 73.597656 A 86.991859 25.654917 0 0 1 955.69336 73.214844 A 86.991859 25.654917 0 0 1 964.37891 73.085938 z M 893.57422 123.75977 C 895.79672 124.68667 898.13237 125.56798 900.57227 126.40039 C 898.13237 125.56798 895.79672 124.68667 893.57422 123.75977 z M 1021.5879 198.12109 C 1020.3973 199.49057 1018.6676 201.47011 1016.5098 203.91211 C 1014.352 206.35411 1011.7652 209.25894 1008.8633 212.47656 C 1014.6667 206.04071 1019.2067 200.85972 1021.5879 198.12109 z M 916.60156 259.31055 C 913.69146 261.26384 909.43138 264.207 904.98828 267.56445 C 905.87698 266.89296 906.75835 266.23733 907.62305 265.60352 C 911.08195 263.06825 914.27346 260.87302 916.60156 259.31055 z M 899.64258 271.75586 C 897.88238 273.19409 896.16812 274.66305 894.57422 276.12305 C 895.37122 275.39258 896.19877 274.65905 897.04688 273.92969 C 897.89498 273.20033 898.76228 272.47513 899.64258 271.75586 z M 831.85156 280.19336 C 827.68226 282.34562 823.93199 284.49963 820.55859 286.57617 C 820.73029 286.85688 820.91349 287.13418 821.08789 287.41406 C 820.20749 287.90205 819.36002 288.38329 818.64062 288.84766 C 816.91803 289.95948 815.08547 291.34168 813.19727 292.91016 C 811.30907 294.47863 809.36492 296.23294 807.41992 298.08789 C 803.53002 301.79779 799.63578 305.91138 796.17188 309.74609 C 789.24407 317.41552 784.03906 323.97266 784.03906 323.97266 L 784.45898 322.27148 C 785.65518 320.77206 805.27623 296.28391 818.64062 287.6582 C 822.32782 285.27835 826.96196 282.71292 831.85156 280.19336 z M 765.45312 295.81641 C 765.45412 296.52365 765.4668 297.21524 765.4668 297.91992 C 765.4628 297.21861 765.45312 296.52057 765.45312 295.81641 z M 887.97266 354.80078 C 889.82006 355.98917 891.66597 357.11071 893.50977 358.16797 C 891.66597 357.11071 889.82036 355.98893 887.97266 354.80078 z M 899.03906 361.15234 C 900.09526 361.68721 901.15228 362.1955 902.20898 362.69141 L 902.20898 362.69336 C 901.15218 362.19756 900.09546 361.68704 899.03906 361.15234 z M 830.82617 411.05469 L 835.41992 467.78711 L 838.94141 517.40039 C 838.94141 517.40039 841.22721 521.65264 843.06641 522.04883 C 853.32781 524.25914 854.75543 522.55529 865.86523 521.12695 C 869.03133 520.61878 869.83283 516.59516 872.82812 515.46484 C 872.82812 515.46485 878.98064 519.8465 881.61914 515.97656 C 884.86484 510.713 877.44913 500.71179 873.24023 495.71094 C 873.24023 495.71094 869.23673 480.56213 864.14453 475.00195 C 862.49573 473.20173 857.72266 471.48047 857.72266 471.48047 L 874.30273 423.34375 L 830.82617 411.05469 z M 903.86523 498.3125 C 905.55453 498.77253 907.27316 499.18276 909.00586 499.56055 C 907.27256 499.18269 905.55503 498.77242 903.86523 498.3125 z M 910.1543 499.80664 C 912.936 500.38337 915.75993 500.86879 918.61133 501.27344 C 915.76043 500.86884 912.9354 500.38326 910.1543 499.80664 z M 1039.2031 523.42773 C 1038.4233 524.00764 1037.6576 524.5862 1036.793 525.19531 C 1037.8557 524.44658 1038.5766 523.90821 1039.2031 523.42773 z M 1036.791 525.19531 C 1034.9227 526.51163 1032.8883 527.85866 1030.8262 529.07422 C 1032.8884 527.85892 1034.9227 526.51166 1036.791 525.19531 z M 902.31641 527.07617 C 903.29811 527.45198 904.26469 527.7916 905.18359 528.07227 C 904.26479 527.79124 903.29821 527.45196 902.31641 527.07617 z M 927.92773 528.33984 C 926.81403 528.46228 925.58539 528.5875 924.30469 528.70117 C 925.61399 528.58493 926.82903 528.46105 927.92773 528.33984 z M 923.8125 528.74219 C 921.1494 528.97034 918.25864 529.15315 915.49414 529.1875 C 914.06364 529.2053 912.67063 529.18347 911.36523 529.10938 C 915.19253 529.32542 919.7716 529.08808 923.8125 528.74219 z M 1001.5566 530.64062 C 1002.546 530.92976 1003.6479 531.23353 1004.9043 531.55469 C 1003.7187 531.25151 1002.5954 530.94196 1001.5566 530.64062 z M 1005.457 531.69336 C 1006.6615 531.99391 1007.9081 532.28463 1009.1758 532.54102 C 1007.9087 532.28462 1006.6609 531.9938 1005.457 531.69336 z "
       id="path18050-9-8" />
    <path
       inkscape:connector-curvature="0"
       style="display:inline;fill:none;fill-rule:evenodd;stroke:#ffffff;stroke-width:4.94999981;stroke-linecap:butt;stroke-linejoin:miter;stroke-miterlimit:4;stroke-dasharray:none;stroke-opacity:1"
       d="m 890.60099,522.9226 -0.0977,-0.0137 -4.33594,34.99609 c 0,0 3.11689,16.48206 13.62109,17.78516 12.5509,1.557 24.1543,-18.35938 24.1543,-18.35938 l 10.41406,-27.71093 c -0.33551,0.0506 -4.22449,0.64392 -9.48047,1.10351 -2.73845,0.23946 -5.74446,0.43125 -8.60547,0.4668 -2.861,0.0356 -5.57606,-0.0866 -7.72851,-0.4707 -1.58265,-0.28243 -3.48643,-0.88848 -5.45117,-1.64063 -1.96474,-0.75215 -3.99004,-1.65006 -5.81836,-2.51172 -3.65665,-1.72331 -6.52344,-3.30468 -6.52344,-3.30468 l -0.14844,-0.33985 z"
       id="path18050-9" />
    <path
       inkscape:connector-curvature="0"
       style="display:inline;fill:none;fill-rule:evenodd;stroke:#ffffff;stroke-width:4.94999981;stroke-linecap:butt;stroke-linejoin:miter;stroke-miterlimit:4;stroke-dasharray:none;stroke-opacity:1"
       d="m 997.42521,531.05346 -1.16601,0.2793 1.93164,29.4414 c 0,0 10.80766,17.47903 16.33596,16.63672 11.7603,-1.79199 20.9804,-18.35742 20.9804,-18.35742 l 7.3223,-35.92969 c -1.5742,1.28582 -2.2776,1.97161 -5.2617,4.07422 -2.4915,1.75551 -5.2791,3.56477 -8.0332,5.04492 -1.3771,0.74008 -2.7466,1.39869 -4.0664,1.92578 -1.3199,0.5271 -2.5908,0.9226 -3.7715,1.14063 -1.0568,0.19513 -2.2457,0.27074 -3.5176,0.25195 -1.2719,-0.0188 -2.6259,-0.13199 -4.0137,-0.31054 -2.7756,-0.35711 -5.684,-0.97913 -8.3281,-1.65039 -4.6731,-1.1864 -7.5803,-2.25153 -8.41209,-2.54688 z"
       id="path18032-3" />
    <path
       inkscape:connector-curvature="0"
       style="display:inline;fill:none;fill-rule:evenodd;stroke:#ffffff;stroke-width:4.94999981;stroke-linecap:butt;stroke-linejoin:miter;stroke-miterlimit:4;stroke-dasharray:none;stroke-opacity:1"
       d="m 873.20646,480.74682 -1.07617,0.0625 18.61914,42.45313 c 0,0 11.46237,6.32732 17.79297,7.45703 8.6098,1.53649 26.21289,-1.14649 26.21289,-1.14649 l 4.69141,-13.09961 c 0,0 15.54728,1.30722 23.34179,1.44922 8.8459,0.1612 26.53321,-0.67773 26.53321,-0.67773 l 6.99609,13.47461 c 0,0 16.92481,6.15084 25.37891,4.58984 9.4456,-1.7442 24.6562,-14.91602 24.6562,-14.91602 l 5.9766,-47.57812 c -0.2498,0.69447 -0.4083,1.50031 -0.6894,2.15234 -0.4741,1.09931 -0.9954,2.13528 -1.5645,3.0918 -0.5691,0.95652 -1.1862,1.83516 -1.8574,2.62109 -1.2202,1.4287 -2.5125,2.78286 -3.8711,4.06641 -1.3587,1.28355 -2.784,2.49553 -4.2695,3.64063 -1.4856,1.14509 -3.0321,2.22301 -4.6329,3.23632 -1.6007,1.01331 -3.2565,1.9614 -4.9609,2.84961 -3.4087,1.77642 -7.0122,3.31084 -10.7656,4.62696 -3.7535,1.31611 -7.6569,2.41496 -11.6621,3.32421 -4.0053,0.90925 -8.11321,1.62776 -12.27737,2.1836 -4.16417,0.55583 -8.38318,0.9492 -12.61328,1.20508 -4.23011,0.25587 -8.47071,0.37541 -12.67383,0.38476 -4.20312,0.009 -8.36994,-0.0917 -12.45313,-0.27539 -7.37977,-0.332 -15.36124,-0.55631 -23.45703,-1.11133 -4.04789,-0.2775 -8.12415,-0.63625 -12.16797,-1.13476 -4.04382,-0.49852 -8.05496,-1.13515 -11.97265,-1.96485 -3.91769,-0.8297 -7.7426,-1.85394 -11.41211,-3.125 -1.83476,-0.63552 -3.63104,-1.33308 -5.38086,-2.09961 -1.74983,-0.76652 -3.45193,-1.60238 -5.10156,-2.51367 -1.64964,-0.91129 -3.24511,-1.89696 -4.7793,-2.96679 -1.5342,-1.06983 -3.00666,-2.22271 -4.41016,-3.46485 -1.40349,-1.24214 -2.73855,-2.57373 -3.99609,-4.00195 -0.76646,-0.87049 -1.44662,-1.84924 -2.1543,-2.79297 z"
       id="path18068-1" />
    <path
       inkscape:connector-curvature="0"
       style="display:inline;fill:none;fill-rule:evenodd;stroke:#ffffff;stroke-width:4.94999981;stroke-linecap:butt;stroke-linejoin:miter;stroke-miterlimit:4;stroke-dasharray:none;stroke-opacity:1"
       d="m 1058.7338,425.92651 17.498,41.11133 c 0,0 -4.7129,1.87822 -6.3007,3.73242 -4.9042,5.7267 -8.4004,21.00195 -8.4004,21.00195 -4.04,5.13831 -11.1204,15.3806 -7.7012,20.5332 2.766,3.77981 8.7715,-0.80468 8.7715,-0.80468 3.0314,1.0299 3.9653,5.02533 7.1465,5.42773 11.1512,1.0573 12.6361,2.71127 22.8183,0.16016 1.8248,-0.4572 3.9668,-4.78321 3.9668,-4.78321 l 1.8672,-49.70117 -1.0078,-53.62695 c -5.3368,2.13126 -8.2384,3.22249 -16.3594,6.6582 -6.865,2.90436 -13.6801,5.89852 -18.6797,8.3457 -1.529,0.74845 -2.4802,1.31737 -3.6191,1.94532 z"
       id="path18011-6" />
    <path
       style="display:inline;fill:none;fill-rule:evenodd;stroke:#ffffff;stroke-width:4.94999981;stroke-linecap:butt;stroke-linejoin:miter;stroke-miterlimit:4;stroke-dasharray:none;stroke-opacity:1"
       d="m 858.49842,473.48192 c 0,0 4.77242,1.7213 6.42118,3.52152 5.09221,5.56018 9.09555,20.70947 9.09555,20.70947 4.20886,5.00085 11.62601,15.00284 8.38032,20.2664 -2.63853,3.86994 -8.79244,-0.51228 -8.79244,-0.51228 -2.99535,1.13031 -3.79587,5.15395 -6.96196,5.66212 -11.1098,1.42834 -12.53851,3.1321 -22.79997,0.92179 -1.8392,-0.39619 -4.12411,-4.64871 -4.12411,-4.64871 l -3.52183,-49.61282 -4.59271,-56.73177 43.47524,12.28729 z"
       id="path5130-6-0-2"
       inkscape:connector-curvature="0"
       sodipodi:nodetypes="csccccsccccc"
       inkscape:export-xdpi="90"
       inkscape:export-ydpi="90"
       inkscape:export-filename="/home/dakayl/GDP8_redemption/Content/Images/final/heros_2.png" />
    <path
       style="display:inline;fill:#ffffff;fill-opacity:1;fill-rule:evenodd;stroke:#ffffff;stroke-width:0.33000001px;stroke-linecap:butt;stroke-linejoin:miter;stroke-opacity:1"
       d="m 902.86263,363.85197 2.9172,1.2741 0.5948,8.4622 c 0,0 27.5344,40.0348 48.3846,41.8741 17.85431,1.5751 35.35861,-13.9159 47.46817,-27.6518 3.5975,-4.0805 6.2494,-16.3497 6.2494,-16.3497 l 3.1638,-0.2986 c 0,0 -3.52,13.5328 -7.4486,17.7847 -12.66586,13.7081 -30.79546,31.1651 -48.99867,29.5559 -21.7981,-1.9269 -50.898,-44.6487 -50.898,-44.6487 z"
       id="path4669-3"
       inkscape:connector-curvature="0"
       sodipodi:nodetypes="cccssccsscc"
       inkscape:export-xdpi="90"
       inkscape:export-ydpi="90"
       inkscape:export-filename="/home/dakayl/GDP8_redemption/Content/Images/final/heros_2.png" />
    <path
       style="display:inline;fill:none;fill-rule:evenodd;stroke:#ffffff;stroke-width:4.94999981;stroke-linecap:butt;stroke-linejoin:miter;stroke-miterlimit:4;stroke-dasharray:none;stroke-opacity:1"
       d="m 876.6381,348.00073 c -7.18634,4.71333 -27.81099,18.88438 -34.60742,31.13476 -1.9153,3.4523 -10.84475,32.03941 -10.84475,32.03941 l 51.47366,16.06606 c 0,0 -21.01069,36.604 -10.83399,51.7168 17.5412,26.0492 56.69379,25.63684 86.21289,26.96484 32.66551,1.4697 70.65661,-2.38309 90.17971,-25.24219 10.7397,-12.5749 7.941,-48.76431 6.3496,-51.63281 -1.5915,-2.86851 54.123,-24.66992 54.123,-24.66992 0,0 -22.5788,-43.05983 -42.8105,-50.48633 -5.5527,-2.03826 -12.2928,-2.13038 -19.2832,-1.125 -1.9693,1.4767 -3.7953,2.78754 -5.0899,3.53711 -3.5476,2.0541 -6.7467,4.28017 -10.2304,6.48047 -1.7419,1.10015 -3.5547,2.19326 -5.5176,3.25586 -1.9629,1.0626 -4.076,2.09466 -6.418,3.07031 -2.3419,0.97565 -4.9139,1.89508 -7.7929,2.73438 -2.8791,0.83929 -6.0665,1.59841 -9.6407,2.25195 -0.8468,0.15485 -1.94257,0.24206 -2.83395,0.38476 l -4.48047,8.09571 c 0,0 -23.28807,24.17998 -38.23828,23.52148 -18.5667,-0.818 -44.73633,-33.27343 -44.73633,-33.27343 l 0.0996,-4.61524 c -2.12425,-0.79199 -4.25401,-1.49717 -6.37109,-2.43359 -3.69031,-1.6323 -7.37493,-3.49095 -11.0625,-5.60547 -3.68757,-2.11452 -7.37886,-4.48487 -11.08789,-7.13672 -2.1782,-1.55735 -4.37009,-3.34663 -6.5586,-5.0332 z"
       id="path18122-6"
       inkscape:connector-curvature="0"
       sodipodi:nodetypes="csccsssccscsssssscccccsssc" />
    <path
       inkscape:connector-curvature="0"
       style="display:inline;fill:#000000;fill-rule:evenodd;stroke:#ffffff;stroke-width:0.33000001px;stroke-linecap:butt;stroke-linejoin:miter;stroke-opacity:1"
       d="m 1081.1108,247.12573 c 1.4627,-0.012 2.9385,-0.10865 4.3671,-0.0977 l -1.4296,-3.18555 c -0.42,0.006 -0.8524,0.0431 -1.2754,0.0508 l -1.6621,3.23243 z"
       id="path18159-2" />
    <path
       inkscape:connector-curvature="0"
       style="display:inline;fill:#ffffff;fill-opacity:1;fill-rule:evenodd;stroke:#ffffff;stroke-width:0.33000001px;stroke-linecap:butt;stroke-linejoin:miter;stroke-opacity:1"
       d="m 1053.599,246.69799 c -1.3083,0.30474 -2.7673,0.54148 -3.9316,0.9082 -25.524,8.03941 -68.07813,42.54883 -68.07813,42.54883 l 1.06446,3.19141 c 0,0 42.42007,-35.15327 68.07807,-43.08008 1.1799,-0.3645 2.653,-0.58837 3.9825,-0.88281 -0.3728,-0.9945 -0.7397,-1.72807 -1.1153,-2.68555 z"
       id="path18157-9" />
    <ellipse
       style="display:inline;opacity:1;fill:#ffffff;fill-opacity:1;stroke:#ffffff;stroke-width:0;stroke-miterlimit:4;stroke-dasharray:none;stroke-opacity:1"
       id="path4572-7"
       cx="1038.2096"
       cy="271.76721"
       rx="7.1800761"
       ry="12.498652"
       inkscape:export-xdpi="90"
       inkscape:export-ydpi="90"
       inkscape:export-filename="/home/dakayl/GDP8_redemption/Content/Images/final/heros_2.png" />
    <path
       inkscape:connector-curvature="0"
       style="color:#000000;clip-rule:nonzero;display:inline;overflow:visible;visibility:visible;opacity:1;isolation:auto;mix-blend-mode:normal;color-interpolation:sRGB;color-interpolation-filters:linearRGB;solid-color:#000000;solid-opacity:1;fill:none;fill-opacity:1;fill-rule:evenodd;stroke:#ffffff;stroke-width:4.94999981;stroke-linecap:butt;stroke-linejoin:miter;stroke-miterlimit:4;stroke-dasharray:none;stroke-dashoffset:0;stroke-opacity:1;color-rendering:auto;image-rendering:auto;shape-rendering:auto;text-rendering:auto;enable-background:accumulate"
       d="m 835.85295,308.6101 c 14.01618,17.15757 30.94004,32.69563 47.34375,44.42383 29.6723,21.2148 58.27042,24.35323 91.99023,23.52344 43.50687,-1.0707 52.12957,-12.03751 66.32027,-20.25391 12.0307,-6.9658 56.477,-47.7176 72.3614,-77.85742 l -5.0489,-17.91211 -7.2812,22.27344 -18.0723,-40.26368 -18.9375,36.8379 c 0,0 -2.0051,-7.01578 -4.8222,-15.68555 -1.4086,-4.33489 -3.0205,-9.08385 -4.6856,-13.57617 -1.6651,-4.49232 -3.3826,-8.72736 -5.0058,-12.03711 -1.7394,-3.5466 -4.223,-7.82685 -6.9688,-12.25 -2.7458,-4.42316 -5.7535,-8.98905 -8.5449,-13.11328 -5.5829,-8.24848 -10.2969,-14.72461 -10.2969,-14.72461 0,0 -2.6043,3.03592 -6.9199,7.91992 -4.3156,4.884 -10.3433,11.61522 -17.1875,19.00976 -6.84427,7.39455 -14.50583,15.45274 -22.09181,22.98438 -3.79299,3.76582 -7.56561,7.39884 -11.20898,10.75391 -3.64338,3.35506 -7.15735,6.43048 -10.42774,9.07812 -3.12049,2.52629 -6.90636,5.27346 -11.14453,8.14453 -4.23817,2.87108 -8.92846,5.86741 -13.85352,8.89453 -9.85012,6.05425 -20.64324,12.2313 -30.65625,17.77735 -10.013,5.54604 -19.24497,10.46032 -25.9746,13.98828 -6.72964,3.52796 -10.95704,5.66992 -10.95704,5.66992 0,0 4.25898,-6.74305 9.57032,-14.82617 2.65566,-4.04156 5.57386,-8.41853 8.35546,-12.45508 2.78161,-4.03655 5.42693,-7.73306 7.53321,-10.41406 1.06426,-1.35467 2.36137,-2.77126 3.8164,-4.21485 1.45504,-1.44358 3.06753,-2.91432 4.76368,-4.37304 3.3923,-2.91745 7.11736,-5.79091 10.57617,-8.32618 6.91761,-5.07053 12.77148,-8.78515 12.77148,-8.78515 l -85.3164,49.78906 z"
       id="path18090-5" />
    <path
       inkscape:connector-curvature="0"
       style="display:inline;fill:none;fill-rule:evenodd;stroke:#ffffff;stroke-width:4.94999981;stroke-linecap:butt;stroke-linejoin:miter;stroke-miterlimit:4;stroke-dasharray:none;stroke-opacity:1"
       d="m 821.33341,288.57885 c 2.52179,4.12228 5.33591,8.15469 8.28126,12.1543 l 35.45898,-33.55469 c 0,0 -7.66443,3.19959 -17.20313,7.60938 -4.76935,2.20489 -10.00641,4.71175 -14.99023,7.27343 -4.27399,2.19683 -8.1034,4.3979 -11.54688,6.51758 z"
       id="path18088-2" />
    <path
       inkscape:connector-curvature="0"
       style="display:inline;fill:none;fill-rule:evenodd;stroke:#ffffff;stroke-width:4.94999981;stroke-linecap:butt;stroke-linejoin:miter;stroke-miterlimit:4;stroke-dasharray:none;stroke-opacity:1"
       d="m 805.18693,238.97143 c -0.004,1.00358 -0.008,2.00554 0.0352,3.01367 l 1.97461,-8.00976 c 0,0 -1.78177,4.43615 -2.00977,4.99609 z"
       id="path18086-9" />
    <path
       style="display:inline;fill:#ffffff;fill-opacity:1;fill-rule:evenodd;stroke:#ffffff;stroke-width:0.16816296px;stroke-linecap:butt;stroke-linejoin:miter;stroke-opacity:1"
       d="m 969.94544,300.32247 c 0,0 -12.93641,14.7552 -9.8685,22.4047 2.8008,6.9835 17.2125,0 17.2125,0 0,0 -11.1699,2.3231 -13.311,-3.2007 -2.3788,-6.1372 5.967,-19.204 5.967,-19.204 z"
       id="path4553-3"
       inkscape:connector-curvature="0"
       sodipodi:nodetypes="cscsc"
       inkscape:export-xdpi="90"
       inkscape:export-ydpi="90"
       inkscape:export-filename="/home/dakayl/GDP8_redemption/Content/Images/final/heros_2.png" />
    <path
       style="display:inline;fill:#ffffff;fill-opacity:1;fill-rule:evenodd;stroke:#ffffff;stroke-width:0.27435005px;stroke-linecap:butt;stroke-linejoin:miter;stroke-opacity:1"
       d="m 993.73724,350.96796 c 0,0 -18.78414,10.45654 -28.72722,10.95028 -10.12217,0.50264 -29.59191,-8.22561 -29.59191,-8.22561 0,0 18.50328,12.53375 28.58731,12.1748 10.57983,-0.3764 29.73182,-14.89947 29.73182,-14.89947 z"
       id="path4648-1"
       inkscape:connector-curvature="0"
       sodipodi:nodetypes="cscsc"
       inkscape:export-xdpi="90"
       inkscape:export-ydpi="90"
       inkscape:export-filename="/home/dakayl/GDP8_redemption/Content/Images/final/heros_2.png" />
    <path
       inkscape:connector-curvature="0"
       style="display:inline;fill:none;fill-rule:evenodd;stroke:#ffffff;stroke-width:4.94999981;stroke-linecap:butt;stroke-linejoin:miter;stroke-miterlimit:4;stroke-dasharray:none;stroke-opacity:1"
       d="m 885.05021,121.16088 c -12.90854,6.48128 -25.24459,13.98162 -36.8125,22.00586 -30.9332,21.4573 -60.09141,50.19876 -74.19531,86.00586 -14.104,35.80719 -4.81836,130.85938 -4.81836,130.85938 0,0 8.8161,-53.06429 16.2207,-71.96289 7.4046,-18.8986 21.75196,-54.09375 21.75196,-54.09375 l -22.38282,90.81054 c 0,0 20.82057,-26.2304 34.60157,-35.125 15.006,-9.6855 45.6582,-22.48242 45.6582,-22.48242 l -67.21289,63.60352 123.30859,-71.96094 c 0,0 -23.41363,14.86191 -31.92773,25.69922 -8.4251,10.724 -25.45899,37.69531 -25.45899,37.69531 0,0 67.62204,-34.26431 92.58594,-54.47461 26.16311,-21.1811 67.83593,-69.74609 67.83593,-69.74609 0,0 18.8531,25.90149 25.8106,40.08789 6.4928,13.239 14.5136,41.29883 14.5136,41.29883 l 18.9375,-36.8379 18.0723,40.26368 7.2812,-22.27344 5.0704,17.99023 c 0,0 9.723,-15.49425 10.9609,-24.84375 2.0675,-15.616 0.9413,-33.44453 -6.3477,-48.83203 -14.9967,-31.65841 -42.4725,-59.12388 -71.4609,-77.95898 -2.5666,-1.66766 -5.2134,-3.22368 -7.8711,-4.75977 a 95.68116,38.745907 0 0 1 -3.0039,1.59961 95.68116,38.745907 0 0 1 -6.5195,2.83399 95.68116,38.745907 0 0 1 -7.1856,2.55468 95.68116,38.745907 0 0 1 -7.7793,2.25391 95.68116,38.745907 0 0 1 -8.2949,1.92773 95.68116,38.745907 0 0 1 -8.73047,1.58204 95.68116,38.745907 0 0 1 -9.07617,1.2207 95.68116,38.745907 0 0 1 -9.33203,0.84766 95.68116,38.745907 0 0 1 -9.49414,0.46679 95.68116,38.745907 0 0 1 -6.76758,0.0977 95.68116,38.745907 0 0 1 -9.55273,-0.19336 95.68116,38.745907 0 0 1 -9.45703,-0.58008 95.68116,38.745907 0 0 1 -9.26758,-0.95703 95.68116,38.745907 0 0 1 -8.98438,-1.32813 95.68116,38.745907 0 0 1 -8.61132,-1.68554 95.68116,38.745907 0 0 1 -8.1543,-2.02344 95.68116,38.745907 0 0 1 -7.61328,-2.34375 95.68116,38.745907 0 0 1 -6.99805,-2.64062 95.68116,38.745907 0 0 1 -6.3125,-2.91016 95.68116,38.745907 0 0 1 -2.98633,-1.69141 z"
       id="path18198-3" />
    <path
       inkscape:connector-curvature="0"
       style="display:inline;fill:none;fill-rule:evenodd;stroke:#ffffff;stroke-width:4.94999981;stroke-linecap:butt;stroke-linejoin:miter;stroke-miterlimit:4;stroke-dasharray:none;stroke-opacity:1"
       d="m 897.44279,115.58862 a 86.991859,25.654917 0 0 0 3.14062,1.05273 86.991859,25.654917 0 0 0 6.36133,1.74805 86.991859,25.654917 0 0 0 6.92383,1.55273 86.991859,25.654917 0 0 0 7.41211,1.33985 86.991859,25.654917 0 0 0 7.83008,1.11523 86.991859,25.654917 0 0 0 8.16797,0.88086 86.991859,25.654917 0 0 0 8.42578,0.63281 86.991859,25.654917 0 0 0 8.59766,0.38477 86.991859,25.654917 0 0 0 8.68554,0.12695 86.991859,25.654917 0 0 0 6.15235,-0.0645 86.991859,25.654917 0 0 0 8.63281,-0.3086 86.991859,25.654917 0 0 0 8.48437,-0.56054 86.991859,25.654917 0 0 0 8.25196,-0.81055 86.991859,25.654917 0 0 0 7.9375,-1.04687 86.991859,25.654917 0 0 0 7.543,-1.2754 86.991859,25.654917 0 0 0 7.0722,-1.49218 86.991859,25.654917 0 0 0 6.5332,-1.69141 86.991859,25.654917 0 0 0 3.8028,-1.20508 c -20.584,-9.92798 -42.84592,-15.80482 -63.75199,-15.63477 -23.24192,0.18902 -45.38196,6.24442 -66.20312,15.25587 z"
       id="path3353-0-6-4" />
    <ellipse
       style="color:#000000;clip-rule:nonzero;display:inline;overflow:visible;visibility:visible;opacity:1;isolation:auto;mix-blend-mode:normal;color-interpolation:sRGB;color-interpolation-filters:linearRGB;solid-color:#000000;solid-opacity:1;fill:none;fill-opacity:1;fill-rule:evenodd;stroke:#ffffff;stroke-width:3.7339139;stroke-linecap:butt;stroke-linejoin:miter;stroke-miterlimit:4;stroke-dasharray:none;stroke-dashoffset:0;stroke-opacity:1;color-rendering:auto;image-rendering:auto;shape-rendering:auto;text-rendering:auto;enable-background:accumulate"
       id="path18163-1"
       cx="962.98688"
       cy="98.768036"
       rx="86.991859"
       ry="25.654917" />
    <ellipse
       style="color:#000000;clip-rule:nonzero;display:inline;overflow:visible;visibility:visible;opacity:1;isolation:auto;mix-blend-mode:normal;color-interpolation:sRGB;color-interpolation-filters:linearRGB;solid-color:#000000;solid-opacity:1;fill:none;fill-opacity:1;fill-rule:evenodd;stroke:#ffffff;stroke-width:3.9513545;stroke-linecap:butt;stroke-linejoin:miter;stroke-miterlimit:4;stroke-dasharray:none;stroke-dashoffset:0;stroke-opacity:1;color-rendering:auto;image-rendering:auto;shape-rendering:auto;text-rendering:auto;enable-background:accumulate"
       id="path18165-2"
       cx="962.98688"
       cy="98.768036"
       rx="95.68116"
       ry="38.745907" />
    <path
       inkscape:connector-curvature="0"
       style="fill:none;fill-rule:evenodd;stroke:#ffffff;stroke-width:5;stroke-linecap:butt;stroke-linejoin:miter;stroke-miterlimit:4;stroke-dasharray:none;stroke-opacity:1"
       d="m 768.16545,257.68041 c -35.67514,41.36756 -99.87305,161.13672 -99.87305,161.13672 0,0 -3.37434,23.50409 4.91797,28.27344 10.22714,5.88218 33.18945,-12.29297 33.18945,-12.29297 l 61.22266,-95.36523 c -0.20227,-3.30133 -0.40975,-6.36335 -0.5918,-10.17383 -0.29616,-6.19889 -0.54594,-12.97933 -0.68555,-20.03906 -0.1396,-7.05974 -0.16998,-14.39894 -0.0254,-21.7168 0.14459,-7.31786 0.46311,-14.61463 1.01953,-21.58789 0.22505,-2.82034 0.5191,-5.53964 0.82618,-8.23438 z"
       id="path18306-8" />
    <path
       inkscape:connector-curvature="0"
       style="fill:none;fill-rule:evenodd;stroke:#ffffff;stroke-width:5;stroke-linecap:butt;stroke-linejoin:miter;stroke-miterlimit:4;stroke-dasharray:none;stroke-opacity:1"
       d="m 1157.3373,252.69799 c -32.8788,2.36352 -81.4776,98.44914 -84.9219,105.32617 0.3711,0.25665 0.7426,0.45441 1.1133,0.72852 2.5536,1.88816 5.0953,4.1801 7.5762,6.7207 2.4809,2.54061 4.9001,5.33114 7.2109,8.2168 2.3109,2.88566 4.5133,5.86574 6.5567,8.78906 3.1533,4.51111 5.4737,8.37884 7.6953,12.04883 l 10.2773,-19.18359 19.67,73.75781 c 0,0 10.8441,16.67292 23.2695,11.54687 11.4644,-4.7296 13.6094,-23.83984 13.6094,-23.83984 l -24.586,-77.44531 36.8789,92.19531 c 0,0 15.4536,12.2946 26.2364,6.41992 8.703,-4.74159 10.6425,-19.9414 10.6425,-19.9414 l -49.1718,-100.80274 63.9219,99.57422 c 0,0 22.9642,18.17515 33.1914,12.29297 8.2923,-4.76935 4.9179,-28.27539 4.9179,-28.27539 0,0 -65.3182,-121.89406 -100.8027,-162.26563 -3.9217,-4.46175 -8.4178,-6.21317 -13.2852,-5.86328 z"
       id="path18243-9-7-4" />
    <path
       inkscape:connector-curvature="0"
       style="fill:none;fill-rule:evenodd;stroke:#ffffff;stroke-width:5;stroke-linecap:butt;stroke-linejoin:miter;stroke-miterlimit:4;stroke-dasharray:none;stroke-opacity:1"
       d="m 798.15177,257.65893 c -4.81983,11.89762 -8.38151,20.55969 -12.70703,31.59961 -0.92557,2.36232 -1.87255,5.25795 -2.82226,8.51758 -0.94971,3.25963 -1.90205,6.88302 -2.83594,10.69922 -1.86778,7.63239 -3.66372,16.03736 -5.22852,23.85156 -3.1296,15.6284 -5.33398,28.89452 -5.33398,28.89452 0,0 -0.58032,-5.94148 -1.23047,-15.4121 -0.10193,-1.48476 -0.19934,-3.54047 -0.30273,-5.18945 l -46.53907,95.40819 c 0,0 1.93956,15.19982 10.64258,19.94141 10.78275,5.87468 26.23633,-6.41993 26.23633,-6.41993 l 36.87891,-92.19726 -24.58594,77.44531 c 0,0 2.14494,19.1122 13.60937,23.8418 12.42541,5.12605 23.26954,-11.54883 23.26954,-11.54883 l 19.66796,-73.75586 10.47852,19.56055 c 1.88525,-5.64441 3.95159,-11.88332 4.68164,-13.19922 0.84955,-1.5313 1.9161,-3.09302 3.14453,-4.66211 1.22843,-1.5691 2.61834,-3.14459 4.11914,-4.70703 3.0016,-3.12489 6.44253,-6.19378 9.89453,-9.02539 2.69086,-2.20726 5.26371,-4.09483 7.76758,-5.93164 -2.23172,-4.3556 -12.59335,-24.40987 -27.50586,-47.66991 l -41.58984,24.27148 35.51172,-33.60352 c -2.55548,-3.76183 -5.06836,-7.42224 -7.73828,-11.02734 -2.07853,1.17678 -4.48613,2.39146 -6.21875,3.50977 -1.72263,1.11182 -3.55517,2.49402 -5.44336,4.0625 -1.8882,1.56847 -3.83241,3.32278 -5.77735,5.17773 -3.88988,3.7099 -7.78416,7.82349 -11.24804,11.6582 -6.92777,7.66943 -12.13282,14.22657 -12.13282,14.22657 l 16.23243,-65.85938 c -0.96299,-0.79366 -1.94049,-1.75243 -2.89454,-2.45703 z"
       id="path18308-7" />
  </g>
</svg>
