<?xml version="1.0" encoding="UTF-8" standalone="no"?>
<!-- Created with Inkscape (http://www.inkscape.org/) -->

<svg
   xmlns:dc="http://purl.org/dc/elements/1.1/"
   xmlns:cc="http://creativecommons.org/ns#"
   xmlns:rdf="http://www.w3.org/1999/02/22-rdf-syntax-ns#"
   xmlns:svg="http://www.w3.org/2000/svg"
   xmlns="http://www.w3.org/2000/svg"
   xmlns:sodipodi="http://sodipodi.sourceforge.net/DTD/sodipodi-0.dtd"
   xmlns:inkscape="http://www.inkscape.org/namespaces/inkscape"
   width="210mm"
   height="297mm"
   viewBox="0 0 744.09448819 1052.3622047"
   id="svg2"
   version="1.1"
   inkscape:version="0.91 r13725"
   sodipodi:docname="Heros.svg"
   inkscape:export-filename="/home/dakayl/GDP8_redemption/Content/Images/final/heros.png"
   inkscape:export-xdpi="90"
   inkscape:export-ydpi="90">
  <defs
     id="defs4">
    <inkscape:perspective
       sodipodi:type="inkscape:persp3d"
       inkscape:vp_x="0 : 526.1811 : 1"
       inkscape:vp_y="0 : 1000 : 0"
       inkscape:vp_z="744.09449 : 526.1811 : 1"
       inkscape:persp3d-origin="372.04724 : 350.7874 : 1"
       id="perspective3340" />
    <mask
       maskUnits="userSpaceOnUse"
       id="mask4346">
      <path
         style="fill:#aa4400;fill-rule:evenodd;stroke:#000000;stroke-width:1px;stroke-linecap:butt;stroke-linejoin:miter;stroke-opacity:1"
         d="M -521.21969,5.0056628 C -346.98843,-8.4710881 -179.07068,110.42006 -4.917166,95.973253 137.155,84.187739 261.24363,-85.887156 398.29052,-46.624589 462.76307,-28.153846 511.64536,44.746821 523.67827,110.72475 542.83619,215.76995 507.4245,347.30423 425.33493,415.58909 136.26524,656.04695 -401.64056,797.93027 -693.32053,560.64551 -818.92234,458.4671 -730.19928,76.304582 -730.19928,76.304582 c 0,0 135.59625,-65.622733 208.97959,-71.2989192 z"
         id="path4348"
         inkscape:connector-curvature="0"
         sodipodi:nodetypes="sssssscs" />
    </mask>
    <mask
       maskUnits="userSpaceOnUse"
       id="mask4346-7">
      <path
         style="fill:#aa4400;fill-rule:evenodd;stroke:#000000;stroke-width:1px;stroke-linecap:butt;stroke-linejoin:miter;stroke-opacity:1"
         d="M -521.21969,5.0056628 C -346.98843,-8.4710881 -179.07068,110.42006 -4.917166,95.973253 137.155,84.187739 261.24363,-85.887156 398.29052,-46.624589 462.76307,-28.153846 511.64536,44.746821 523.67827,110.72475 542.83619,215.76995 507.4245,347.30423 425.33493,415.58909 136.26524,656.04695 -401.64056,797.93027 -693.32053,560.64551 -818.92234,458.4671 -730.19928,76.304582 -730.19928,76.304582 c 0,0 135.59625,-65.622733 208.97959,-71.2989192 z"
         id="path4348-5"
         inkscape:connector-curvature="0"
         sodipodi:nodetypes="sssssscs" />
    </mask>
    <clipPath
       clipPathUnits="userSpaceOnUse"
       id="clipPath4446">
      <path
         style="fill:#ff9955;fill-rule:evenodd;stroke:#000000;stroke-width:1px;stroke-linecap:butt;stroke-linejoin:miter;stroke-opacity:1"
         d="m -373.80078,13.013701 c 31.90982,-52.423279 241.60294,-392.034961 241.60294,-392.034961 L -344.17023,40.364978 Z M -132.19784,-358.5078 -148.15275,95.067531 -234.76512,67.716254 Z m 63.819649,-6.83782 41.026915,478.64733 116.242924,-59.261094 z m 22.79273,4.55854 257.557851,414.827696 77.49529,-84.333102 z"
         id="path4448"
         inkscape:connector-curvature="0" />
    </clipPath>
    <clipPath
       clipPathUnits="userSpaceOnUse"
       id="clipPath4477">
      <path
         style="fill:#504416;fill-rule:evenodd;stroke:#000000;stroke-width:1px;stroke-linecap:butt;stroke-linejoin:miter;stroke-opacity:1"
         d="m -275.59889,739.69446 80.58447,-120.87671 -111.20657,288.49241 12.89352,99.92474 515.74061,-51.57406 -16.11689,-343.28985 49.96237,135.38191 0,294.9392 -568.92637,14.5052 -51.57406,-182.12093 z"
         id="path4479"
         inkscape:connector-curvature="0" />
    </clipPath>
    <clipPath
       clipPathUnits="userSpaceOnUse"
       id="clipPath4477-1">
      <path
         style="fill:#504416;fill-rule:evenodd;stroke:#000000;stroke-width:1px;stroke-linecap:butt;stroke-linejoin:miter;stroke-opacity:1"
         d="m -275.59889,739.69446 80.58447,-120.87671 -111.20657,288.49241 12.89352,99.92474 515.74061,-51.57406 -16.11689,-343.28985 49.96237,135.38191 0,294.9392 -568.92637,14.5052 -51.57406,-182.12093 z"
         id="path4479-8"
         inkscape:connector-curvature="0" />
    </clipPath>
    <clipPath
       clipPathUnits="userSpaceOnUse"
       id="clipPath4477-2">
      <path
         style="fill:#504416;fill-rule:evenodd;stroke:#000000;stroke-width:1px;stroke-linecap:butt;stroke-linejoin:miter;stroke-opacity:1"
         d="m -275.59889,739.69446 80.58447,-120.87671 -111.20657,288.49241 12.89352,99.92474 515.74061,-51.57406 -16.11689,-343.28985 49.96237,135.38191 0,294.9392 -568.92637,14.5052 -51.57406,-182.12093 z"
         id="path4479-2"
         inkscape:connector-curvature="0" />
    </clipPath>
    <clipPath
       clipPathUnits="userSpaceOnUse"
       id="clipPath4549">
      <ellipse
         style="opacity:1;fill:#504416;fill-opacity:1;stroke:#000000;stroke-width:0;stroke-miterlimit:4;stroke-dasharray:none;stroke-opacity:1"
         id="ellipse4551"
         cx="30.851261"
         cy="354.82324"
         rx="445.87189"
         ry="248.8784"
         transform="matrix(0.98518789,-0.17147832,0.17551797,0.98447623,0,0)" />
    </clipPath>
    <clipPath
       clipPathUnits="userSpaceOnUse"
       id="clipPath4748">
      <path
         style="fill:#225500;fill-rule:evenodd;stroke:#000000;stroke-width:1px;stroke-linecap:butt;stroke-linejoin:miter;stroke-opacity:1"
         d="m -1479.9236,557.20932 -0.8058,41.09808 c 0,0 59.246,76.82593 85.4195,99.92474 28.4811,25.13531 70.1085,31.42795 70.1085,31.42795 l 0.8058,-25.78703 z"
         id="path4750"
         inkscape:connector-curvature="0"
         sodipodi:nodetypes="ccsccc" />
    </clipPath>
    <clipPath
       clipPathUnits="userSpaceOnUse"
       id="clipPath5059">
      <path
         style="display:inline;fill:#000080;fill-rule:evenodd;stroke:#000000;stroke-width:0;stroke-linecap:butt;stroke-linejoin:miter;stroke-miterlimit:4;stroke-dasharray:none;stroke-opacity:1"
         d="m -308.12458,898.01497 56.42378,128.64753 c 0,0 34.73108,19.1769 53.91466,22.6003 26.09046,4.656 79.43185,-3.477 79.43185,-3.477 l 14.21745,-39.6948 c 0,0 47.11481,3.9608 70.73443,4.3913 26.8058303,0.4885 80.40457,-2.0555 80.40457,-2.0555 l 21.19929,40.836 c 0,0 51.28909,18.6383 76.90772,13.9078 28.62293,-5.2852 74.71122,-45.2005 74.71122,-45.2005 l 19.00155,-151.24778 z"
         id="path5061"
         inkscape:connector-curvature="0"
         sodipodi:nodetypes="ccsccsccsccc" />
    </clipPath>
    <clipPath
       clipPathUnits="userSpaceOnUse"
       id="clipPath5281">
      <path
         style="fill:#ffccaa;fill-rule:evenodd;stroke:#000000;stroke-width:1px;stroke-linecap:butt;stroke-linejoin:miter;stroke-opacity:1"
         d="m 313.90242,867.88385 c 0,0 -14.28024,5.69497 -19.09189,11.31371 -14.86099,17.3537 -25.45584,63.63961 -25.45584,63.63961 -12.24219,15.57063 -33.69598,46.61163 -23.33453,62.22543 8.38169,11.4541 29.05204,-4.9142 29.05204,-4.9142 9.18597,3.1209 9.54187,17.7009 19.18198,18.9203 33.79152,3.2041 38.29055,8.22 69.1457,0.4896 5.52996,-1.3855 12.02082,-14.4957 12.02082,-14.4957 l 5.65685,-150.61378 -2.19239,-223.08683 -137.81474,65.40202 z"
         id="path5283"
         inkscape:connector-curvature="0"
         sodipodi:nodetypes="csccccsccccc" />
    </clipPath>
    <clipPath
       clipPathUnits="userSpaceOnUse"
       id="clipPath5300">
      <path
         style="fill:#ffccaa;fill-rule:evenodd;stroke:#000000;stroke-width:1px;stroke-linecap:butt;stroke-linejoin:miter;stroke-opacity:1"
         d="m 309.90242,864.88385 c 0,0 -14.28024,5.69497 -19.09189,11.31371 -14.86099,17.3537 -25.45584,63.63961 -25.45584,63.63961 -12.24219,15.57063 -33.69598,46.61166 -23.33453,62.22543 8.38169,11.4541 29.05204,-4.9142 29.05204,-4.9142 9.18597,3.1209 9.54187,17.7009 19.18198,18.9203 33.79152,3.2041 38.29055,8.22 69.1457,0.4896 5.52996,-1.3855 12.02082,-14.4957 12.02082,-14.4957 l 5.65685,-150.61378 -2.19239,-223.08683 -137.81474,65.40202 z"
         id="path5302"
         inkscape:connector-curvature="0"
         sodipodi:nodetypes="csccccsccccc" />
    </clipPath>
    <clipPath
       clipPathUnits="userSpaceOnUse"
       id="clipPath5281-0">
      <path
         style="fill:#ffccaa;fill-rule:evenodd;stroke:#000000;stroke-width:1px;stroke-linecap:butt;stroke-linejoin:miter;stroke-opacity:1"
         d="m 313.90242,867.88385 c 0,0 -14.28024,5.69497 -19.09189,11.31371 -14.86099,17.3537 -25.45584,63.63961 -25.45584,63.63961 -12.24219,15.57063 -33.69598,46.61163 -23.33453,62.22543 8.38169,11.4541 29.05204,-4.9142 29.05204,-4.9142 9.18597,3.1209 9.54187,17.7009 19.18198,18.9203 33.79152,3.2041 38.29055,8.22 69.1457,0.4896 5.52996,-1.3855 12.02082,-14.4957 12.02082,-14.4957 l 5.65685,-150.61378 -2.19239,-223.08683 -137.81474,65.40202 z"
         id="path5283-9"
         inkscape:connector-curvature="0"
         sodipodi:nodetypes="csccccsccccc" />
    </clipPath>
    <clipPath
       clipPathUnits="userSpaceOnUse"
       id="clipPath5281-0-6">
      <path
         style="fill:#ffccaa;fill-rule:evenodd;stroke:#000000;stroke-width:1px;stroke-linecap:butt;stroke-linejoin:miter;stroke-opacity:1"
         d="m 313.90242,867.88385 c 0,0 -14.28024,5.69497 -19.09189,11.31371 -14.86099,17.3537 -25.45584,63.63961 -25.45584,63.63961 -12.24219,15.57063 -33.69598,46.61163 -23.33453,62.22543 8.38169,11.4541 29.05204,-4.9142 29.05204,-4.9142 9.18597,3.1209 9.54187,17.7009 19.18198,18.9203 33.79152,3.2041 38.29055,8.22 69.1457,0.4896 5.52996,-1.3855 12.02082,-14.4957 12.02082,-14.4957 l 5.65685,-150.61378 -2.19239,-223.08683 -137.81474,65.40202 z"
         id="path5283-9-9"
         inkscape:connector-curvature="0"
         sodipodi:nodetypes="csccccsccccc" />
    </clipPath>
    <clipPath
       clipPathUnits="userSpaceOnUse"
       id="clipPath5300-0">
      <path
         style="fill:#ffccaa;fill-rule:evenodd;stroke:#000000;stroke-width:1px;stroke-linecap:butt;stroke-linejoin:miter;stroke-opacity:1"
         d="m 309.90242,864.88385 c 0,0 -14.28024,5.69497 -19.09189,11.31371 -14.86099,17.3537 -25.45584,63.63961 -25.45584,63.63961 -12.24219,15.57063 -33.69598,46.61166 -23.33453,62.22543 8.38169,11.4541 29.05204,-4.9142 29.05204,-4.9142 9.18597,3.1209 9.54187,17.7009 19.18198,18.9203 33.79152,3.2041 38.29055,8.22 69.1457,0.4896 5.52996,-1.3855 12.02082,-14.4957 12.02082,-14.4957 l 5.65685,-150.61378 -2.19239,-223.08683 -137.81474,65.40202 z"
         id="path5302-1"
         inkscape:connector-curvature="0"
         sodipodi:nodetypes="csccccsccccc" />
    </clipPath>
  </defs>
  <sodipodi:namedview
     id="base"
     pagecolor="#ffffff"
     bordercolor="#666666"
     borderopacity="1.0"
     inkscape:pageopacity="0.0"
     inkscape:pageshadow="2"
     inkscape:zoom="0.1767767"
     inkscape:cx="-302.00813"
     inkscape:cy="751.10851"
     inkscape:document-units="px"
     inkscape:current-layer="layer4"
     showgrid="false"
     showguides="false"
     inkscape:window-width="1366"
     inkscape:window-height="744"
     inkscape:window-x="0"
     inkscape:window-y="24"
     inkscape:window-maximized="1" />
  <metadata
     id="metadata7">
    <rdf:RDF>
      <cc:Work
         rdf:about="">
        <dc:format>image/svg+xml</dc:format>
        <dc:type
           rdf:resource="http://purl.org/dc/dcmitype/StillImage" />
        <dc:title></dc:title>
      </cc:Work>
    </rdf:RDF>
  </metadata>
  <g
     inkscape:groupmode="layer"
     id="layer4"
     inkscape:label="Back" />
  <g
     inkscape:groupmode="layer"
     id="layer7"
     inkscape:label="Chaussures">
    <path
       style="display:inline;fill:#552200;fill-rule:evenodd;stroke:#000000;stroke-width:0;stroke-linecap:butt;stroke-linejoin:miter;stroke-miterlimit:4;stroke-dasharray:none;stroke-opacity:1"
       d="m -250.68398,1029.6049 -13.13718,106.0474 c 0,0 9.44138,49.944 41.27225,53.8929 38.03314,4.7183 73.19838,-55.6314 73.19838,-55.6314 l 32.01307,-85.1856 z"
       id="path4233"
       inkscape:connector-curvature="0"
       sodipodi:nodetypes="ccsccc" />
    <path
       style="display:inline;fill:#552200;fill-rule:evenodd;stroke:#000000;stroke-width:0;stroke-linecap:butt;stroke-linejoin:miter;stroke-miterlimit:4;stroke-dasharray:none;stroke-opacity:1"
       d="m 63.340872,1059.1591 12.299819,85.1856 c 0,0 32.754159,52.9685 49.506609,50.4159 35.63728,-5.4302 63.57487,-55.6314 63.57487,-55.6314 l 30.91482,-114.7397 z"
       id="path4235"
       inkscape:connector-curvature="0"
       sodipodi:nodetypes="ccsccc" />
    <path
       style="display:inline;fill:none;fill-rule:evenodd;stroke:#000000;stroke-width:10;stroke-linecap:butt;stroke-linejoin:miter;stroke-miterlimit:4;stroke-dasharray:none;stroke-opacity:1"
       d="m -251.64319,1030.4295 -13.13718,106.0473 c 0,0 9.44138,49.944 41.27225,53.8929 38.03314,4.7183 73.19838,-55.6314 73.19838,-55.6314 l 32.01307,-85.1855 z"
       id="path4233-8"
       inkscape:connector-curvature="0"
       sodipodi:nodetypes="ccsccc" />
    <path
       style="display:inline;fill:none;fill-rule:evenodd;stroke:#000000;stroke-width:10;stroke-linecap:butt;stroke-linejoin:miter;stroke-miterlimit:4;stroke-dasharray:none;stroke-opacity:1"
       d="m 68.82841,1055.9545 5.853061,89.2147 c 0,0 32.754169,52.9685 49.506619,50.4159 35.63728,-5.4302 63.57487,-55.6314 63.57487,-55.6314 l 24.077,-118.1585 z"
       id="path4235-0"
       inkscape:connector-curvature="0"
       sodipodi:nodetypes="ccsccc" />
  </g>
  <g
     inkscape:groupmode="layer"
     id="layer3"
     inkscape:label="Cou"
     style="display:inline">
    <path
       style="fill:#ffb380;fill-rule:evenodd;stroke:#000000;stroke-width:0;stroke-linecap:butt;stroke-linejoin:miter;stroke-miterlimit:4;stroke-dasharray:none;stroke-opacity:1"
       d="M -298.21001,469.9695 -156.01889,647.29456 -2.3053687,708.1414 152.16529,582.97077 217.01387,469.54767 Z"
       id="path4174"
       inkscape:connector-curvature="0"
       sodipodi:nodetypes="cccccc" />
    <path
       style="fill:#000080;fill-rule:evenodd;stroke:#000000;stroke-width:0;stroke-linecap:butt;stroke-linejoin:miter;stroke-miterlimit:4;stroke-dasharray:none;stroke-opacity:1"
       d="m -306.35088,901.6882 56.42378,128.6475 c 0,0 34.73108,19.1769 53.91466,22.6003 26.09046,4.656 79.43185,-3.477 79.43185,-3.477 l 14.21745,-39.6948 c 0,0 47.114816,3.9608 70.73443,4.3913 26.8058288,0.4885 80.40457,-2.0555 80.40457,-2.0555 l 21.199294,40.836 c 0,0 51.289086,18.6383 76.907716,13.9078 28.62293,-5.2852 74.71122,-45.2005 74.71122,-45.2005 l 19.00155,-151.24775 z"
       id="path4231"
       inkscape:connector-curvature="0"
       sodipodi:nodetypes="ccsccsccsccc" />
    <path
       style="display:inline;fill:none;fill-rule:evenodd;stroke:#000000;stroke-width:10;stroke-linecap:butt;stroke-linejoin:miter;stroke-miterlimit:4;stroke-dasharray:none;stroke-opacity:1"
       d="m -307.31874,902.85004 56.42378,128.64746 c 0,0 34.73108,19.1769 53.91466,22.6003 26.09046,4.656 79.43185,-3.477 79.43185,-3.477 l 14.21745,-39.6948 c 0,0 47.114814,3.9608 70.734434,4.3913 26.8058299,0.4885 80.40457,-2.0555 80.40457,-2.0555 l 21.19929,40.836 c 0,0 51.289086,18.6383 76.907716,13.9078 28.62293,-5.2852 74.71122,-45.2005 74.71122,-45.2005 l 19.00155,-151.24776 z"
       id="path4231-9"
       inkscape:connector-curvature="0"
       sodipodi:nodetypes="ccsccsccsccc" />
    <path
       style="fill:#00112b;fill-rule:evenodd;stroke:#000000;stroke-width:0;stroke-linecap:butt;stroke-linejoin:miter;stroke-miterlimit:4;stroke-dasharray:none;stroke-opacity:1"
       d="m -246.58849,1033.8278 c 0,0 -27.87068,-74.41443 -7.25259,-86.22541 29.28745,-16.77718 132.24564,-30.76201 199.04364,-42.70976 97.003585,-6.0512 176.11772,4.56336 263.51122,27.39871 26.02883,78.98196 -12.08767,110.40076 -12.08767,110.40076 l 26.59287,-23.3695 17.72859,-136.18778 -275.598893,96.70136 -290.909937,-96.70136 z"
       id="path5036"
       inkscape:connector-curvature="0"
       clip-path="url(#clipPath5059)"
       sodipodi:nodetypes="cscccccccc" />
  </g>
  <g
     inkscape:groupmode="layer"
     id="layer8"
     inkscape:label="Bras">
    <path
       style="fill:#ffccaa;fill-rule:evenodd;stroke:#000000;stroke-width:1px;stroke-linecap:butt;stroke-linejoin:miter;stroke-opacity:1"
       d="m 311.28341,866.02559 c 0,0 -14.28024,5.69497 -19.09189,11.31371 -14.86099,17.3537 -25.45584,63.63961 -25.45584,63.63961 -12.24219,15.57063 -33.69598,46.61166 -23.33453,62.22539 8.38169,11.4541 29.05204,-4.91419 29.05204,-4.91419 9.18597,3.12089 9.54187,17.70089 19.18198,18.92029 33.79152,3.2041 38.29055,8.22 69.14571,0.4896 5.52996,-1.3855 12.02082,-14.4957 12.02082,-14.4957 l 5.65685,-150.61374 -2.19239,-223.08683 -137.81475,65.40202 z"
       id="path5130"
       inkscape:connector-curvature="0"
       sodipodi:nodetypes="csccccsccccc" />
    <path
       style="fill:#ffb380;fill-rule:evenodd;stroke:#000000;stroke-width:0;stroke-linecap:butt;stroke-linejoin:miter;stroke-opacity:1;stroke-miterlimit:4;stroke-dasharray:none"
       d="m 308,868.3622 43,-19 c 0,0 -47.16514,-54.1875 -63,-86 -26.3628,-52.96332 -51,-170 -51,-170 l 15,128 33,132 z"
       id="path5264"
       inkscape:connector-curvature="0"
       sodipodi:nodetypes="ccscccc"
       clip-path="url(#clipPath5300)" />
    <path
       transform="translate(-1.9492301,-2.970428)"
       style="display:inline;fill:#ffb380;fill-rule:evenodd;stroke:#000000;stroke-width:0;stroke-linecap:butt;stroke-linejoin:miter;stroke-miterlimit:4;stroke-dasharray:none;stroke-opacity:1"
       d="m 299.40149,955.01497 15.79238,15.45413 c 0,0 27.79296,16.19313 41.0409,18.64743 20.35545,3.77103 53.3566,-28.61523 53.3566,-28.61523 l -40.77183,84.5234 -107.99862,-38.2155 z"
       id="path5232"
       inkscape:connector-curvature="0"
       sodipodi:nodetypes="ccscccc"
       clip-path="url(#clipPath5281-0)" />
    <path
       style="fill:none;fill-rule:evenodd;stroke:#000000;stroke-width:10;stroke-linecap:butt;stroke-linejoin:miter;stroke-miterlimit:4;stroke-dasharray:none;stroke-opacity:1"
       d="m 311.1698,861.1175 c 0,0 -14.28024,5.6949 -19.09189,11.3137 -14.86099,17.3537 -25.45584,63.6396 -25.45584,63.6396 -12.24219,15.5706 -33.69598,46.6117 -23.33453,62.2254 8.38169,11.4541 26.57717,-2.4393 26.57717,-2.4393 9.18597,3.1209 12.01674,15.226 21.65685,16.4454 33.79152,3.2041 38.29055,8.22 69.14572,0.4896 5.52996,-1.3855 12.02082,-14.4957 12.02082,-14.4957 l 5.65685,-150.6138 0.80761,-221.08679 -140.81476,63.40202 z"
       id="path5130-6"
       inkscape:connector-curvature="0"
       sodipodi:nodetypes="csccccsccccc" />
    <path
       style="fill:#000000;fill-rule:evenodd;stroke:#000000;stroke-width:0;stroke-linecap:butt;stroke-linejoin:miter;stroke-miterlimit:4;stroke-dasharray:none;stroke-opacity:1"
       d="m 296.93328,954.23845 11.46752,13.25305 -5.12653,4.2426 -5.12652,4.2427 0.35355,0.7071 0.35355,5.3033 1.06066,0 3.35876,1.2374 1.23744,-2.2981 c 0,0 1.3889,-3.7092 2.82843,-4.9497 1.72421,-1.4858 6.36396,-2.4749 6.36396,-2.4749 0,0 9.23869,3.161 13.87697,4.6846 2.1157,0.695 6.36396,2.0329 6.36396,2.0329 0,0 -1.46789,-1.1105 -5.65685,-3.5355 -2.902,-1.68 -12.10921,-7.4246 -12.10921,-7.4246 l -18.46016,-16.47796 z"
       id="path5134"
       inkscape:connector-curvature="0"
       sodipodi:nodetypes="cccccccccscacsccc" />
    <path
       style="fill:#000000;fill-rule:evenodd;stroke:#000000;stroke-width:0;stroke-linecap:butt;stroke-linejoin:miter;stroke-miterlimit:4;stroke-dasharray:none;stroke-opacity:1"
       d="m 262.05497,998.9556 c 0,0 6.05575,-8.2802 9.37437,-12.2959 8.57836,-10.3802 26.208,-33.8125 26.208,-33.8125 0,0 -14.40573,30.8089 -23.208,41.757 -2.9987,3.7297 -5.31371,7.3389 -5.31371,7.3389 z"
       id="path5136"
       inkscape:connector-curvature="0"
       sodipodi:nodetypes="cscscc" />
    <path
       style="fill:#ffccaa;fill-rule:evenodd;stroke:#000000;stroke-width:1px;stroke-linecap:butt;stroke-linejoin:miter;stroke-opacity:1"
       d="m -400.00404,846.73949 c 0,0 10.8632,10.87881 13.0601,17.94251 6.78523,21.81652 -1.79133,68.51853 -1.79133,68.51853 5.08524,19.14302 12.51188,56.13841 -3.1803,66.38061 -12.22863,7.20476 -24.73923,-16.0044 -24.73923,-16.0044 -9.6713,-0.76692 -15.76499,12.4834 -25.10129,9.7904 -32.30325,-10.42276 -38.41934,-7.5954 -63.70076,-26.89952 -4.531,-3.45978 -5.30708,-18.06821 -5.30708,-18.06821 l 54.37661,-140.56912 90.25103,-204.02769 100.70798,114.5785 z"
       id="path5130-0"
       inkscape:connector-curvature="0"
       sodipodi:nodetypes="csccccsccccc" />
    <path
       transform="matrix(-0.91845328,-0.39552948,-0.39552948,0.91845328,228.43388,174.45721)"
       style="fill:#ffb380;fill-rule:evenodd;stroke:#000000;stroke-width:0;stroke-linecap:butt;stroke-linejoin:miter;stroke-miterlimit:4;stroke-dasharray:none;stroke-opacity:1"
       d="m 308,868.3622 43,-19 c 0,0 -47.16514,-54.1875 -63,-86 -26.3628,-52.96332 -51,-170 -51,-170 l 15,128 33,132 z"
       id="path5264-1"
       inkscape:connector-curvature="0"
       sodipodi:nodetypes="ccscccc"
       clip-path="url(#clipPath5300-0)" />
    <path
       transform="matrix(-0.91845328,-0.39552948,-0.39552948,0.91845328,231.39902,172.49997)"
       style="display:inline;fill:#ffb380;fill-rule:evenodd;stroke:#000000;stroke-width:0;stroke-linecap:butt;stroke-linejoin:miter;stroke-miterlimit:4;stroke-dasharray:none;stroke-opacity:1"
       d="m 299.40149,955.01497 15.79238,15.45413 c 0,0 27.79296,16.19313 41.0409,18.64743 20.35545,3.77103 53.3566,-28.61523 53.3566,-28.61523 l -40.77183,84.5234 -107.99862,-38.2155 z"
       id="path5232-9"
       inkscape:connector-curvature="0"
       sodipodi:nodetypes="ccscccc"
       clip-path="url(#clipPath5281-0-6)" />
    <path
       style="fill:none;fill-rule:evenodd;stroke:#000000;stroke-width:10;stroke-linecap:butt;stroke-linejoin:miter;stroke-miterlimit:4;stroke-dasharray:none;stroke-opacity:1"
       d="m -397.9584,842.27657 c 0,0 10.86323,10.87876 13.0601,17.94251 6.78523,21.81652 -1.79133,68.51853 -1.79133,68.51853 5.08525,19.14301 12.51188,56.13843 -3.1803,66.38063 -12.22863,7.20476 -23.44508,-12.75245 -23.44508,-12.75245 -9.67129,-0.76693 -17.05914,9.23135 -26.39544,6.53835 -32.30325,-10.42268 -38.41933,-7.59531 -63.70076,-26.89945 -4.53101,-3.45978 -5.30709,-18.06821 -5.30709,-18.06821 l 54.37664,-140.56917 86.70459,-203.37733 104.25441,113.92818 z"
       id="path5130-6-0"
       inkscape:connector-curvature="0"
       sodipodi:nodetypes="csccccsccccc" />
    <path
       style="fill:#000000;fill-rule:evenodd;stroke:#000000;stroke-width:0;stroke-linecap:butt;stroke-linejoin:miter;stroke-miterlimit:4;stroke-dasharray:none;stroke-opacity:1"
       d="m -421.71492,933.43481 -15.77433,7.63652 3.0304,5.92432 3.03036,5.92442 -0.6044,0.5096 -2.42233,4.73099 -0.97417,-0.41952 -3.57429,-0.192 -0.22757,-2.60014 c 0,0 0.19146,-3.95608 -0.64002,-5.6648 -0.99593,-2.04661 -4.86611,-4.79021 -4.86611,-4.79021 0,0 -9.73557,-0.75094 -14.59824,-1.18616 -2.21807,-0.1985 -6.64908,-0.65001 -6.64908,-0.65001 0,0 1.78743,-0.43935 6.59395,-1.00974 3.32984,-0.39518 14.05839,-2.0296 14.05839,-2.0296 l 23.47233,-7.83274 z"
       id="path5134-7"
       inkscape:connector-curvature="0"
       sodipodi:nodetypes="cccccccccscacsccc" />
    <path
       style="fill:#000000;fill-rule:evenodd;stroke:#000000;stroke-width:0;stroke-linecap:butt;stroke-linejoin:miter;stroke-miterlimit:4;stroke-dasharray:none;stroke-opacity:1"
       d="m -407.36775,988.30074 c 0,0 -2.28686,-10.00017 -3.74653,-15.00101 -3.77315,-12.92672 -10.69699,-41.42124 -10.69699,-41.42124 0,0 1.04516,33.99443 4.79934,47.5313 1.27897,4.61165 1.97765,8.84215 1.97765,8.84215 z"
       id="path5136-8"
       inkscape:connector-curvature="0"
       sodipodi:nodetypes="cscscc" />
  </g>
  <g
     inkscape:groupmode="layer"
     id="layer5"
     inkscape:label="Tshirt">
    <path
       style="fill:#008000;fill-rule:evenodd;stroke:#000000;stroke-width:0;stroke-linecap:butt;stroke-linejoin:miter;stroke-miterlimit:4;stroke-dasharray:none;stroke-opacity:1"
       d="m -405.68016,633.13445 c 0,0 0.71373,-26.04668 6.51762,-36.5081 24.85867,-44.80723 114.77648,-100.8319 114.77648,-100.8319 l 96.73648,52.15443 -0.64022,29.55418 c 0,0 79.30192,98.35339 135.564776,100.83189 45.3034504,1.99571 115.87473,-71.27772 115.87473,-71.27772 l 23.09504,-41.72354 c 0,0 125.420184,-69.98106 192.927914,-45.20051 61.30806,22.50479 129.73088,152.98633 129.73088,152.98633 0,0 -168.83656,66.06228 -164.01394,74.75469 4.82261,8.6924 13.30433,118.35744 -19.24023,156.46324 -59.16069,69.27011 -174.282564,80.94659 -273.269114,76.49321 -89.451606,-4.0244 -208.096776,-2.77172 -261.251966,-81.70862 -30.83868,-45.79629 32.82681,-156.71686 32.82681,-156.71686 z"
       id="path4209"
       inkscape:connector-curvature="0"
       sodipodi:nodetypes="cscccsccscsssscc" />
    <path
       transform="translate(1.2175164,0.57616186)"
       style="fill:#225500;fill-rule:evenodd;stroke:#000000;stroke-width:0;stroke-linecap:butt;stroke-linejoin:miter;stroke-miterlimit:4;stroke-dasharray:none;stroke-opacity:1"
       d="m -408.51522,634.48728 c 0,0 0.71373,-26.04668 6.51762,-36.5081 24.85867,-44.80723 114.77647,-100.8319 114.77647,-100.8319 l 96.73648,52.15443 -0.64022,29.55418 c 0,0 79.30192,98.35339 135.56478,100.83189 45.30345,1.99571 115.87473,-71.27772 115.87473,-71.27772 l 23.09504,-41.72354 c 0,0 125.42018,-69.98106 192.92791,-45.20051 61.30806,22.50479 129.73084,152.98633 129.73084,152.98633 0,0 -168.83652,66.06228 -164.0139,74.75469 4.82261,8.6924 13.30433,118.35744 -19.24023,156.46326 -59.16069,69.27015 -174.28256,80.94665 -273.26911,76.49325 -89.45161,-4.0244 -206.38733,-3.34152 -259.54251,-82.27847 -30.83868,-45.79632 31.11735,-156.95292 31.11735,-156.95292 z"
       id="path4209-4"
       inkscape:connector-curvature="0"
       sodipodi:nodetypes="cscccsccscsssscc"
       clip-path="url(#clipPath4477-2)" />
    <path
       style="fill:#225500;fill-rule:evenodd;stroke:#000000;stroke-width:0;stroke-linecap:butt;stroke-linejoin:miter;stroke-miterlimit:4;stroke-dasharray:none;stroke-opacity:1"
       d="m -1680.5265,656.66263 c 0,0 0.7137,-26.04668 6.5176,-36.5081 24.8587,-44.80723 114.7765,-100.8319 114.7765,-100.8319 l 96.7365,52.15443 -0.6402,29.55418 c 0,0 79.3019,98.35339 135.5647,100.83189 45.3035,1.99571 115.8748,-71.27772 115.8748,-71.27772 l 23.095,-41.72354 c 0,0 125.4202,-69.98106 192.92793,-45.20051 61.30806,22.50479 129.73088,152.98633 129.73088,152.98633 0,0 -168.83651,66.06228 -164.01391,74.75469 4.8226,8.6924 13.3043,118.35744 -19.2403,156.46324 -59.1606,69.27011 -174.2825,80.94658 -273.2691,76.49318 -89.4516,-4.0244 -208.0967,-2.7717 -261.2519,-81.70859 -30.8387,-45.79629 13.4865,-159.94024 13.4865,-159.94024 z"
       id="path4209-43"
       inkscape:connector-curvature="0"
       sodipodi:nodetypes="cscccsccscsssscc"
       clip-path="url(#clipPath4748)"
       transform="translate(1275.2533,-23.072004)" />
    <path
       style="fill:#000000;fill-rule:evenodd;stroke:#000000;stroke-width:1px;stroke-linecap:butt;stroke-linejoin:miter;stroke-opacity:1"
       d="m -204.41233,544.90032 2.47598,2.44676 0.38831,30.59287 c 0,0 83.43746,121.31746 146.619892,126.89132 54.1039196,4.77296 107.147407,-42.16938 143.843281,-83.79324 10.901465,-12.36545 18.937357,-49.54483 18.937357,-49.54483 l 3.22337,-1.61169 c 0,0 -7.83827,40.30128 -19.743187,53.18575 -38.38149,41.53958 -91.9053814,89.48986 -147.066661,84.61369 C -121.78893,701.84179 -203.60649,578.7458 -203.60649,578.7458 Z"
       id="path4669"
       inkscape:connector-curvature="0"
       sodipodi:nodetypes="cccssccsscc" />
    <path
       style="fill:none;fill-rule:evenodd;stroke:#000000;stroke-width:10;stroke-linecap:butt;stroke-linejoin:miter;stroke-miterlimit:4;stroke-dasharray:none;stroke-opacity:1"
       d="m -405.0495,631.256 c 0,0 0.71373,-26.04668 6.51763,-36.5081 24.85867,-44.80724 114.77647,-100.83191 114.77647,-100.83191 l 96.73648,52.15443 -0.64022,29.55418 c 0,0 79.30192,98.35341 135.564775,100.83191 45.30345,1.9957 115.87473,-71.27773 115.87473,-71.27773 l 23.09504,-41.72355 c 0,0 125.420195,-69.98106 192.927925,-45.20051 61.30811,22.50479 129.73091,152.98629 129.73091,152.98629 0,0 -168.83659,66.0623 -164.01397,74.7547 4.82261,8.6924 13.30433,118.35748 -19.24023,156.46328 -59.1607,69.2701 -174.282575,80.9466 -273.269125,76.4932 -89.451605,-4.0244 -208.096775,-2.7717 -261.251965,-81.7086 -30.83867,-45.7963 32.82681,-156.7169 32.82681,-156.7169 z"
       id="path4209-9"
       inkscape:connector-curvature="0"
       sodipodi:nodetypes="cscccsccscsssscc" />
  </g>
  <g
     inkscape:label="Fond Visage"
     inkscape:groupmode="layer"
     id="layer1"
     style="display:inline">
    <path
       style="fill:#ffb380;fill-rule:evenodd;stroke:#000000;stroke-width:0;stroke-linecap:butt;stroke-linejoin:miter;stroke-miterlimit:4;stroke-dasharray:none;stroke-opacity:1"
       d="m -512.31904,136.18271 c -14.37937,131.03565 116.79615,280.15325 235.58108,365.08101 89.91598,64.2873 176.57907,73.79236 278.7604464,71.27772 C 133.86146,569.29694 159.98767,536.06872 202.9898,511.17043 247.40382,485.45466 437.88076,307.67864 439.64814,221.36828 441.20897,145.14467 437.92855,52.953403 382.99193,-9.8496969 267.12043,-142.31307 67.825299,-254.38442 -92.36907,-239.32919 c -198.13357,18.6208 -398.53346,180.348726 -419.94997,375.5119 z"
       id="path3371"
       inkscape:connector-curvature="0"
       sodipodi:nodetypes="ssssssss" />
    <path
       style="display:inline;fill:#ffccaa;fill-rule:evenodd;stroke:#000000;stroke-width:0;stroke-linecap:butt;stroke-linejoin:miter;stroke-miterlimit:4;stroke-dasharray:none;stroke-opacity:1"
       d="m -498.14332,161.79891 c -14.37937,131.03565 116.79615,280.15325 235.58108,365.08101 89.91598,64.2873 176.579068,73.79236 278.760448,71.27772 C 148.03718,594.91314 174.16339,561.68492 217.16552,536.78663 261.57954,511.07086 452.05648,333.29484 453.82386,246.98448 455.38469,170.76087 452.10427,78.569597 397.16765,15.766497 281.29615,-116.69687 82.001018,-228.76822 -78.193352,-213.71299 -276.32692,-195.09219 -476.72681,-33.364263 -498.14332,161.79891 Z"
       id="path3371-1"
       inkscape:connector-curvature="0"
       sodipodi:nodetypes="ssssssss"
       clip-path="url(#clipPath4549)"
       transform="matrix(0.98996287,0,0,0.94324546,4.5578753,17.96835)" />
    <path
       style="fill:#000000;fill-rule:evenodd;stroke:#000000;stroke-width:0.50958472px;stroke-linecap:butt;stroke-linejoin:miter;stroke-opacity:1"
       d="m -10.909181,355.92249 c 0,0 -39.201187,44.71251 -29.904628,67.89278 8.487186,21.16217 52.159235,0 52.159235,0 0,0 -33.848282,7.03987 -40.336475,-9.69896 -7.208646,-18.59753 18.081868,-58.19382 18.081868,-58.19382 z"
       id="path4553"
       inkscape:connector-curvature="0"
       sodipodi:nodetypes="cscsc" />
    <path
       style="display:inline;fill:#ffffff;fill-rule:evenodd;stroke:#000000;stroke-width:0;stroke-linecap:butt;stroke-linejoin:miter;stroke-opacity:1;stroke-miterlimit:4;stroke-dasharray:none"
       d="m 55.569019,313.63291 c 0,0 125.959511,13.46898 183.787671,-7.00014 59.45085,-21.04349 151.76407,-113.40233 151.76407,-113.40233 0,0 -113.11567,-8.84768 -165.68738,8.40018 C 161.06383,222.74914 55.569019,313.63291 55.569019,313.63291 Z"
       id="path4574"
       inkscape:connector-curvature="0"
       sodipodi:nodetypes="cscsc" />
    <path
       style="display:inline;fill:#000000;fill-rule:evenodd;stroke:#000000;stroke-width:1px;stroke-linecap:butt;stroke-linejoin:miter;stroke-opacity:1"
       d="m 28.378119,325.11164 c 0,0 128.950771,-104.57322 206.296231,-128.93516 59.51933,-18.74713 186.95598,-9.67012 186.95598,-9.67012 l 0,11.28181 c 0,0 -125.18118,-11.64192 -183.7326,6.44676 C 160.14611,228.25527 31.601499,334.78177 31.601499,334.78177 Z"
       id="path4555"
       inkscape:connector-curvature="0"
       sodipodi:nodetypes="csccscc" />
    <ellipse
       style="display:inline;opacity:1;fill:#000000;fill-opacity:1;stroke:#000000;stroke-width:0;stroke-miterlimit:4;stroke-dasharray:none;stroke-opacity:1"
       id="path4572"
       cx="195.95189"
       cy="269.3913"
       rx="21.757807"
       ry="37.874702" />
    <path
       style="fill:#000000;fill-rule:evenodd;stroke:#000000;stroke-width:0.83136374px;stroke-linecap:butt;stroke-linejoin:miter;stroke-opacity:1"
       d="m -114.95489,554.49531 c 0,0 57.964284,-29.73548 88.128291,-30.208 30.7073158,-0.48101 88.774555,27.9561 88.774555,27.9561 0,0 -54.7487457,-39.86279 -85.32576,-39.81307 -32.080331,0.0521 -91.577086,42.06497 -91.577086,42.06497 z"
       id="path4648"
       inkscape:connector-curvature="0"
       sodipodi:nodetypes="cscsc" />
    <path
       style="display:inline;fill:none;fill-rule:evenodd;stroke:#000000;stroke-width:10;stroke-linecap:butt;stroke-linejoin:miter;stroke-miterlimit:4;stroke-dasharray:none;stroke-opacity:1"
       d="m -497.36668,150.57552 c -14.3794,131.03563 116.7961,280.15333 235.5811,365.08103 89.9159,64.2873 176.579002,73.7924 278.760402,71.2778 131.838978,-3.2445 157.965188,-36.4728 200.967318,-61.3711 44.41402,-25.7157 234.89096,-203.4918 236.65834,-289.8022 C 456.16131,159.53748 452.88089,67.346215 397.94427,4.543115 282.07277,-127.92026 82.777642,-239.99161 -77.416678,-224.93638 -275.55028,-206.31558 -475.95018,-44.587645 -497.36668,150.57552 Z"
       id="path3371-5"
       inkscape:connector-curvature="0"
       sodipodi:nodetypes="ssssssss" />
  </g>
  <g
     inkscape:groupmode="layer"
     id="layer2"
     inkscape:label="Cheveux"
     style="display:inline">
    <path
       style="display:inline;fill:#ff6600;fill-rule:evenodd;stroke:#000000;stroke-width:0;stroke-linecap:butt;stroke-linejoin:miter;stroke-miterlimit:4;stroke-dasharray:none;stroke-opacity:1"
       d="m -37.800656,-255.01287 c -129.408074,1.05239 -248.709154,59.73187 -349.723234,129.80182 -93.73721,65.022273 -182.09692,152.118423 -224.83605,260.62493 -42.73913,108.50653 -14.60021,396.54133 -14.60021,396.54133 0,0 26.71915,-160.79853 49.15737,-218.06708 22.43822,-57.26855 65.91037,-163.9193 65.91037,-163.9193 l -67.82658,275.17988 c 0,0 63.09503,-79.48383 104.85548,-106.4375 45.47276,-29.34973 138.35709,-68.12686 138.35709,-68.12686 l -203.67336,192.73662 373.65895,-218.06708 c 0,0 -70.94975,45.0409 -96.75004,77.8811 -25.53051,32.49681 -77.14492,114.22561 -77.14492,114.22561 0,0 204.91537,-103.82771 280.563534,-165.07103 79.282,-64.1852 205.562496,-211.354267 205.562496,-211.354267 0,0 57.1291,78.487027 78.2123,121.476057 19.6752,40.11816 43.9842,125.14741 43.9842,125.14741 l 57.3857,-111.62958 54.762,122.01372 22.0637,-67.49694 15.3671,54.51677 c 0,0 29.4624,-46.95308 33.2136,-75.28506 6.2654,-47.3212 2.8538,-101.34529 -19.2342,-147.974087 -45.4444,-95.93443 -128.706,-179.163433 -216.5497,-236.239333 -76.9809,-50.01792 -168.590396,-81.16127 -252.715596,-80.47713 z"
       id="path3353-0"
       inkscape:connector-curvature="0"
       sodipodi:nodetypes="sszczccscccscscscccccssss" />
    <path
       transform="translate(-4.834817,37.030459)"
       style="display:inline;fill:#aa4400;fill-rule:evenodd;stroke:#000000;stroke-width:0;stroke-linecap:butt;stroke-linejoin:miter;stroke-miterlimit:4;stroke-dasharray:none;stroke-opacity:1"
       d="m -32.342933,-293.90107 c -129.408077,1.05239 -248.709157,59.73187 -349.723237,129.80182 -93.73721,65.022269 -182.09693,152.118417 -224.83606,260.624933 -42.73913,108.506527 -14.60021,396.541327 -14.60021,396.541327 0,0 26.71915,-160.79853 49.15737,-218.06708 22.43822,-57.26855 65.91038,-163.9193 65.91038,-163.9193 l -67.82659,275.17988 c 0,0 63.09504,-79.48383 104.85549,-106.4375 45.47276,-29.34973 138.35709,-68.12686 138.35709,-68.12686 l -203.67337,192.73662 373.65896,-218.06708 c 0,0 -70.94975,45.0409 -96.75004,77.8811 -25.53051,32.49681 -77.14492,114.22561 -77.14492,114.22561 0,0 204.91537,-103.82771 280.563513,-165.07103 C 24.887424,149.21617 151.16798,2.0470984 151.16798,2.0470984 c 0,0 57.12908,78.4870356 78.21225,121.4760616 19.67519,40.11816 43.98419,125.14741 43.98419,125.14741 l 57.38578,-111.62958 54.76201,122.01372 22.06364,-67.49694 15.3671,54.51677 c 0,0 29.46239,-46.95308 33.21363,-75.28506 6.26536,-47.3212 2.85384,-101.345286 -19.23424,-147.974086 C 391.47794,-73.119037 308.21637,-156.34804 220.37268,-213.42394 143.39171,-263.44186 51.782278,-294.58521 -32.342933,-293.90107 Z"
       id="path3353"
       inkscape:connector-curvature="0"
       sodipodi:nodetypes="sszczccscccscscscccccssss"
       mask="url(#mask4346-7)" />
    <path
       style="fill:#ff9955;fill-rule:evenodd;stroke:#000000;stroke-width:0;stroke-linecap:butt;stroke-linejoin:miter;stroke-opacity:1;stroke-miterlimit:4;stroke-dasharray:none"
       d="m -343.98089,-140.81708 c 0,0 218.9174,37.67424 328.215314,27.35127 76.159276,-7.19309 221.089496,-61.54037 221.089496,-61.54037 l 54.7025,41.02692 c 0,0 -174.311467,70.952535 -266.6748963,79.774561 C -142.71173,-41.208716 -414.63836,-95.231617 -414.63836,-95.231617 Z"
       id="path4371"
       inkscape:connector-curvature="0"
       sodipodi:nodetypes="csccscc"
       clip-path="url(#clipPath4446)" />
    <path
       style="display:inline;fill:none;fill-rule:evenodd;stroke:#000000;stroke-width:10;stroke-linecap:butt;stroke-linejoin:miter;stroke-miterlimit:4;stroke-dasharray:none;stroke-opacity:1"
       d="m -39.998288,-250.10915 c -129.408102,1.05239 -248.709202,59.73187 -349.723302,129.80182 -93.7372,65.022271 -182.0969,152.118391 -224.836,260.62489 -42.7391,108.5066 -14.6002,396.5414 -14.6002,396.5414 0,0 26.7191,-160.7986 49.1574,-218.0671 22.4382,-57.2686 65.9103,-163.9193 65.9103,-163.9193 l -67.8266,275.1799 c 0,0 63.0951,-79.4839 104.8555,-106.4375 45.4728,-29.3498 138.3571,-68.1269 138.3571,-68.1269 l -203.6733,192.7366 373.6589,-218.067 c 0,0 -70.9497,45.0409 -96.75,77.8811 -25.5306,32.4968 -77.145,114.2256 -77.145,114.2256 0,0 204.9154,-103.8277 280.563602,-165.0711 79.282,-64.1852 205.562488,-211.354199 205.562488,-211.354199 0,0 57.1291,78.486999 78.2123,121.475999 19.6752,40.1182 43.9842,125.1474 43.9842,125.1474 l 57.3857,-111.6295 54.76203,122.0137 22.0637,-67.497 15.3671,54.5168 c 0,0 29.4624,-46.9531 33.2136,-75.2851 6.2654,-47.3212 2.8538,-101.3452 -19.2342,-147.973999 C 383.82263,-29.327119 300.561,-112.55612 212.7173,-169.63202 135.7364,-219.64994 44.126912,-250.79329 -39.998288,-250.10915 Z"
       id="path3353-0-6"
       inkscape:connector-curvature="0"
       sodipodi:nodetypes="sszczccscccscscscccccssss" />
  </g>
</svg>
