<?xml version="1.0" encoding="UTF-8" standalone="no"?>
<!-- Created with Inkscape (http://www.inkscape.org/) -->

<svg
   xmlns:dc="http://purl.org/dc/elements/1.1/"
   xmlns:cc="http://creativecommons.org/ns#"
   xmlns:rdf="http://www.w3.org/1999/02/22-rdf-syntax-ns#"
   xmlns:svg="http://www.w3.org/2000/svg"
   xmlns="http://www.w3.org/2000/svg"
   xmlns:sodipodi="http://sodipodi.sourceforge.net/DTD/sodipodi-0.dtd"
   xmlns:inkscape="http://www.inkscape.org/namespaces/inkscape"
   width="210mm"
   height="297mm"
   viewBox="0 0 744.09448819 1052.3622047"
   id="svg13817"
   version="1.1"
   inkscape:version="0.91 r13725"
   sodipodi:docname="panneaux.svg">
  <defs
     id="defs13819">
    <marker
       inkscape:stockid="Arrow1Lstart"
       orient="auto"
       refY="0.0"
       refX="0.0"
       id="marker30605"
       style="overflow:visible"
       inkscape:isstock="true">
      <path
         id="path30607"
         d="M 0.0,0.0 L 5.0,-5.0 L -12.5,0.0 L 5.0,5.0 L 0.0,0.0 z "
         style="fill-rule:evenodd;stroke:none;stroke-width:1pt;stroke-opacity:0.33993399;fill:#999999;fill-opacity:1"
         transform="scale(0.8) translate(12.5,0)" />
    </marker>
    <marker
       inkscape:stockid="Arrow1Lstart"
       orient="auto"
       refY="0.0"
       refX="0.0"
       id="marker30199"
       style="overflow:visible"
       inkscape:isstock="true">
      <path
         id="path30201"
         d="M 0.0,0.0 L 5.0,-5.0 L -12.5,0.0 L 5.0,5.0 L 0.0,0.0 z "
         style="fill-rule:evenodd;stroke:none;stroke-width:1pt;stroke-opacity:0.33993399;fill:#b3b3b3;fill-opacity:1"
         transform="scale(0.8) translate(12.5,0)" />
    </marker>
    <marker
       inkscape:stockid="Arrow1Lstart"
       orient="auto"
       refY="0.0"
       refX="0.0"
       id="marker29799"
       style="overflow:visible"
       inkscape:isstock="true">
      <path
         id="path29801"
         d="M 0.0,0.0 L 5.0,-5.0 L -12.5,0.0 L 5.0,5.0 L 0.0,0.0 z "
         style="fill-rule:evenodd;stroke:none;stroke-width:1pt;stroke-opacity:1;fill:#808080;fill-opacity:1"
         transform="scale(0.8) translate(12.5,0)" />
    </marker>
    <marker
       inkscape:stockid="Arrow1Lstart"
       orient="auto"
       refY="0.0"
       refX="0.0"
       id="marker29405"
       style="overflow:visible"
       inkscape:isstock="true">
      <path
         id="path29407"
         d="M 0.0,0.0 L 5.0,-5.0 L -12.5,0.0 L 5.0,5.0 L 0.0,0.0 z "
         style="fill-rule:evenodd;stroke:none;stroke-width:1pt;stroke-opacity:0.33993399;fill:#800000;fill-opacity:1"
         transform="scale(0.8) translate(12.5,0)" />
    </marker>
    <marker
       inkscape:stockid="Arrow1Lstart"
       orient="auto"
       refY="0.0"
       refX="0.0"
       id="marker29017"
       style="overflow:visible"
       inkscape:isstock="true">
      <path
         id="path29019"
         d="M 0.0,0.0 L 5.0,-5.0 L -12.5,0.0 L 5.0,5.0 L 0.0,0.0 z "
         style="fill-rule:evenodd;stroke:none;stroke-width:1pt;stroke-opacity:0.33993399;fill:#b3b3b3;fill-opacity:1"
         transform="scale(0.8) translate(12.5,0)" />
    </marker>
    <marker
       inkscape:stockid="Arrow1Lstart"
       orient="auto"
       refY="0.0"
       refX="0.0"
       id="marker28635"
       style="overflow:visible"
       inkscape:isstock="true">
      <path
         id="path28637"
         d="M 0.0,0.0 L 5.0,-5.0 L -12.5,0.0 L 5.0,5.0 L 0.0,0.0 z "
         style="fill-rule:evenodd;stroke:none;stroke-width:1pt;stroke-opacity:1;fill:#808080;fill-opacity:1"
         transform="scale(0.8) translate(12.5,0)" />
    </marker>
    <marker
       inkscape:stockid="Arrow1Lstart"
       orient="auto"
       refY="0.0"
       refX="0.0"
       id="marker28259"
       style="overflow:visible"
       inkscape:isstock="true">
      <path
         id="path28261"
         d="M 0.0,0.0 L 5.0,-5.0 L -12.5,0.0 L 5.0,5.0 L 0.0,0.0 z "
         style="fill-rule:evenodd;stroke:#000000;stroke-width:1pt;stroke-opacity:1;fill:#000000;fill-opacity:1"
         transform="scale(0.8) translate(12.5,0)" />
    </marker>
    <marker
       inkscape:stockid="Arrow1Lstart"
       orient="auto"
       refY="0.0"
       refX="0.0"
       id="marker27889"
       style="overflow:visible"
       inkscape:isstock="true">
      <path
         id="path27891"
         d="M 0.0,0.0 L 5.0,-5.0 L -12.5,0.0 L 5.0,5.0 L 0.0,0.0 z "
         style="fill-rule:evenodd;stroke:none;stroke-width:1pt;stroke-opacity:1;fill:#aa0000;fill-opacity:1"
         transform="scale(0.8) translate(12.5,0)" />
    </marker>
    <marker
       inkscape:stockid="Arrow1Lstart"
       orient="auto"
       refY="0.0"
       refX="0.0"
       id="marker27525"
       style="overflow:visible"
       inkscape:isstock="true">
      <path
         id="path27527"
         d="M 0.0,0.0 L 5.0,-5.0 L -12.5,0.0 L 5.0,5.0 L 0.0,0.0 z "
         style="fill-rule:evenodd;stroke:none;stroke-width:1pt;stroke-opacity:1;fill:#aa0000;fill-opacity:1"
         transform="scale(0.8) translate(12.5,0)" />
    </marker>
    <marker
       inkscape:stockid="Arrow1Lstart"
       orient="auto"
       refY="0.0"
       refX="0.0"
       id="marker27167"
       style="overflow:visible"
       inkscape:isstock="true">
      <path
         id="path27169"
         d="M 0.0,0.0 L 5.0,-5.0 L -12.5,0.0 L 5.0,5.0 L 0.0,0.0 z "
         style="fill-rule:evenodd;stroke:none;stroke-width:1pt;stroke-opacity:1;fill:#000000;fill-opacity:1"
         transform="scale(0.8) translate(12.5,0)" />
    </marker>
    <marker
       inkscape:stockid="Arrow1Lstart"
       orient="auto"
       refY="0.0"
       refX="0.0"
       id="marker26815"
       style="overflow:visible"
       inkscape:isstock="true">
      <path
         id="path26817"
         d="M 0.0,0.0 L 5.0,-5.0 L -12.5,0.0 L 5.0,5.0 L 0.0,0.0 z "
         style="fill-rule:evenodd;stroke:none;stroke-width:1pt;stroke-opacity:1;fill:#808080;fill-opacity:1"
         transform="scale(0.8) translate(12.5,0)" />
    </marker>
    <marker
       inkscape:stockid="Arrow1Lstart"
       orient="auto"
       refY="0.0"
       refX="0.0"
       id="marker26469"
       style="overflow:visible"
       inkscape:isstock="true">
      <path
         id="path26471"
         d="M 0.0,0.0 L 5.0,-5.0 L -12.5,0.0 L 5.0,5.0 L 0.0,0.0 z "
         style="fill-rule:evenodd;stroke:none;stroke-width:1pt;stroke-opacity:0.33993399;fill:#b3b3b3;fill-opacity:1"
         transform="scale(0.8) translate(12.5,0)" />
    </marker>
    <marker
       inkscape:stockid="Arrow1Lstart"
       orient="auto"
       refY="0.0"
       refX="0.0"
       id="marker26129"
       style="overflow:visible"
       inkscape:isstock="true">
      <path
         id="path26131"
         d="M 0.0,0.0 L 5.0,-5.0 L -12.5,0.0 L 5.0,5.0 L 0.0,0.0 z "
         style="fill-rule:evenodd;stroke:none;stroke-width:1pt;stroke-opacity:1;fill:#808080;fill-opacity:1"
         transform="scale(0.8) translate(12.5,0)" />
    </marker>
    <marker
       inkscape:stockid="Arrow1Lstart"
       orient="auto"
       refY="0.0"
       refX="0.0"
       id="marker25795"
       style="overflow:visible"
       inkscape:isstock="true">
      <path
         id="path25797"
         d="M 0.0,0.0 L 5.0,-5.0 L -12.5,0.0 L 5.0,5.0 L 0.0,0.0 z "
         style="fill-rule:evenodd;stroke:none;stroke-width:1pt;stroke-opacity:1;fill:#b3b3b3;fill-opacity:1"
         transform="scale(0.8) translate(12.5,0)" />
    </marker>
    <marker
       inkscape:stockid="Arrow1Lstart"
       orient="auto"
       refY="0.0"
       refX="0.0"
       id="marker25467"
       style="overflow:visible"
       inkscape:isstock="true">
      <path
         id="path25469"
         d="M 0.0,0.0 L 5.0,-5.0 L -12.5,0.0 L 5.0,5.0 L 0.0,0.0 z "
         style="fill-rule:evenodd;stroke:none;stroke-width:1pt;stroke-opacity:1;fill:#cccccc;fill-opacity:1"
         transform="scale(0.8) translate(12.5,0)" />
    </marker>
    <marker
       inkscape:stockid="Arrow1Lstart"
       orient="auto"
       refY="0.0"
       refX="0.0"
       id="marker25457"
       style="overflow:visible"
       inkscape:isstock="true">
      <path
         id="path25459"
         d="M 0.0,0.0 L 5.0,-5.0 L -12.5,0.0 L 5.0,5.0 L 0.0,0.0 z "
         style="fill-rule:evenodd;stroke:#000000;stroke-width:1pt;stroke-opacity:1;fill:#000000;fill-opacity:1"
         transform="scale(0.8) translate(12.5,0)" />
    </marker>
    <marker
       inkscape:isstock="true"
       style="overflow:visible;"
       id="marker25123"
       refX="0.0"
       refY="0.0"
       orient="auto"
       inkscape:stockid="Arrow1Lend">
      <path
         transform="scale(0.8) rotate(180) translate(12.5,0)"
         style="fill-rule:evenodd;stroke:none;stroke-width:1pt;stroke-opacity:1;fill:#000000;fill-opacity:1"
         d="M 0.0,0.0 L 5.0,-5.0 L -12.5,0.0 L 5.0,5.0 L 0.0,0.0 z "
         id="path25125" />
    </marker>
    <marker
       inkscape:isstock="true"
       style="overflow:visible;"
       id="marker24807"
       refX="0.0"
       refY="0.0"
       orient="auto"
       inkscape:stockid="Arrow1Lend">
      <path
         transform="scale(0.8) rotate(180) translate(12.5,0)"
         style="fill-rule:evenodd;stroke:none;stroke-width:1pt;stroke-opacity:0.33993399;fill:#999999;fill-opacity:1"
         d="M 0.0,0.0 L 5.0,-5.0 L -12.5,0.0 L 5.0,5.0 L 0.0,0.0 z "
         id="path24809" />
    </marker>
    <marker
       inkscape:isstock="true"
       style="overflow:visible;"
       id="marker24497"
       refX="0.0"
       refY="0.0"
       orient="auto"
       inkscape:stockid="Arrow1Lend">
      <path
         transform="scale(0.8) rotate(180) translate(12.5,0)"
         style="fill-rule:evenodd;stroke:none;stroke-width:1pt;stroke-opacity:0.33993399;fill:#b3b3b3;fill-opacity:1"
         d="M 0.0,0.0 L 5.0,-5.0 L -12.5,0.0 L 5.0,5.0 L 0.0,0.0 z "
         id="path24499" />
    </marker>
    <marker
       inkscape:isstock="true"
       style="overflow:visible;"
       id="marker24193"
       refX="0.0"
       refY="0.0"
       orient="auto"
       inkscape:stockid="Arrow1Lend">
      <path
         transform="scale(0.8) rotate(180) translate(12.5,0)"
         style="fill-rule:evenodd;stroke:none;stroke-width:1pt;stroke-opacity:1;fill:#808080;fill-opacity:1"
         d="M 0.0,0.0 L 5.0,-5.0 L -12.5,0.0 L 5.0,5.0 L 0.0,0.0 z "
         id="path24195" />
    </marker>
    <marker
       inkscape:isstock="true"
       style="overflow:visible;"
       id="marker23895"
       refX="0.0"
       refY="0.0"
       orient="auto"
       inkscape:stockid="Arrow1Lend">
      <path
         transform="scale(0.8) rotate(180) translate(12.5,0)"
         style="fill-rule:evenodd;stroke:none;stroke-width:1pt;stroke-opacity:0.33993399;fill:#800000;fill-opacity:1"
         d="M 0.0,0.0 L 5.0,-5.0 L -12.5,0.0 L 5.0,5.0 L 0.0,0.0 z "
         id="path23897" />
    </marker>
    <marker
       inkscape:isstock="true"
       style="overflow:visible;"
       id="marker23603"
       refX="0.0"
       refY="0.0"
       orient="auto"
       inkscape:stockid="Arrow1Lend">
      <path
         transform="scale(0.8) rotate(180) translate(12.5,0)"
         style="fill-rule:evenodd;stroke:none;stroke-width:1pt;stroke-opacity:0.33993399;fill:#b3b3b3;fill-opacity:1"
         d="M 0.0,0.0 L 5.0,-5.0 L -12.5,0.0 L 5.0,5.0 L 0.0,0.0 z "
         id="path23605" />
    </marker>
    <marker
       inkscape:isstock="true"
       style="overflow:visible;"
       id="marker23317"
       refX="0.0"
       refY="0.0"
       orient="auto"
       inkscape:stockid="Arrow1Lend">
      <path
         transform="scale(0.8) rotate(180) translate(12.5,0)"
         style="fill-rule:evenodd;stroke:none;stroke-width:1pt;stroke-opacity:1;fill:#808080;fill-opacity:1"
         d="M 0.0,0.0 L 5.0,-5.0 L -12.5,0.0 L 5.0,5.0 L 0.0,0.0 z "
         id="path23319" />
    </marker>
    <marker
       inkscape:isstock="true"
       style="overflow:visible;"
       id="marker23037"
       refX="0.0"
       refY="0.0"
       orient="auto"
       inkscape:stockid="Arrow1Lend">
      <path
         transform="scale(0.8) rotate(180) translate(12.5,0)"
         style="fill-rule:evenodd;stroke:#000000;stroke-width:1pt;stroke-opacity:1;fill:#000000;fill-opacity:1"
         d="M 0.0,0.0 L 5.0,-5.0 L -12.5,0.0 L 5.0,5.0 L 0.0,0.0 z "
         id="path23039" />
    </marker>
    <marker
       inkscape:isstock="true"
       style="overflow:visible;"
       id="marker22763"
       refX="0.0"
       refY="0.0"
       orient="auto"
       inkscape:stockid="Arrow1Lend">
      <path
         transform="scale(0.8) rotate(180) translate(12.5,0)"
         style="fill-rule:evenodd;stroke:none;stroke-width:1pt;stroke-opacity:1;fill:#aa0000;fill-opacity:1"
         d="M 0.0,0.0 L 5.0,-5.0 L -12.5,0.0 L 5.0,5.0 L 0.0,0.0 z "
         id="path22765" />
    </marker>
    <marker
       inkscape:isstock="true"
       style="overflow:visible;"
       id="marker22495"
       refX="0.0"
       refY="0.0"
       orient="auto"
       inkscape:stockid="Arrow1Lend">
      <path
         transform="scale(0.8) rotate(180) translate(12.5,0)"
         style="fill-rule:evenodd;stroke:none;stroke-width:1pt;stroke-opacity:1;fill:#aa0000;fill-opacity:1"
         d="M 0.0,0.0 L 5.0,-5.0 L -12.5,0.0 L 5.0,5.0 L 0.0,0.0 z "
         id="path22497" />
    </marker>
    <marker
       inkscape:isstock="true"
       style="overflow:visible;"
       id="marker22233"
       refX="0.0"
       refY="0.0"
       orient="auto"
       inkscape:stockid="Arrow1Lend">
      <path
         transform="scale(0.8) rotate(180) translate(12.5,0)"
         style="fill-rule:evenodd;stroke:none;stroke-width:1pt;stroke-opacity:1;fill:#000000;fill-opacity:1"
         d="M 0.0,0.0 L 5.0,-5.0 L -12.5,0.0 L 5.0,5.0 L 0.0,0.0 z "
         id="path22235" />
    </marker>
    <marker
       inkscape:isstock="true"
       style="overflow:visible;"
       id="marker21977"
       refX="0.0"
       refY="0.0"
       orient="auto"
       inkscape:stockid="Arrow1Lend">
      <path
         transform="scale(0.8) rotate(180) translate(12.5,0)"
         style="fill-rule:evenodd;stroke:none;stroke-width:1pt;stroke-opacity:1;fill:#808080;fill-opacity:1"
         d="M 0.0,0.0 L 5.0,-5.0 L -12.5,0.0 L 5.0,5.0 L 0.0,0.0 z "
         id="path21979" />
    </marker>
    <marker
       inkscape:isstock="true"
       style="overflow:visible;"
       id="marker21727"
       refX="0.0"
       refY="0.0"
       orient="auto"
       inkscape:stockid="Arrow1Lend">
      <path
         transform="scale(0.8) rotate(180) translate(12.5,0)"
         style="fill-rule:evenodd;stroke:none;stroke-width:1pt;stroke-opacity:0.33993399;fill:#b3b3b3;fill-opacity:1"
         d="M 0.0,0.0 L 5.0,-5.0 L -12.5,0.0 L 5.0,5.0 L 0.0,0.0 z "
         id="path21729" />
    </marker>
    <marker
       inkscape:isstock="true"
       style="overflow:visible;"
       id="marker21483"
       refX="0.0"
       refY="0.0"
       orient="auto"
       inkscape:stockid="Arrow1Lend">
      <path
         transform="scale(0.8) rotate(180) translate(12.5,0)"
         style="fill-rule:evenodd;stroke:none;stroke-width:1pt;stroke-opacity:1;fill:#808080;fill-opacity:1"
         d="M 0.0,0.0 L 5.0,-5.0 L -12.5,0.0 L 5.0,5.0 L 0.0,0.0 z "
         id="path21485" />
    </marker>
    <marker
       inkscape:isstock="true"
       style="overflow:visible;"
       id="marker21245"
       refX="0.0"
       refY="0.0"
       orient="auto"
       inkscape:stockid="Arrow1Lend">
      <path
         transform="scale(0.8) rotate(180) translate(12.5,0)"
         style="fill-rule:evenodd;stroke:none;stroke-width:1pt;stroke-opacity:1;fill:#b3b3b3;fill-opacity:1"
         d="M 0.0,0.0 L 5.0,-5.0 L -12.5,0.0 L 5.0,5.0 L 0.0,0.0 z "
         id="path21247" />
    </marker>
    <marker
       inkscape:isstock="true"
       style="overflow:visible;"
       id="marker21013"
       refX="0.0"
       refY="0.0"
       orient="auto"
       inkscape:stockid="Arrow1Lend">
      <path
         transform="scale(0.8) rotate(180) translate(12.5,0)"
         style="fill-rule:evenodd;stroke:none;stroke-width:1pt;stroke-opacity:1;fill:#cccccc;fill-opacity:1"
         d="M 0.0,0.0 L 5.0,-5.0 L -12.5,0.0 L 5.0,5.0 L 0.0,0.0 z "
         id="path21015" />
    </marker>
    <marker
       inkscape:isstock="true"
       style="overflow:visible;"
       id="marker21003"
       refX="0.0"
       refY="0.0"
       orient="auto"
       inkscape:stockid="Arrow1Lend">
      <path
         transform="scale(0.8) rotate(180) translate(12.5,0)"
         style="fill-rule:evenodd;stroke:#000000;stroke-width:1pt;stroke-opacity:1;fill:#000000;fill-opacity:1"
         d="M 0.0,0.0 L 5.0,-5.0 L -12.5,0.0 L 5.0,5.0 L 0.0,0.0 z "
         id="path21005" />
    </marker>
    <marker
       inkscape:isstock="true"
       style="overflow:visible"
       id="marker20553"
       refX="0.0"
       refY="0.0"
       orient="auto"
       inkscape:stockid="Arrow1Lstart"
       inkscape:collect="always">
      <path
         transform="scale(0.8) translate(12.5,0)"
         style="fill-rule:evenodd;stroke:#000000;stroke-width:1pt;stroke-opacity:1;fill:#000000;fill-opacity:1"
         d="M 0.0,0.0 L 5.0,-5.0 L -12.5,0.0 L 5.0,5.0 L 0.0,0.0 z "
         id="path20555" />
    </marker>
    <marker
       inkscape:isstock="true"
       style="overflow:visible"
       id="marker20339"
       refX="0.0"
       refY="0.0"
       orient="auto"
       inkscape:stockid="Arrow1Lstart">
      <path
         transform="scale(0.8) translate(12.5,0)"
         style="fill-rule:evenodd;stroke:none;stroke-width:1pt;stroke-opacity:0.33993399;fill:#999999;fill-opacity:1"
         d="M 0.0,0.0 L 5.0,-5.0 L -12.5,0.0 L 5.0,5.0 L 0.0,0.0 z "
         id="path20341" />
    </marker>
    <marker
       inkscape:isstock="true"
       style="overflow:visible"
       id="marker20131"
       refX="0.0"
       refY="0.0"
       orient="auto"
       inkscape:stockid="Arrow1Lstart">
      <path
         transform="scale(0.8) translate(12.5,0)"
         style="fill-rule:evenodd;stroke:none;stroke-width:1pt;stroke-opacity:0.33993399;fill:#b3b3b3;fill-opacity:1"
         d="M 0.0,0.0 L 5.0,-5.0 L -12.5,0.0 L 5.0,5.0 L 0.0,0.0 z "
         id="path20133" />
    </marker>
    <marker
       inkscape:isstock="true"
       style="overflow:visible"
       id="marker19929"
       refX="0.0"
       refY="0.0"
       orient="auto"
       inkscape:stockid="Arrow1Lstart">
      <path
         transform="scale(0.8) translate(12.5,0)"
         style="fill-rule:evenodd;stroke:none;stroke-width:1pt;stroke-opacity:1;fill:#808080;fill-opacity:1"
         d="M 0.0,0.0 L 5.0,-5.0 L -12.5,0.0 L 5.0,5.0 L 0.0,0.0 z "
         id="path19931" />
    </marker>
    <marker
       inkscape:isstock="true"
       style="overflow:visible"
       id="marker19733"
       refX="0.0"
       refY="0.0"
       orient="auto"
       inkscape:stockid="Arrow1Lstart">
      <path
         transform="scale(0.8) translate(12.5,0)"
         style="fill-rule:evenodd;stroke:none;stroke-width:1pt;stroke-opacity:0.33993399;fill:#800000;fill-opacity:1"
         d="M 0.0,0.0 L 5.0,-5.0 L -12.5,0.0 L 5.0,5.0 L 0.0,0.0 z "
         id="path19735" />
    </marker>
    <marker
       inkscape:isstock="true"
       style="overflow:visible"
       id="marker19543"
       refX="0.0"
       refY="0.0"
       orient="auto"
       inkscape:stockid="Arrow1Lstart">
      <path
         transform="scale(0.8) translate(12.5,0)"
         style="fill-rule:evenodd;stroke:none;stroke-width:1pt;stroke-opacity:0.33993399;fill:#b3b3b3;fill-opacity:1"
         d="M 0.0,0.0 L 5.0,-5.0 L -12.5,0.0 L 5.0,5.0 L 0.0,0.0 z "
         id="path19545" />
    </marker>
    <marker
       inkscape:isstock="true"
       style="overflow:visible"
       id="marker19359"
       refX="0.0"
       refY="0.0"
       orient="auto"
       inkscape:stockid="Arrow1Lstart">
      <path
         transform="scale(0.8) translate(12.5,0)"
         style="fill-rule:evenodd;stroke:none;stroke-width:1pt;stroke-opacity:1;fill:#808080;fill-opacity:1"
         d="M 0.0,0.0 L 5.0,-5.0 L -12.5,0.0 L 5.0,5.0 L 0.0,0.0 z "
         id="path19361" />
    </marker>
    <marker
       inkscape:isstock="true"
       style="overflow:visible"
       id="marker19181"
       refX="0.0"
       refY="0.0"
       orient="auto"
       inkscape:stockid="Arrow1Lstart">
      <path
         transform="scale(0.8) translate(12.5,0)"
         style="fill-rule:evenodd;stroke:#000000;stroke-width:1pt;stroke-opacity:1;fill:#000000;fill-opacity:1"
         d="M 0.0,0.0 L 5.0,-5.0 L -12.5,0.0 L 5.0,5.0 L 0.0,0.0 z "
         id="path19183" />
    </marker>
    <marker
       inkscape:isstock="true"
       style="overflow:visible"
       id="marker19009"
       refX="0.0"
       refY="0.0"
       orient="auto"
       inkscape:stockid="Arrow1Lstart">
      <path
         transform="scale(0.8) translate(12.5,0)"
         style="fill-rule:evenodd;stroke:none;stroke-width:1pt;stroke-opacity:1;fill:#aa0000;fill-opacity:1"
         d="M 0.0,0.0 L 5.0,-5.0 L -12.5,0.0 L 5.0,5.0 L 0.0,0.0 z "
         id="path19011" />
    </marker>
    <marker
       inkscape:isstock="true"
       style="overflow:visible"
       id="marker18843"
       refX="0.0"
       refY="0.0"
       orient="auto"
       inkscape:stockid="Arrow1Lstart">
      <path
         transform="scale(0.8) translate(12.5,0)"
         style="fill-rule:evenodd;stroke:none;stroke-width:1pt;stroke-opacity:1;fill:#aa0000;fill-opacity:1"
         d="M 0.0,0.0 L 5.0,-5.0 L -12.5,0.0 L 5.0,5.0 L 0.0,0.0 z "
         id="path18845" />
    </marker>
    <marker
       inkscape:isstock="true"
       style="overflow:visible"
       id="marker18683"
       refX="0.0"
       refY="0.0"
       orient="auto"
       inkscape:stockid="Arrow1Lstart">
      <path
         transform="scale(0.8) translate(12.5,0)"
         style="fill-rule:evenodd;stroke:none;stroke-width:1pt;stroke-opacity:1;fill:#000000;fill-opacity:1"
         d="M 0.0,0.0 L 5.0,-5.0 L -12.5,0.0 L 5.0,5.0 L 0.0,0.0 z "
         id="path18685" />
    </marker>
    <marker
       inkscape:isstock="true"
       style="overflow:visible"
       id="marker18529"
       refX="0.0"
       refY="0.0"
       orient="auto"
       inkscape:stockid="Arrow1Lstart">
      <path
         transform="scale(0.8) translate(12.5,0)"
         style="fill-rule:evenodd;stroke:none;stroke-width:1pt;stroke-opacity:1;fill:#808080;fill-opacity:1"
         d="M 0.0,0.0 L 5.0,-5.0 L -12.5,0.0 L 5.0,5.0 L 0.0,0.0 z "
         id="path18531" />
    </marker>
    <marker
       inkscape:isstock="true"
       style="overflow:visible"
       id="marker18381"
       refX="0.0"
       refY="0.0"
       orient="auto"
       inkscape:stockid="Arrow1Lstart">
      <path
         transform="scale(0.8) translate(12.5,0)"
         style="fill-rule:evenodd;stroke:none;stroke-width:1pt;stroke-opacity:0.33993399;fill:#b3b3b3;fill-opacity:1"
         d="M 0.0,0.0 L 5.0,-5.0 L -12.5,0.0 L 5.0,5.0 L 0.0,0.0 z "
         id="path18383" />
    </marker>
    <marker
       inkscape:isstock="true"
       style="overflow:visible"
       id="marker18239"
       refX="0.0"
       refY="0.0"
       orient="auto"
       inkscape:stockid="Arrow1Lstart">
      <path
         transform="scale(0.8) translate(12.5,0)"
         style="fill-rule:evenodd;stroke:none;stroke-width:1pt;stroke-opacity:1;fill:#808080;fill-opacity:1"
         d="M 0.0,0.0 L 5.0,-5.0 L -12.5,0.0 L 5.0,5.0 L 0.0,0.0 z "
         id="path18241" />
    </marker>
    <marker
       inkscape:isstock="true"
       style="overflow:visible"
       id="marker18103"
       refX="0.0"
       refY="0.0"
       orient="auto"
       inkscape:stockid="Arrow1Lstart">
      <path
         transform="scale(0.8) translate(12.5,0)"
         style="fill-rule:evenodd;stroke:none;stroke-width:1pt;stroke-opacity:1;fill:#b3b3b3;fill-opacity:1"
         d="M 0.0,0.0 L 5.0,-5.0 L -12.5,0.0 L 5.0,5.0 L 0.0,0.0 z "
         id="path18105" />
    </marker>
    <marker
       inkscape:isstock="true"
       style="overflow:visible"
       id="marker17973"
       refX="0.0"
       refY="0.0"
       orient="auto"
       inkscape:stockid="Arrow1Lstart">
      <path
         transform="scale(0.8) translate(12.5,0)"
         style="fill-rule:evenodd;stroke:none;stroke-width:1pt;stroke-opacity:1;fill:#cccccc;fill-opacity:1"
         d="M 0.0,0.0 L 5.0,-5.0 L -12.5,0.0 L 5.0,5.0 L 0.0,0.0 z "
         id="path17975" />
    </marker>
    <marker
       inkscape:isstock="true"
       style="overflow:visible"
       id="marker17963"
       refX="0.0"
       refY="0.0"
       orient="auto"
       inkscape:stockid="Arrow1Lstart">
      <path
         transform="scale(0.8) translate(12.5,0)"
         style="fill-rule:evenodd;stroke:#000000;stroke-width:1pt;stroke-opacity:1;fill:#000000;fill-opacity:1"
         d="M 0.0,0.0 L 5.0,-5.0 L -12.5,0.0 L 5.0,5.0 L 0.0,0.0 z "
         id="path17965" />
    </marker>
    <marker
       inkscape:isstock="true"
       style="overflow:visible"
       id="marker17715"
       refX="0.0"
       refY="0.0"
       orient="auto"
       inkscape:stockid="Arrow1Lstart">
      <path
         transform="scale(0.8) translate(12.5,0)"
         style="fill-rule:evenodd;stroke:none;stroke-width:1pt;stroke-opacity:1;fill:#000000;fill-opacity:1"
         d="M 0.0,0.0 L 5.0,-5.0 L -12.5,0.0 L 5.0,5.0 L 0.0,0.0 z "
         id="path17717" />
    </marker>
    <marker
       inkscape:isstock="true"
       style="overflow:visible"
       id="marker17603"
       refX="0.0"
       refY="0.0"
       orient="auto"
       inkscape:stockid="Arrow1Lstart">
      <path
         transform="scale(0.8) translate(12.5,0)"
         style="fill-rule:evenodd;stroke:none;stroke-width:1pt;stroke-opacity:0.33993399;fill:#999999;fill-opacity:1"
         d="M 0.0,0.0 L 5.0,-5.0 L -12.5,0.0 L 5.0,5.0 L 0.0,0.0 z "
         id="path17605" />
    </marker>
    <marker
       inkscape:isstock="true"
       style="overflow:visible"
       id="marker17497"
       refX="0.0"
       refY="0.0"
       orient="auto"
       inkscape:stockid="Arrow1Lstart">
      <path
         transform="scale(0.8) translate(12.5,0)"
         style="fill-rule:evenodd;stroke:none;stroke-width:1pt;stroke-opacity:0.33993399;fill:#b3b3b3;fill-opacity:1"
         d="M 0.0,0.0 L 5.0,-5.0 L -12.5,0.0 L 5.0,5.0 L 0.0,0.0 z "
         id="path17499" />
    </marker>
    <marker
       inkscape:isstock="true"
       style="overflow:visible"
       id="marker17397"
       refX="0.0"
       refY="0.0"
       orient="auto"
       inkscape:stockid="Arrow1Lstart">
      <path
         transform="scale(0.8) translate(12.5,0)"
         style="fill-rule:evenodd;stroke:none;stroke-width:1pt;stroke-opacity:1;fill:#808080;fill-opacity:1"
         d="M 0.0,0.0 L 5.0,-5.0 L -12.5,0.0 L 5.0,5.0 L 0.0,0.0 z "
         id="path17399" />
    </marker>
    <marker
       inkscape:isstock="true"
       style="overflow:visible"
       id="marker17303"
       refX="0.0"
       refY="0.0"
       orient="auto"
       inkscape:stockid="Arrow1Lstart">
      <path
         transform="scale(0.8) translate(12.5,0)"
         style="fill-rule:evenodd;stroke:none;stroke-width:1pt;stroke-opacity:0.33993399;fill:#800000;fill-opacity:1"
         d="M 0.0,0.0 L 5.0,-5.0 L -12.5,0.0 L 5.0,5.0 L 0.0,0.0 z "
         id="path17305" />
    </marker>
    <marker
       inkscape:isstock="true"
       style="overflow:visible"
       id="marker17215"
       refX="0.0"
       refY="0.0"
       orient="auto"
       inkscape:stockid="Arrow1Lstart">
      <path
         transform="scale(0.8) translate(12.5,0)"
         style="fill-rule:evenodd;stroke:none;stroke-width:1pt;stroke-opacity:0.33993399;fill:#b3b3b3;fill-opacity:1"
         d="M 0.0,0.0 L 5.0,-5.0 L -12.5,0.0 L 5.0,5.0 L 0.0,0.0 z "
         id="path17217" />
    </marker>
    <marker
       inkscape:isstock="true"
       style="overflow:visible"
       id="marker17133"
       refX="0.0"
       refY="0.0"
       orient="auto"
       inkscape:stockid="Arrow1Lstart">
      <path
         transform="scale(0.8) translate(12.5,0)"
         style="fill-rule:evenodd;stroke:none;stroke-width:1pt;stroke-opacity:1;fill:#808080;fill-opacity:1"
         d="M 0.0,0.0 L 5.0,-5.0 L -12.5,0.0 L 5.0,5.0 L 0.0,0.0 z "
         id="path17135" />
    </marker>
    <marker
       inkscape:isstock="true"
       style="overflow:visible"
       id="marker17057"
       refX="0.0"
       refY="0.0"
       orient="auto"
       inkscape:stockid="Arrow1Lstart">
      <path
         transform="scale(0.8) translate(12.5,0)"
         style="fill-rule:evenodd;stroke:#000000;stroke-width:1pt;stroke-opacity:1;fill:#000000;fill-opacity:1"
         d="M 0.0,0.0 L 5.0,-5.0 L -12.5,0.0 L 5.0,5.0 L 0.0,0.0 z "
         id="path17059" />
    </marker>
    <marker
       inkscape:isstock="true"
       style="overflow:visible"
       id="marker16987"
       refX="0.0"
       refY="0.0"
       orient="auto"
       inkscape:stockid="Arrow1Lstart">
      <path
         transform="scale(0.8) translate(12.5,0)"
         style="fill-rule:evenodd;stroke:none;stroke-width:1pt;stroke-opacity:1;fill:#aa0000;fill-opacity:1"
         d="M 0.0,0.0 L 5.0,-5.0 L -12.5,0.0 L 5.0,5.0 L 0.0,0.0 z "
         id="path16989" />
    </marker>
    <marker
       inkscape:isstock="true"
       style="overflow:visible"
       id="marker16923"
       refX="0.0"
       refY="0.0"
       orient="auto"
       inkscape:stockid="Arrow1Lstart">
      <path
         transform="scale(0.8) translate(12.5,0)"
         style="fill-rule:evenodd;stroke:none;stroke-width:1pt;stroke-opacity:1;fill:#aa0000;fill-opacity:1"
         d="M 0.0,0.0 L 5.0,-5.0 L -12.5,0.0 L 5.0,5.0 L 0.0,0.0 z "
         id="path16925" />
    </marker>
    <marker
       inkscape:isstock="true"
       style="overflow:visible"
       id="marker16865"
       refX="0.0"
       refY="0.0"
       orient="auto"
       inkscape:stockid="Arrow1Lstart">
      <path
         transform="scale(0.8) translate(12.5,0)"
         style="fill-rule:evenodd;stroke:none;stroke-width:1pt;stroke-opacity:1;fill:#000000;fill-opacity:1"
         d="M 0.0,0.0 L 5.0,-5.0 L -12.5,0.0 L 5.0,5.0 L 0.0,0.0 z "
         id="path16867" />
    </marker>
    <marker
       inkscape:isstock="true"
       style="overflow:visible"
       id="marker16813"
       refX="0.0"
       refY="0.0"
       orient="auto"
       inkscape:stockid="Arrow1Lstart">
      <path
         transform="scale(0.8) translate(12.5,0)"
         style="fill-rule:evenodd;stroke:none;stroke-width:1pt;stroke-opacity:1;fill:#808080;fill-opacity:1"
         d="M 0.0,0.0 L 5.0,-5.0 L -12.5,0.0 L 5.0,5.0 L 0.0,0.0 z "
         id="path16815" />
    </marker>
    <marker
       inkscape:isstock="true"
       style="overflow:visible"
       id="marker16767"
       refX="0.0"
       refY="0.0"
       orient="auto"
       inkscape:stockid="Arrow1Lstart">
      <path
         transform="scale(0.8) translate(12.5,0)"
         style="fill-rule:evenodd;stroke:none;stroke-width:1pt;stroke-opacity:0.33993399;fill:#b3b3b3;fill-opacity:1"
         d="M 0.0,0.0 L 5.0,-5.0 L -12.5,0.0 L 5.0,5.0 L 0.0,0.0 z "
         id="path16769" />
    </marker>
    <marker
       inkscape:isstock="true"
       style="overflow:visible"
       id="marker16727"
       refX="0.0"
       refY="0.0"
       orient="auto"
       inkscape:stockid="Arrow1Lstart">
      <path
         transform="scale(0.8) translate(12.5,0)"
         style="fill-rule:evenodd;stroke:none;stroke-width:1pt;stroke-opacity:1;fill:#808080;fill-opacity:1"
         d="M 0.0,0.0 L 5.0,-5.0 L -12.5,0.0 L 5.0,5.0 L 0.0,0.0 z "
         id="path16729" />
    </marker>
    <marker
       inkscape:isstock="true"
       style="overflow:visible"
       id="marker16693"
       refX="0.0"
       refY="0.0"
       orient="auto"
       inkscape:stockid="Arrow1Lstart">
      <path
         transform="scale(0.8) translate(12.5,0)"
         style="fill-rule:evenodd;stroke:none;stroke-width:1pt;stroke-opacity:1;fill:#b3b3b3;fill-opacity:1"
         d="M 0.0,0.0 L 5.0,-5.0 L -12.5,0.0 L 5.0,5.0 L 0.0,0.0 z "
         id="path16695" />
    </marker>
    <marker
       inkscape:isstock="true"
       style="overflow:visible"
       id="marker16665"
       refX="0.0"
       refY="0.0"
       orient="auto"
       inkscape:stockid="Arrow1Lstart">
      <path
         transform="scale(0.8) translate(12.5,0)"
         style="fill-rule:evenodd;stroke:none;stroke-width:1pt;stroke-opacity:1;fill:#cccccc;fill-opacity:1"
         d="M 0.0,0.0 L 5.0,-5.0 L -12.5,0.0 L 5.0,5.0 L 0.0,0.0 z "
         id="path16667" />
    </marker>
    <marker
       inkscape:isstock="true"
       style="overflow:visible"
       id="marker16643"
       refX="0.0"
       refY="0.0"
       orient="auto"
       inkscape:stockid="Arrow1Lstart">
      <path
         transform="scale(0.8) translate(12.5,0)"
         style="fill-rule:evenodd;stroke:#000000;stroke-width:1pt;stroke-opacity:1;fill:#000000;fill-opacity:1"
         d="M 0.0,0.0 L 5.0,-5.0 L -12.5,0.0 L 5.0,5.0 L 0.0,0.0 z "
         id="path16645" />
    </marker>
  </defs>
  <sodipodi:namedview
     id="base"
     pagecolor="#ffffff"
     bordercolor="#666666"
     borderopacity="1.0"
     inkscape:pageopacity="0.0"
     inkscape:pageshadow="2"
     inkscape:zoom="0.89797574"
     inkscape:cx="541.37387"
     inkscape:cy="403.53614"
     inkscape:document-units="px"
     inkscape:current-layer="layer1"
     showgrid="false"
     inkscape:window-width="1366"
     inkscape:window-height="744"
     inkscape:window-x="0"
     inkscape:window-y="24"
     inkscape:window-maximized="1" />
  <metadata
     id="metadata13822">
    <rdf:RDF>
      <cc:Work
         rdf:about="">
        <dc:format>image/svg+xml</dc:format>
        <dc:type
           rdf:resource="http://purl.org/dc/dcmitype/StillImage" />
        <dc:title />
      </cc:Work>
    </rdf:RDF>
  </metadata>
  <g
     inkscape:label="Calque 1"
     inkscape:groupmode="layer"
     id="layer1">
    <ellipse
       style="opacity:1;fill:#000000;fill-opacity:1;stroke:none;stroke-width:5;stroke-miterlimit:4;stroke-dasharray:none;stroke-opacity:1;marker-start:"
       id="path16296"
       cx="314.51947"
       cy="747.42322"
       rx="15.52972"
       ry="11.000218"
       inkscape:export-xdpi="90"
       inkscape:export-ydpi="90" />
    <path
       transform="matrix(0.99826184,0.05893465,-0.05893465,0.99826184,0,0)"
       style="opacity:1;fill:#999999;fill-opacity:1;stroke:none;stroke-width:3;stroke-miterlimit:4;stroke-dasharray:none;stroke-opacity:0.33993399;marker-start:"
       d="m 347.98575,337.35062 17.95019,0 1.92679,388.54029 -18.02476,-3.20401 z"
       id="rect14384"
       inkscape:connector-curvature="0"
       sodipodi:nodetypes="ccccc"
       inkscape:export-xdpi="90"
       inkscape:export-ydpi="90" />
    <ellipse
       style="opacity:1;fill:#b3b3b3;fill-opacity:1;stroke:none;stroke-width:3;stroke-miterlimit:4;stroke-dasharray:none;stroke-opacity:0.33993399;marker-start:"
       id="path14365-1"
       cx="356.96085"
       cy="459.57748"
       rx="102.80563"
       ry="77.363426"
       transform="matrix(0.99826184,0.05893465,-0.05893465,0.99826184,0,0)"
       inkscape:export-xdpi="90"
       inkscape:export-ydpi="90" />
    <path
       style="fill:#808080;fill-rule:evenodd;stroke:none;stroke-width:1px;stroke-linecap:butt;stroke-linejoin:miter;stroke-opacity:1;marker-start:"
       d="m 335.05028,560.50724 c 0,0 -6.92318,8.90067 -10.47782,9.03062 -4.19457,0.15333 -11.46291,-9.78531 -11.46291,-9.78531 0,0 8.37661,2.11215 12.62981,2.14991 3.08458,0.0273 9.31092,-1.39522 9.31092,-1.39522 z"
       id="path14428-2"
       inkscape:connector-curvature="0"
       sodipodi:nodetypes="cscsc"
       inkscape:export-xdpi="90"
       inkscape:export-ydpi="90" />
    <ellipse
       style="opacity:1;fill:#800000;fill-opacity:1;stroke:none;stroke-width:3;stroke-miterlimit:4;stroke-dasharray:none;stroke-opacity:0.33993399;marker-start:"
       id="path14365"
       cx="356.96085"
       cy="463.94116"
       rx="102.80563"
       ry="77.363426"
       transform="matrix(0.99826184,0.05893465,-0.05893465,0.99826184,0,0)"
       inkscape:export-xdpi="90"
       inkscape:export-ydpi="90" />
    <ellipse
       style="opacity:1;fill:#b3b3b3;fill-opacity:1;stroke:none;stroke-width:3;stroke-miterlimit:4;stroke-dasharray:none;stroke-opacity:0.33993399;marker-start:"
       id="path14386"
       cx="356.96085"
       cy="339.15549"
       rx="9.2310553"
       ry="7.0228362"
       transform="matrix(0.99826184,0.05893465,-0.05893465,0.99826184,0,0)"
       inkscape:export-xdpi="90"
       inkscape:export-ydpi="90" />
    <path
       style="fill:#808080;fill-rule:evenodd;stroke:none;stroke-width:1px;stroke-linecap:butt;stroke-linejoin:miter;stroke-opacity:1;marker-start:"
       d="m 316.79503,403.27886 c 0,0 11.83741,-5.83578 18.18547,-5.67472 7.49085,0.19005 21.0921,7.77587 21.0921,7.77587 0,0 -15.10655,-2.09928 -22.71387,-2.4294 -5.51713,-0.23937 -16.5637,0.32825 -16.5637,0.32825 z"
       id="path14428"
       inkscape:connector-curvature="0"
       sodipodi:nodetypes="cscsc"
       inkscape:export-xdpi="90"
       inkscape:export-ydpi="90" />
    <path
       style="opacity:1;fill:none;fill-opacity:1;stroke:#000000;stroke-width:4.9;stroke-miterlimit:4;stroke-dasharray:none;stroke-opacity:1;marker-start:"
       d="m 337.80989,352.43034 c -4.17142,-0.24172 -7.94451,1.67854 -9.19891,4.68165 l -0.0666,-0.004 -0.0115,0.19567 c -0.19793,0.51695 -0.31577,1.05161 -0.35118,1.59327 -0.0282,0.54098 0.026,1.08467 0.16146,1.62023 l -2.34688,39.75246 c -53.07062,0.47107 -95.53782,31.40787 -97.93525,71.34455 -0.0869,1.62918 -0.10538,3.26178 -0.0553,4.89534 -0.18024,1.14711 -0.32613,2.298 -0.43754,3.4518 -2.33483,39.94932 36.20059,75.68184 88.85885,82.39566 l -9.84799,181.73227 17.91951,1.05792 9.84642,-181.70574 c 53.29757,-0.26088 96.07994,-31.26352 98.47728,-71.36247 0.0887,-1.6335 0.10848,-3.27046 0.0594,-4.90843 0.17861,-1.14278 0.32312,-2.28931 0.43343,-3.43871 2.33517,-40.10135 -36.50161,-75.92062 -89.39657,-82.45071 l 2.34433,-39.70936 c 0.19602,-0.515 0.31261,-1.04747 0.34747,-1.58684 0.0292,-0.54081 -0.0238,-1.08443 -0.15815,-1.62001 l 0.0118,-0.19898 -0.0598,-0.004 c -0.89312,-3.13263 -4.41933,-5.48454 -8.59414,-5.7321 z"
       id="rect14384-0"
       inkscape:connector-curvature="0"
       sodipodi:nodetypes="ccccccccccccccccccccccccc"
       inkscape:export-xdpi="90"
       inkscape:export-ydpi="90" />
    <rect
       style="opacity:1;fill:#f2f2f2;fill-opacity:1;stroke:none;stroke-width:3;stroke-miterlimit:4;stroke-dasharray:none;stroke-opacity:0.33993399"
       id="rect14388"
       width="164.81537"
       height="36.068081"
       x="274.55316"
       y="452.87302"
       transform="matrix(0.99826184,0.05893465,-0.05893465,0.99826184,0,0)"
       inkscape:export-xdpi="90"
       inkscape:export-ydpi="90" />
    <path
       style="fill:#aa0000;fill-rule:evenodd;stroke:none;stroke-width:1px;stroke-linecap:butt;stroke-linejoin:miter;stroke-opacity:1;marker-start:"
       d="m 248.32152,511.25991 c 0,0 4.40632,17.17867 10.74907,22.62731 19.34055,16.61422 73.30474,22.13133 73.30474,22.13133 0,0 -48.12619,-12.63526 -69.42385,-25.56766 -5.9227,-3.59641 -14.62996,-19.19098 -14.62996,-19.19098 z"
       id="path14390"
       inkscape:connector-curvature="0"
       sodipodi:nodetypes="cscsc"
       inkscape:export-xdpi="90"
       inkscape:export-ydpi="90" />
    <path
       style="fill:#aa0000;fill-rule:evenodd;stroke:none;stroke-width:1px;stroke-linecap:butt;stroke-linejoin:miter;stroke-opacity:1;marker-start:"
       d="m 290.05709,427.32392 c 0,0 52.89184,-12.35391 76.76409,-5.41713 23.09234,6.71015 47.7924,40.52331 47.7924,40.52331 0,0 -30.00903,-28.70425 -49.87583,-34.88632 -23.61405,-7.34812 -74.68066,-0.21986 -74.68066,-0.21986 z"
       id="path14392"
       inkscape:connector-curvature="0"
       sodipodi:nodetypes="cscsc"
       inkscape:export-xdpi="90"
       inkscape:export-ydpi="90" />
    <ellipse
       style="opacity:1;fill:#000000;fill-opacity:1;stroke:none;stroke-width:5;stroke-miterlimit:4;stroke-dasharray:none;stroke-opacity:1;marker-start:"
       id="path16296-3"
       cx="610.83569"
       cy="719.12024"
       rx="15.52972"
       ry="11.000218"
       inkscape:export-xdpi="90"
       inkscape:export-ydpi="90" />
    <rect
       style="opacity:1;fill:#999999;fill-opacity:1;stroke:none;stroke-width:3;stroke-miterlimit:4;stroke-dasharray:none;stroke-opacity:0.33993399"
       id="rect14384-1"
       width="17.95019"
       height="361.72626"
       x="603.13757"
       y="355.46323"
       inkscape:export-xdpi="90"
       inkscape:export-ydpi="90" />
    <rect
       style="opacity:1;fill:#b3b3b3;fill-opacity:1;stroke:none;stroke-width:4.9000001;stroke-miterlimit:4;stroke-dasharray:none;stroke-opacity:1"
       id="rect14500"
       width="23.904114"
       height="18.254051"
       x="599.34131"
       y="407.82037"
       inkscape:export-xdpi="90"
       inkscape:export-ydpi="90" />
    <path
       style="fill:#808080;fill-rule:evenodd;stroke:none;stroke-width:1px;stroke-linecap:butt;stroke-linejoin:miter;stroke-opacity:1;marker-start:"
       d="m 606.1866,405.32472 c 0,0 6.56707,6.76741 6.80466,10.51863 0.28037,4.42654 -6.43703,12.73243 -6.43703,12.73243 0,0 1.14722,-8.99048 0.99934,-13.49092 -0.1073,-3.2639 -1.36697,-9.76014 -1.36697,-9.76014 z"
       id="path14428-7"
       inkscape:connector-curvature="0"
       sodipodi:nodetypes="cscsc"
       inkscape:transform-center-x="-7.3885443"
       inkscape:transform-center-y="4.1107984"
       inkscape:export-xdpi="90"
       inkscape:export-ydpi="90" />
    <rect
       style="opacity:1;fill:#b3b3b3;fill-opacity:1;stroke:none;stroke-width:4.9000001;stroke-miterlimit:4;stroke-dasharray:none;stroke-opacity:1"
       id="rect14500-9"
       width="23.904114"
       height="18.254051"
       x="599.12402"
       y="532.99103"
       inkscape:export-xdpi="90"
       inkscape:export-ydpi="90" />
    <ellipse
       style="opacity:1;fill:#b3b3b3;fill-opacity:1;stroke:none;stroke-width:3;stroke-miterlimit:4;stroke-dasharray:none;stroke-opacity:0.33993399;marker-start:"
       id="path14386-5"
       cx="612.11267"
       cy="357.2681"
       rx="9.2310553"
       ry="7.0228362"
       inkscape:export-xdpi="90"
       inkscape:export-ydpi="90" />
    <path
       style="fill:#808080;fill-rule:evenodd;stroke:none;stroke-width:1px;stroke-linecap:butt;stroke-linejoin:miter;stroke-opacity:1;marker-start:"
       d="m 605.93099,530.4925 c 0,0 6.56707,6.76741 6.80466,10.51863 0.28037,4.42654 -6.43703,12.73243 -6.43703,12.73243 0,0 1.14722,-8.99048 0.99934,-13.49092 -0.1073,-3.2639 -1.36697,-9.76014 -1.36697,-9.76014 z"
       id="path14428-7-8"
       inkscape:connector-curvature="0"
       sodipodi:nodetypes="cscsc"
       inkscape:transform-center-x="-7.3885443"
       inkscape:transform-center-y="4.1107984"
       inkscape:export-xdpi="90"
       inkscape:export-ydpi="90" />
    <path
       style="opacity:1;fill:#b3b3b3;fill-opacity:1;stroke:none;stroke-width:4.9000001;stroke-miterlimit:4;stroke-dasharray:none;stroke-opacity:1;marker-start:"
       d="m 591.18066,396.95486 8.25778,0 8.25779,0 1.73848,84.31633 -1.73848,84.31633 -8.25779,0 -8.25778,0 1.73848,-85.62019 z"
       id="rect14497"
       inkscape:connector-curvature="0"
       sodipodi:nodetypes="ccccccccc"
       inkscape:export-xdpi="90"
       inkscape:export-ydpi="90" />
    <path
       style="opacity:1;fill:#cccccc;fill-opacity:1;stroke:none;stroke-width:4.9000001;stroke-miterlimit:4;stroke-dasharray:none;stroke-opacity:1;marker-start:"
       d="m 591.30085,402.60492 7.96286,0 7.96286,0 1.6764,77.25375 -1.6764,77.25376 -7.96286,0 -7.96286,0 1.6764,-78.44839 z"
       id="rect14497-0"
       inkscape:connector-curvature="0"
       sodipodi:nodetypes="ccccccccc"
       inkscape:export-xdpi="90"
       inkscape:export-ydpi="90" />
    <path
       style="opacity:1;fill:none;fill-opacity:1;stroke:#000000;stroke-width:5;stroke-miterlimit:4;stroke-dasharray:none;stroke-opacity:1;marker-start:"
       d="m 610.59778,349.43273 a 9.2310553,7.0228362 0 0 0 -8.91015,5.21875 l -0.0664,0 0,0.19922 a 9.2310553,7.0228362 0 0 0 -0.25586,1.60547 9.2310553,7.0228362 0 0 0 0.25586,1.60156 l 0,38.08399 -3.69922,0 -8.25781,0 1.74024,83.01367 -0.56446,27.79492 -1.05469,49.34961 0.0508,0 -0.17188,8.47461 8.25781,0 3.69922,0 0,151.60351 17.95117,0 0,-165.94531 1.93946,0 0,-18.25391 -1.93946,0 0,-106.91601 2.15821,0 0,-18.25391 -2.15821,0 0,-48.94336 a 9.2310553,7.0228362 0 0 0 0.25586,-1.60937 9.2310553,7.0228362 0 0 0 -0.25586,-1.60547 l 0,-0.19922 -0.0586,0 a 9.2310553,7.0228362 0 0 0 -8.91602,-5.21875 z"
       id="rect14384-1-3"
       inkscape:connector-curvature="0"
       inkscape:export-xdpi="90"
       inkscape:export-ydpi="90" />
    <path
       style="opacity:1;fill:none;fill-opacity:1;stroke:#000000;stroke-width:4.9000001;stroke-miterlimit:4;stroke-dasharray:none;stroke-opacity:1;marker-start:"
       d="m 589.41429,395.71096 8.25778,0 8.25779,0 1.73848,84.31633 -1.73848,84.31633 -8.25779,0 -8.25778,0 1.73848,-85.62019 z"
       id="rect14497-1"
       inkscape:connector-curvature="0"
       sodipodi:nodetypes="ccccccccc"
       inkscape:export-xdpi="90"
       inkscape:export-ydpi="90" />
    <ellipse
       style="opacity:1;fill:none;fill-opacity:1;stroke:#000000;stroke-width:3;stroke-miterlimit:4;stroke-dasharray:none;stroke-opacity:1;marker-start:"
       id="path14365-3"
       cx="359.17957"
       cy="464.17862"
       rx="102.80563"
       ry="77.363426"
       transform="matrix(0.99826184,0.05893465,-0.05893465,0.99826184,0,0)"
       inkscape:export-xdpi="90"
       inkscape:export-ydpi="90" />
  </g>
</svg>
