<?xml version="1.0" encoding="UTF-8" standalone="no"?>
<!-- Created with Inkscape (http://www.inkscape.org/) -->

<svg
   xmlns:dc="http://purl.org/dc/elements/1.1/"
   xmlns:cc="http://creativecommons.org/ns#"
   xmlns:rdf="http://www.w3.org/1999/02/22-rdf-syntax-ns#"
   xmlns:svg="http://www.w3.org/2000/svg"
   xmlns="http://www.w3.org/2000/svg"
   xmlns:sodipodi="http://sodipodi.sourceforge.net/DTD/sodipodi-0.dtd"
   xmlns:inkscape="http://www.inkscape.org/namespaces/inkscape"
   width="210mm"
   height="297mm"
   viewBox="0 0 744.09448819 1052.3622047"
   id="svg15161"
   version="1.1"
   inkscape:version="0.91 r13725"
   sodipodi:docname="Route.svg">
  <defs
     id="defs15163" />
  <sodipodi:namedview
     id="base"
     pagecolor="#ffffff"
     bordercolor="#666666"
     borderopacity="1.0"
     inkscape:pageopacity="0.0"
     inkscape:pageshadow="2"
     inkscape:zoom="1.3748271"
     inkscape:cx="352.71308"
     inkscape:cy="888.85853"
     inkscape:document-units="px"
     inkscape:current-layer="layer12"
     showgrid="false"
     inkscape:window-width="1366"
     inkscape:window-height="744"
     inkscape:window-x="0"
     inkscape:window-y="24"
     inkscape:window-maximized="1"
     showguides="false" />
  <metadata
     id="metadata15166">
    <rdf:RDF>
      <cc:Work
         rdf:about="">
        <dc:format>image/svg+xml</dc:format>
        <dc:type
           rdf:resource="http://purl.org/dc/dcmitype/StillImage" />
        <dc:title />
      </cc:Work>
    </rdf:RDF>
  </metadata>
  <g
     inkscape:groupmode="layer"
     id="layer1"
     inkscape:label="Calque 4" />
  <g
     inkscape:groupmode="layer"
     id="layer11"
     inkscape:label="Calque 2"
     style="display:inline;opacity:0.97000002">
    <rect
       style="opacity:1;fill:#333333;fill-opacity:1;stroke:none;stroke-width:10;stroke-miterlimit:4;stroke-dasharray:none;stroke-opacity:1"
       id="rect15725"
       width="746.3573"
       height="104"
       x="-1.6037601"
       y="-0.6808033"
       inkscape:export-filename="/home/dakayl/GDP8_redemption/Content/Images/final/route.png"
       inkscape:export-xdpi="90"
       inkscape:export-ydpi="90" />
    <rect
       style="display:inline;opacity:1;fill:#4d4d4d;fill-opacity:1;stroke:none;stroke-width:10;stroke-miterlimit:4;stroke-dasharray:none;stroke-opacity:1"
       id="rect15725-1"
       width="745.66907"
       height="78.956932"
       x="-1.5412601"
       y="11.532272"
       inkscape:export-filename="/home/dakayl/GDP8_redemption/Content/Images/final/route.png"
       inkscape:export-xdpi="90"
       inkscape:export-ydpi="90" />
  </g>
  <g
     inkscape:groupmode="layer"
     id="layer12"
     inkscape:label="Calque 3"
     style="display:inline">
    <rect
       style="display:inline;opacity:1;fill:#f9f9f9;fill-opacity:1;stroke:none;stroke-width:10;stroke-miterlimit:4;stroke-dasharray:none;stroke-opacity:1"
       id="rect15742-5"
       width="746.54858"
       height="8.6199684"
       x="-2.60376"
       y="143.23923"
       inkscape:export-filename="/home/dakayl/GDP8_redemption/Content/Images/final/route.png"
       inkscape:export-xdpi="90"
       inkscape:export-ydpi="90" />
    <rect
       style="display:inline;opacity:1;fill:#f9f9f9;fill-opacity:1;stroke:none;stroke-width:10;stroke-miterlimit:4;stroke-dasharray:none;stroke-opacity:1"
       id="rect15742-9"
       width="23.397057"
       height="8.6199684"
       x="35.694149"
       y="117.0092"
       inkscape:export-filename="/home/dakayl/GDP8_redemption/Content/Images/final/route.png"
       inkscape:export-xdpi="90"
       inkscape:export-ydpi="90" />
    <rect
       style="display:inline;opacity:1;fill:#f9f9f9;fill-opacity:1;stroke:none;stroke-width:10;stroke-miterlimit:4;stroke-dasharray:none;stroke-opacity:1"
       id="rect15742-2"
       width="23.397057"
       height="8.6199684"
       x="68.1045"
       y="117.0092"
       inkscape:export-filename="/home/dakayl/GDP8_redemption/Content/Images/final/route.png"
       inkscape:export-xdpi="90"
       inkscape:export-ydpi="90" />
    <rect
       style="display:inline;opacity:1;fill:#f9f9f9;fill-opacity:1;stroke:none;stroke-width:10;stroke-miterlimit:4;stroke-dasharray:none;stroke-opacity:1"
       id="rect15742-4"
       width="23.397057"
       height="8.6199684"
       x="100.51485"
       y="117.0092"
       inkscape:export-filename="/home/dakayl/GDP8_redemption/Content/Images/final/route.png"
       inkscape:export-xdpi="90"
       inkscape:export-ydpi="90" />
    <rect
       style="display:inline;opacity:1;fill:#f9f9f9;fill-opacity:1;stroke:none;stroke-width:10;stroke-miterlimit:4;stroke-dasharray:none;stroke-opacity:1"
       id="rect15742-9-7"
       width="23.397057"
       height="8.6199684"
       x="132.9252"
       y="117.0092"
       inkscape:export-filename="/home/dakayl/GDP8_redemption/Content/Images/final/route.png"
       inkscape:export-xdpi="90"
       inkscape:export-ydpi="90" />
    <rect
       style="display:inline;opacity:1;fill:#f9f9f9;fill-opacity:1;stroke:none;stroke-width:10;stroke-miterlimit:4;stroke-dasharray:none;stroke-opacity:1"
       id="rect15742-2-0"
       width="23.397057"
       height="8.6199684"
       x="165.33556"
       y="117.0092"
       inkscape:export-filename="/home/dakayl/GDP8_redemption/Content/Images/final/route.png"
       inkscape:export-xdpi="90"
       inkscape:export-ydpi="90" />
    <rect
       style="display:inline;opacity:1;fill:#f9f9f9;fill-opacity:1;stroke:none;stroke-width:10;stroke-miterlimit:4;stroke-dasharray:none;stroke-opacity:1"
       id="rect15742-4-4"
       width="23.397057"
       height="8.6199684"
       x="197.74591"
       y="117.0092"
       inkscape:export-filename="/home/dakayl/GDP8_redemption/Content/Images/final/route.png"
       inkscape:export-xdpi="90"
       inkscape:export-ydpi="90" />
    <rect
       style="display:inline;opacity:1;fill:#f9f9f9;fill-opacity:1;stroke:none;stroke-width:10;stroke-miterlimit:4;stroke-dasharray:none;stroke-opacity:1"
       id="rect15742-9-7-6"
       width="23.397057"
       height="8.6199684"
       x="230.15625"
       y="117.0092"
       inkscape:export-filename="/home/dakayl/GDP8_redemption/Content/Images/final/route.png"
       inkscape:export-xdpi="90"
       inkscape:export-ydpi="90" />
    <rect
       style="display:inline;opacity:1;fill:#f9f9f9;fill-opacity:1;stroke:none;stroke-width:10;stroke-miterlimit:4;stroke-dasharray:none;stroke-opacity:1"
       id="rect15742-2-0-8"
       width="23.397057"
       height="8.6199684"
       x="262.56659"
       y="117.0092"
       inkscape:export-filename="/home/dakayl/GDP8_redemption/Content/Images/final/route.png"
       inkscape:export-xdpi="90"
       inkscape:export-ydpi="90" />
    <rect
       style="display:inline;opacity:1;fill:#f9f9f9;fill-opacity:1;stroke:none;stroke-width:10;stroke-miterlimit:4;stroke-dasharray:none;stroke-opacity:1"
       id="rect15742-4-8"
       width="23.397057"
       height="8.6199684"
       x="294.97696"
       y="117.0092"
       inkscape:export-filename="/home/dakayl/GDP8_redemption/Content/Images/final/route.png"
       inkscape:export-xdpi="90"
       inkscape:export-ydpi="90" />
    <rect
       style="display:inline;opacity:1;fill:#f9f9f9;fill-opacity:1;stroke:none;stroke-width:10;stroke-miterlimit:4;stroke-dasharray:none;stroke-opacity:1"
       id="rect15742-9-7-7"
       width="23.397057"
       height="8.6199684"
       x="327.3873"
       y="117.0092"
       inkscape:export-filename="/home/dakayl/GDP8_redemption/Content/Images/final/route.png"
       inkscape:export-xdpi="90"
       inkscape:export-ydpi="90" />
    <rect
       style="display:inline;opacity:1;fill:#f9f9f9;fill-opacity:1;stroke:none;stroke-width:10;stroke-miterlimit:4;stroke-dasharray:none;stroke-opacity:1"
       id="rect15742-2-0-1"
       width="23.397057"
       height="8.6199684"
       x="359.79767"
       y="117.0092"
       inkscape:export-filename="/home/dakayl/GDP8_redemption/Content/Images/final/route.png"
       inkscape:export-xdpi="90"
       inkscape:export-ydpi="90" />
    <rect
       style="display:inline;opacity:1;fill:#f9f9f9;fill-opacity:1;stroke:none;stroke-width:10;stroke-miterlimit:4;stroke-dasharray:none;stroke-opacity:1"
       id="rect15742-4-2"
       width="23.397057"
       height="8.6199684"
       x="392.20801"
       y="117.0092"
       inkscape:export-filename="/home/dakayl/GDP8_redemption/Content/Images/final/route.png"
       inkscape:export-xdpi="90"
       inkscape:export-ydpi="90" />
    <rect
       style="display:inline;opacity:1;fill:#f9f9f9;fill-opacity:1;stroke:none;stroke-width:10;stroke-miterlimit:4;stroke-dasharray:none;stroke-opacity:1"
       id="rect15742-9-7-2"
       width="23.397057"
       height="8.6199684"
       x="424.61835"
       y="117.0092"
       inkscape:export-filename="/home/dakayl/GDP8_redemption/Content/Images/final/route.png"
       inkscape:export-xdpi="90"
       inkscape:export-ydpi="90" />
    <rect
       style="display:inline;opacity:1;fill:#f9f9f9;fill-opacity:1;stroke:none;stroke-width:10;stroke-miterlimit:4;stroke-dasharray:none;stroke-opacity:1"
       id="rect15742-2-0-13"
       width="23.397057"
       height="8.6199684"
       x="457.02872"
       y="117.0092"
       inkscape:export-filename="/home/dakayl/GDP8_redemption/Content/Images/final/route.png"
       inkscape:export-xdpi="90"
       inkscape:export-ydpi="90" />
    <rect
       style="display:inline;opacity:1;fill:#f9f9f9;fill-opacity:1;stroke:none;stroke-width:10;stroke-miterlimit:4;stroke-dasharray:none;stroke-opacity:1"
       id="rect15742-0"
       width="23.397057"
       height="8.6199684"
       x="489.43906"
       y="117.0092"
       inkscape:export-filename="/home/dakayl/GDP8_redemption/Content/Images/final/route.png"
       inkscape:export-xdpi="90"
       inkscape:export-ydpi="90" />
    <rect
       style="display:inline;opacity:1;fill:#f9f9f9;fill-opacity:1;stroke:none;stroke-width:10;stroke-miterlimit:4;stroke-dasharray:none;stroke-opacity:1"
       id="rect15742-9-9"
       width="23.397057"
       height="8.6199684"
       x="521.84943"
       y="117.0092"
       inkscape:export-filename="/home/dakayl/GDP8_redemption/Content/Images/final/route.png"
       inkscape:export-xdpi="90"
       inkscape:export-ydpi="90" />
    <rect
       style="display:inline;opacity:1;fill:#f9f9f9;fill-opacity:1;stroke:none;stroke-width:10;stroke-miterlimit:4;stroke-dasharray:none;stroke-opacity:1"
       id="rect15742-2-8"
       width="23.397057"
       height="8.6199684"
       x="554.25977"
       y="117.0092"
       inkscape:export-filename="/home/dakayl/GDP8_redemption/Content/Images/final/route.png"
       inkscape:export-xdpi="90"
       inkscape:export-ydpi="90" />
    <rect
       style="display:inline;opacity:1;fill:#f9f9f9;fill-opacity:1;stroke:none;stroke-width:10;stroke-miterlimit:4;stroke-dasharray:none;stroke-opacity:1"
       id="rect15742-4-6"
       width="23.397057"
       height="8.6199684"
       x="586.6701"
       y="117.0092"
       inkscape:export-filename="/home/dakayl/GDP8_redemption/Content/Images/final/route.png"
       inkscape:export-xdpi="90"
       inkscape:export-ydpi="90" />
    <rect
       style="display:inline;opacity:1;fill:#f9f9f9;fill-opacity:1;stroke:none;stroke-width:10;stroke-miterlimit:4;stroke-dasharray:none;stroke-opacity:1"
       id="rect15742-9-7-5"
       width="23.397057"
       height="8.6199684"
       x="619.08044"
       y="117.0092"
       inkscape:export-filename="/home/dakayl/GDP8_redemption/Content/Images/final/route.png"
       inkscape:export-xdpi="90"
       inkscape:export-ydpi="90" />
    <rect
       style="display:inline;opacity:1;fill:#f9f9f9;fill-opacity:1;stroke:none;stroke-width:10;stroke-miterlimit:4;stroke-dasharray:none;stroke-opacity:1"
       id="rect15742-2-0-3"
       width="23.397057"
       height="8.6199684"
       x="651.49084"
       y="117.0092"
       inkscape:export-filename="/home/dakayl/GDP8_redemption/Content/Images/final/route.png"
       inkscape:export-xdpi="90"
       inkscape:export-ydpi="90" />
    <rect
       style="display:inline;opacity:1;fill:#f9f9f9;fill-opacity:1;stroke:none;stroke-width:10;stroke-miterlimit:4;stroke-dasharray:none;stroke-opacity:1"
       id="rect15742-4-4-7"
       width="23.397057"
       height="8.6199684"
       x="683.90118"
       y="117.0092"
       inkscape:export-filename="/home/dakayl/GDP8_redemption/Content/Images/final/route.png"
       inkscape:export-xdpi="90"
       inkscape:export-ydpi="90" />
    <rect
       style="display:inline;opacity:1;fill:#f9f9f9;fill-opacity:1;stroke:none;stroke-width:10;stroke-miterlimit:4;stroke-dasharray:none;stroke-opacity:1"
       id="rect15742-9-7-6-2"
       width="23.397057"
       height="8.6199684"
       x="716.31152"
       y="117.0092"
       inkscape:export-filename="/home/dakayl/GDP8_redemption/Content/Images/final/route.png"
       inkscape:export-xdpi="90"
       inkscape:export-ydpi="90" />
    <rect
       style="display:inline;opacity:1;fill:#f9f9f9;fill-opacity:1;stroke:none;stroke-width:10;stroke-miterlimit:4;stroke-dasharray:none;stroke-opacity:1"
       id="rect15742-9-4"
       width="23.397057"
       height="8.6199684"
       x="3.4089346"
       y="116.4512"
       inkscape:export-filename="/home/dakayl/GDP8_redemption/Content/Images/final/route.png"
       inkscape:export-xdpi="90"
       inkscape:export-ydpi="90" />
    <rect
       style="opacity:1;fill:#333333;fill-opacity:1;stroke:none;stroke-width:15;stroke-miterlimit:4;stroke-dasharray:none;stroke-opacity:1"
       id="rect4161"
       width="38.360542"
       height="14.642136"
       x="2.4580092"
       y="164.18732"
       inkscape:export-filename="/home/dakayl/GDP8_redemption/Content/Images/final/route.png"
       inkscape:export-xdpi="90"
       inkscape:export-ydpi="90" />
    <rect
       style="opacity:1;fill:#808080;fill-opacity:1;stroke:none;stroke-width:15;stroke-miterlimit:4;stroke-dasharray:none;stroke-opacity:1"
       id="rect6569"
       width="36.453613"
       height="12.5"
       x="3.5000014"
       y="164.86221"
       inkscape:export-filename="/home/dakayl/GDP8_redemption/Content/Images/final/route.png"
       inkscape:export-xdpi="90"
       inkscape:export-ydpi="90" />
    <rect
       style="opacity:1;fill:#b3b3b3;fill-opacity:1;stroke:none;stroke-width:15;stroke-miterlimit:4;stroke-dasharray:none;stroke-opacity:1"
       id="rect6618"
       width="36.504387"
       height="7.8665628"
       x="3.5186782"
       y="167.65764"
       inkscape:export-filename="/home/dakayl/GDP8_redemption/Content/Images/final/route.png"
       inkscape:export-xdpi="90"
       inkscape:export-ydpi="90" />
    <rect
       style="opacity:1;fill:#1a1a1a;fill-opacity:1;stroke:none;stroke-width:15;stroke-miterlimit:4;stroke-dasharray:none;stroke-opacity:1"
       id="rect6571"
       width="3.7123106"
       height="11.136932"
       x="4.4030166"
       y="165.21313"
       inkscape:export-filename="/home/dakayl/GDP8_redemption/Content/Images/final/route.png"
       inkscape:export-xdpi="90"
       inkscape:export-ydpi="90" />
    <rect
       style="display:inline;opacity:1;fill:#1a1a1a;fill-opacity:1;stroke:none;stroke-width:15;stroke-miterlimit:4;stroke-dasharray:none;stroke-opacity:1"
       id="rect6571-5"
       width="3.7123106"
       height="11.136932"
       x="9.5148325"
       y="165.21313"
       inkscape:export-filename="/home/dakayl/GDP8_redemption/Content/Images/final/route.png"
       inkscape:export-xdpi="90"
       inkscape:export-ydpi="90" />
    <rect
       style="display:inline;opacity:1;fill:#1a1a1a;fill-opacity:1;stroke:none;stroke-width:15;stroke-miterlimit:4;stroke-dasharray:none;stroke-opacity:1"
       id="rect6571-7"
       width="3.7123106"
       height="11.136932"
       x="14.626374"
       y="165.21313"
       inkscape:export-filename="/home/dakayl/GDP8_redemption/Content/Images/final/route.png"
       inkscape:export-xdpi="90"
       inkscape:export-ydpi="90" />
    <rect
       style="display:inline;opacity:1;fill:#1a1a1a;fill-opacity:1;stroke:none;stroke-width:15;stroke-miterlimit:4;stroke-dasharray:none;stroke-opacity:1"
       id="rect6571-0"
       width="3.7123106"
       height="11.136932"
       x="19.738161"
       y="165.21313"
       inkscape:export-filename="/home/dakayl/GDP8_redemption/Content/Images/final/route.png"
       inkscape:export-xdpi="90"
       inkscape:export-ydpi="90" />
    <rect
       style="display:inline;opacity:1;fill:#1a1a1a;fill-opacity:1;stroke:none;stroke-width:15;stroke-miterlimit:4;stroke-dasharray:none;stroke-opacity:1"
       id="rect6571-1"
       width="3.7123106"
       height="11.136932"
       x="24.849977"
       y="165.21313"
       inkscape:export-filename="/home/dakayl/GDP8_redemption/Content/Images/final/route.png"
       inkscape:export-xdpi="90"
       inkscape:export-ydpi="90" />
    <rect
       style="display:inline;opacity:1;fill:#1a1a1a;fill-opacity:1;stroke:none;stroke-width:15;stroke-miterlimit:4;stroke-dasharray:none;stroke-opacity:1"
       id="rect6571-06"
       width="3.7123106"
       height="11.136932"
       x="29.961794"
       y="165.21313"
       inkscape:export-filename="/home/dakayl/GDP8_redemption/Content/Images/final/route.png"
       inkscape:export-xdpi="90"
       inkscape:export-ydpi="90" />
    <rect
       style="display:inline;opacity:1;fill:#1a1a1a;fill-opacity:1;stroke:none;stroke-width:15;stroke-miterlimit:4;stroke-dasharray:none;stroke-opacity:1"
       id="rect6571-2"
       width="3.7123106"
       height="11.136932"
       x="35.073822"
       y="165.21313"
       inkscape:export-filename="/home/dakayl/GDP8_redemption/Content/Images/final/route.png"
       inkscape:export-xdpi="90"
       inkscape:export-ydpi="90" />
    <rect
       style="display:inline;opacity:1;fill:#000000;fill-opacity:1;stroke:none;stroke-width:15;stroke-miterlimit:4;stroke-dasharray:none;stroke-opacity:1"
       id="rect6571-76"
       width="3.7123106"
       height="11.136932"
       x="4.4030166"
       y="165.81328"
       inkscape:export-filename="/home/dakayl/GDP8_redemption/Content/Images/final/route.png"
       inkscape:export-xdpi="90"
       inkscape:export-ydpi="90" />
    <rect
       style="display:inline;opacity:1;fill:#000000;fill-opacity:1;stroke:none;stroke-width:15;stroke-miterlimit:4;stroke-dasharray:none;stroke-opacity:1"
       id="rect6571-5-7"
       width="3.7123106"
       height="11.136932"
       x="9.5148325"
       y="165.81328"
       inkscape:export-filename="/home/dakayl/GDP8_redemption/Content/Images/final/route.png"
       inkscape:export-xdpi="90"
       inkscape:export-ydpi="90" />
    <rect
       style="display:inline;opacity:1;fill:#000000;fill-opacity:1;stroke:none;stroke-width:15;stroke-miterlimit:4;stroke-dasharray:none;stroke-opacity:1"
       id="rect6571-7-7"
       width="3.7123106"
       height="11.136932"
       x="14.626863"
       y="165.81328"
       inkscape:export-filename="/home/dakayl/GDP8_redemption/Content/Images/final/route.png"
       inkscape:export-xdpi="90"
       inkscape:export-ydpi="90" />
    <rect
       style="display:inline;opacity:1;fill:#000000;fill-opacity:1;stroke:none;stroke-width:15;stroke-miterlimit:4;stroke-dasharray:none;stroke-opacity:1"
       id="rect6571-0-9"
       width="3.7123106"
       height="11.136932"
       x="19.738649"
       y="165.81328"
       inkscape:export-filename="/home/dakayl/GDP8_redemption/Content/Images/final/route.png"
       inkscape:export-xdpi="90"
       inkscape:export-ydpi="90" />
    <rect
       style="display:inline;opacity:1;fill:#000000;fill-opacity:1;stroke:none;stroke-width:15;stroke-miterlimit:4;stroke-dasharray:none;stroke-opacity:1"
       id="rect6571-1-8"
       width="3.7123106"
       height="11.136932"
       x="24.850466"
       y="165.81328"
       inkscape:export-filename="/home/dakayl/GDP8_redemption/Content/Images/final/route.png"
       inkscape:export-xdpi="90"
       inkscape:export-ydpi="90" />
    <rect
       style="display:inline;opacity:1;fill:#000000;fill-opacity:1;stroke:none;stroke-width:15;stroke-miterlimit:4;stroke-dasharray:none;stroke-opacity:1"
       id="rect6571-06-0"
       width="3.7123106"
       height="11.136932"
       x="29.962282"
       y="165.81328"
       inkscape:export-filename="/home/dakayl/GDP8_redemption/Content/Images/final/route.png"
       inkscape:export-xdpi="90"
       inkscape:export-ydpi="90" />
    <rect
       style="display:inline;opacity:1;fill:#000000;fill-opacity:1;stroke:none;stroke-width:15;stroke-miterlimit:4;stroke-dasharray:none;stroke-opacity:1"
       id="rect6571-2-5"
       width="3.7123106"
       height="11.136932"
       x="35.073822"
       y="165.81328"
       inkscape:export-filename="/home/dakayl/GDP8_redemption/Content/Images/final/route.png"
       inkscape:export-xdpi="90"
       inkscape:export-ydpi="90" />
    <path
       style="display:inline;fill:#333333;fill-rule:evenodd;stroke:none;stroke-width:1px;stroke-linecap:butt;stroke-linejoin:miter;stroke-opacity:1"
       d="m 49,160.48721 3,2 -2.25,3.75 2.5,1.5 -2.75,2.75 -0.5,2 3.75,3 1,0.5 c -1,1.25 -3.75,5 -3.75,5 l 6,4.5 -4.25,6.5 3.5,3.5 -3.5,6.5 7.25,-0.5 3.5,2.5 -5.75,6.75 18.25,-11.5 4.25,10 21.5,-13.75 11,11.25 30,-9.75 10.5,4.75 14.75,-11.75 -5.25,-3 2.75,-1.75 -1.75,-2.25 2.75,-2.75 -2.5,-3.25 1.5,-5.25 -1.5,-2 c -1.25,0.25 -1.25,-4.75 -1.25,-4.75 l 4.75,-2.25 -5.75,-2.25 0.25,-4.5 -11,1.75 -10.25,6.75 0,-6 -37.5,5.5 0.75,-4.25 -7.5,1.25 -10.25,-1.75 -8.5,5.75 -24.25,-6.5 z"
       id="path6778-9"
       inkscape:connector-curvature="0"
       inkscape:export-filename="/home/dakayl/GDP8_redemption/Content/Images/final/route.png"
       inkscape:export-xdpi="90"
       inkscape:export-ydpi="90" />
    <path
       style="display:inline;fill:#000000;fill-rule:evenodd;stroke:none;stroke-width:1px;stroke-linecap:butt;stroke-linejoin:miter;stroke-opacity:1"
       d="m 49.343353,160.39863 2.8125,2.70013 -2.25,2.76292 2.1875,2.95131 -2.4375,1.31867 -0.5,2.0094 3.5625,3.20248 1.5,1.06749 c -1,1.25588 -4.0625,4.26998 -4.0625,4.26998 l 5.8125,5.9654 -4.0625,5.0863 3.5625,4.83511 -3.5625,5.21189 7.25,-0.50235 3.5,2.51175 -5.75,6.78172 18.25,-11.55405 4.25,10.047 21.499997,-13.81462 11,11.30287 30,-9.79582 10.5,4.77232 14.48483,-11.62762 -4.98483,-2.12606 2.48483,-2.55746 -1.92677,-1.46134 3.01516,-3.65096 -2.58839,-2.37724 1.58839,-5.84058 -1.32322,-0.49974 c -1.25,0.25118 -1.25,-6.78172 -1.25,-6.78172 l 3.07062,-1.37254 -4.07062,-1.13921 -0.0152,-4.96517 -10.46966,1.1366 -10.95711,6.726 -0.32062,-5.70607 -38.20343,4.93731 0.95343,-3.43657 -8.737437,1.43348 -7.75,-1.38146 -8.5,5.77703 -24.25,-6.53055 z"
       id="path6778-5-3"
       inkscape:connector-curvature="0"
       sodipodi:nodetypes="cccccccccccccccccccccccccccccccccccccccccccc"
       inkscape:export-filename="/home/dakayl/GDP8_redemption/Content/Images/final/route.png"
       inkscape:export-xdpi="90"
       inkscape:export-ydpi="90" />
    <path
       style="display:inline;fill:#333333;fill-rule:evenodd;stroke:none;stroke-width:1px;stroke-linecap:butt;stroke-linejoin:miter;stroke-opacity:1"
       d="m 213.17225,207.46344 -21.73829,-6.83985 -7.24023,3.39063 -11,1.75 0.25,-4.5 -6.28033,-0.30546 5.28033,-4.19454 c 0,0 0,-5 -1.25,-4.75 l -1.5,-2 1.5,-5.25 -2.5,-3.25 2.75,-2.75 -1.75,-2.25 2.75,-1.75 -5.25,-3 14.75,-11.75 8.25,3.73242 0.0937,2.06445 0.38477,0.90235 13.25,-13.125 -1.875,9.375 4.625,0.375 7.25,0.625 -3.5,6.5 3.5,3.5 -4.25,6.5 6,4.5 c 0,0 -2.75,3.75 -3.75,5 l 1,0.5 3.75,3 -0.5,2 -2.75,2.75 2.5,1.5 -2.25,3.75 3,2 -3.5,2 z"
       id="path6887"
       inkscape:connector-curvature="0"
       sodipodi:nodetypes="ccccccccccccccccccccccccccccccccccccc"
       inkscape:export-filename="/home/dakayl/GDP8_redemption/Content/Images/final/route.png"
       inkscape:export-xdpi="90"
       inkscape:export-ydpi="90" />
    <path
       style="display:inline;fill:#000000;fill-rule:evenodd;stroke:none;stroke-width:1px;stroke-linecap:butt;stroke-linejoin:miter;stroke-opacity:1"
       d="m 211.76538,207.18022 -21.50586,-6.28516 -6.30664,3.87305 -10.71875,0.82421 0.2969,-4.21484 -5.2471,-0.36018 4.2471,-3.33904 c 0,0 -0.1875,-5.96993 -1.4375,-5.71875 l -1.00977,-1.75 1.40039,-4.90429 -2.21289,-3.18946 2.63867,-2.83789 -1.67578,-2.08594 2.60938,-2.30859 -4.35938,-2.5625 13.48438,-10.81641 7.34374,3.00977 1.0625,2.93164 12.95313,-11.50195 -1.125,7.15625 4.875,1.13672 5.875,0.87304 -2.625,5.52344 3.4375,3.83594 -3.6875,6.46094 4.625,5.27734 c 0,0 -1.8125,2.5781 -2.8125,3.83398 l 0.25,1.50391 4.3125,3.64063 -1.25,1.57226 -2.375,2.00586 2.6875,1.45117 -1.6875,3.44922 2.375,2.13867 -3,1.68946 z"
       id="path6876"
       inkscape:connector-curvature="0"
       sodipodi:nodetypes="cccccccccccccccccccccccccccccccccccc"
       inkscape:export-filename="/home/dakayl/GDP8_redemption/Content/Images/final/route.png"
       inkscape:export-xdpi="90"
       inkscape:export-ydpi="90" />
    <path
       style="fill:#1a1a1a;fill-rule:evenodd;stroke:none;stroke-width:1px;stroke-linecap:butt;stroke-linejoin:miter;stroke-opacity:1"
       d="m 240.32761,161.76544 3.46151,0.49451 -3.46151,29.17557 c 0,0 9.45189,11.55109 8.7774,13.47516 l -11.74441,33.50246 10.38453,-33.62609 -12.36253,-13.84603 z"
       id="path23120"
       inkscape:connector-curvature="0"
       sodipodi:nodetypes="cccscccc" />
    <path
       style="fill:#1a1a1a;fill-opacity:1;fill-rule:evenodd;stroke:none;stroke-width:1px;stroke-linecap:butt;stroke-linejoin:miter;stroke-opacity:1"
       d="m 286.18552,160.01664 4.19598,-0.69933 -6.99331,44.40748 14.33628,0 32.1692,6.29397 c 0,0 -10.7491,31.89873 -9.98091,28.38163 l 5.43526,-24.88498 -11.53895,-3.14698 -0.69933,8.04229 -21.67925,14.68594 9.44096,19.23159 -14.68593,-18.18259 24.82622,-16.43427 -0.34966,-6.64363 -13.63694,-5.59465 -13.28728,1.049 -17.83292,23.77723 13.67208,20.18118 -16.46941,-20.88051 18.88192,-26.57455 z"
       id="path23137"
       inkscape:connector-curvature="0"
       sodipodi:nodetypes="cccccsccccccccccccccc" />
    <path
       style="display:inline;fill:#1a1a1a;fill-rule:evenodd;stroke:none;stroke-width:1px;stroke-linecap:butt;stroke-linejoin:miter;stroke-opacity:1"
       d="m 429.505,166.76542 -3.46151,0.49451 3.46151,29.17557 c 0,0 -15.46307,12.86081 -15.69678,14.88625 -0.37087,3.21425 18.66379,32.09137 18.66379,32.09137 L 416.64797,211.27053 434.45001,195.941 Z"
       id="path23120-2"
       inkscape:connector-curvature="0"
       sodipodi:nodetypes="cccscccc" />
    <path
       style="display:inline;fill:#1a1a1a;fill-opacity:1;fill-rule:evenodd;stroke:none;stroke-width:1px;stroke-linecap:butt;stroke-linejoin:miter;stroke-opacity:1"
       d="m 382.65809,163.53312 -3.20698,0.78417 -2.40221,43.17123 -4.94076,1.23625 -31.29504,7.5178 c 0,0 9.12431,12.74999 14.05176,20.48203 1.93474,3.03595 -10.38027,-18.20921 -10.38027,-18.20921 l 11.53895,-3.14698 0.69933,8.04229 18.1826,14.16144 -11.87833,8.38256 13.80148,-8.55739 -18.00775,-14.68594 0.34966,-6.64363 13.63694,-5.59465 13.28728,1.049 17.83292,23.77723 -9.96332,13.25817 12.76065,-13.9575 -20.61267,-27.56355 -7.16663,0.74815 z"
       id="path23137-4"
       inkscape:connector-curvature="0"
       sodipodi:nodetypes="cccccscccccccccccccccc" />
    <path
       style="display:inline;fill:#1a1a1a;fill-rule:evenodd;stroke:none;stroke-width:1px;stroke-linecap:butt;stroke-linejoin:miter;stroke-opacity:1"
       d="m 239.69122,350.93336 3.46151,-0.49451 -5.20984,-27.07758 c 0,0 11.20022,-13.64908 10.52573,-15.57315 l -2.30345,-48.88773 0.94357,49.01136 -12.36253,13.84603 z"
       id="path23120-22"
       inkscape:connector-curvature="0"
       sodipodi:nodetypes="cccscccc" />
    <path
       style="display:inline;fill:#1a1a1a;fill-opacity:1;fill-rule:evenodd;stroke:none;stroke-width:1px;stroke-linecap:butt;stroke-linejoin:miter;stroke-opacity:1"
       d="m 276.8075,349.88484 3.49665,0.69933 9.09129,-39.1625 22.02891,-7.86747 17.83293,-0.87416 c 0,0 1.50152,-36.8191 0.85871,-33.27694 l -2.9567,31.52862 -13.98661,1.39865 -0.69933,-8.04229 -3.84633,-23.42757 -8.39196,-10.48996 6.64365,11.53895 3.49664,23.07791 -0.34966,6.64363 -21.32957,7.86747 -5.59465,-3.32182 -18.88192,-14.68594 14.72108,-29.27247 -17.86807,29.62214 25.87522,18.88192 z"
       id="path23137-0"
       inkscape:connector-curvature="0"
       sodipodi:nodetypes="cccccsccccccccccccccc" />
    <path
       style="display:inline;fill:#1a1a1a;fill-rule:evenodd;stroke:none;stroke-width:1px;stroke-linecap:butt;stroke-linejoin:miter;stroke-opacity:1"
       d="m 428.86861,345.93338 -3.46151,-0.49451 3.46151,-29.17557 c 0,0 -7.07111,-14.08464 -7.30482,-16.11008 -0.37087,-3.21425 10.27183,-30.86754 10.27183,-30.86754 l -9.00557,31.09359 10.98357,16.37853 z"
       id="path23120-2-1"
       inkscape:connector-curvature="0"
       sodipodi:nodetypes="cccscccc" />
    <path
       style="display:inline;fill:#1a1a1a;fill-opacity:1;fill-rule:evenodd;stroke:none;stroke-width:1px;stroke-linecap:butt;stroke-linejoin:miter;stroke-opacity:1"
       d="m 382.0217,349.16568 -4.57564,0.13241 -3.17699,-0.39208 -12.69944,-22.11012 22.7549,-21.58561 -15.69616,-2.84338 -20.9193,-7.65385 6.5194,-18.73885 c 1.18293,-3.40013 -3.21,17.46746 -3.21,17.46746 l 6.47031,2.2816 17.01787,-4.45715 4.37171,-8.99918 -15.37498,-7.85806 16.91119,7.55081 -4.79892,10.37663 -17.08151,4.29475 13.63694,5.59465 12.4219,1.67076 -1.69988,-28.84587 10.43486,-10.90929 -7.63753,11.60862 0.77451,29.41793 -22.22162,21.99891 z"
       id="path23137-4-3"
       inkscape:connector-curvature="0"
       sodipodi:nodetypes="cccccccscccccccccccccccc" />
    <ellipse
       style="display:inline;opacity:1;fill:#0088aa;fill-opacity:1;stroke:none;stroke-width:10;stroke-miterlimit:4;stroke-dasharray:none;stroke-opacity:1"
       id="path23193-7-4"
       cx="114.19743"
       cy="252.02789"
       rx="71.522118"
       ry="27.014612" />
    <ellipse
       style="display:inline;opacity:1;fill:#0088aa;fill-opacity:1;stroke:none;stroke-width:10;stroke-miterlimit:4;stroke-dasharray:none;stroke-opacity:1"
       id="path23193-7-4-9"
       cx="164.95941"
       cy="246.573"
       rx="71.522118"
       ry="27.014612" />
    <ellipse
       style="display:inline;opacity:1;fill:#006680;fill-opacity:1;stroke:none;stroke-width:10;stroke-miterlimit:4;stroke-dasharray:none;stroke-opacity:1"
       id="path23193-1"
       cx="114.46532"
       cy="254.10593"
       rx="71.522118"
       ry="27.014612" />
    <path
       style="display:inline;opacity:1;fill:#0088aa;fill-opacity:1;stroke:none;stroke-width:10;stroke-miterlimit:4;stroke-dasharray:none;stroke-opacity:1"
       d="m 114.23079,229.30484 c -32.893428,1.3e-4 -66.577832,10.50482 -66.577784,19.9546 10.47816,-14.43215 47.591511,-19.3767 66.658744,-19.57311 30.97531,0.004 64.85221,10.68951 67.40917,19.55787 -0.18468,-9.41082 -34.73182,-19.93761 -67.49013,-19.93936 z"
       id="path23193-7-6-3"
       inkscape:connector-curvature="0"
       sodipodi:nodetypes="ccccc" />
    <path
       style="display:inline;opacity:1;fill:#0088aa;fill-opacity:1;stroke:none;stroke-width:10;stroke-miterlimit:4;stroke-dasharray:none;stroke-opacity:1"
       d="m 112.74685,279.29485 c 32.88434,0.7493 66.81398,-8.98504 67.0429,-18.43221 -10.82496,14.18944 -48.04786,18.28704 -67.11459,18.04897 -30.966661,-0.71019 -64.57531,-12.16412 -66.916695,-21.0883 -0.04338,9.41244 34.239153,20.72344 66.988385,21.47154 z"
       id="path23193-7-6-6-9"
       inkscape:connector-curvature="0"
       sodipodi:nodetypes="ccccc" />
    <ellipse
       style="display:inline;opacity:1;fill:#006680;fill-opacity:1;stroke:none;stroke-width:10;stroke-miterlimit:4;stroke-dasharray:none;stroke-opacity:1"
       id="path23193-1-0"
       cx="165.49515"
       cy="248.65103"
       rx="71.522118"
       ry="27.014612" />
    <ellipse
       style="display:inline;opacity:1;fill:#006680;fill-opacity:1;stroke:none;stroke-width:10;stroke-miterlimit:4;stroke-dasharray:none;stroke-opacity:1"
       id="path23193-1-6"
       cx="140.31508"
       cy="266.83395"
       rx="71.522118"
       ry="27.014612" />
    <path
       style="display:inline;opacity:1;fill:#0088aa;fill-opacity:1;stroke:none;stroke-width:10;stroke-miterlimit:4;stroke-dasharray:none;stroke-opacity:1"
       d="m 166.11046,223.86766 c -32.89343,1.3e-4 -66.577829,10.50482 -66.577782,19.9546 10.478162,-14.43215 47.591502,-19.3767 66.658742,-19.57311 30.97531,0.004 64.85221,10.68951 67.40917,19.55787 -0.18468,-9.41081 -34.73182,-19.93761 -67.49013,-19.93936 z"
       id="path23193-7-6-3-0"
       inkscape:connector-curvature="0"
       sodipodi:nodetypes="ccccc" />
    <path
       style="display:inline;opacity:1;fill:#0088aa;fill-opacity:1;stroke:none;stroke-width:10;stroke-miterlimit:4;stroke-dasharray:none;stroke-opacity:1"
       d="m 139.48421,291.0567 c 32.88435,0.7493 66.81398,-8.98504 67.0429,-18.43221 -10.82496,14.18944 -48.04786,18.28704 -67.11459,18.04897 -30.96665,-0.71019 -64.575303,-12.16412 -66.916687,-21.0883 -0.04338,9.41244 34.239157,20.72344 66.988377,21.47154 z"
       id="path23193-7-6-6-9-8"
       inkscape:connector-curvature="0"
       sodipodi:nodetypes="ccccc" />
    <ellipse
       style="display:inline;opacity:1;fill:#0088aa;fill-opacity:1;stroke:none;stroke-width:10;stroke-miterlimit:4;stroke-dasharray:none;stroke-opacity:1"
       id="path23193-7-4-2"
       cx="-160.03702"
       cy="328.0961"
       rx="59.319756"
       ry="22.650114"
       transform="scale(-1,1)" />
    <ellipse
       style="display:inline;opacity:1;fill:#0088aa;fill-opacity:1;stroke:none;stroke-width:10;stroke-miterlimit:4;stroke-dasharray:none;stroke-opacity:1"
       id="path23193-7-4-9-2"
       cx="-115.39401"
       cy="319.7854"
       rx="59.319756"
       ry="22.650114"
       transform="scale(-1,1)" />
    <ellipse
       style="display:inline;opacity:1;fill:#006680;fill-opacity:1;stroke:none;stroke-width:10;stroke-miterlimit:4;stroke-dasharray:none;stroke-opacity:1"
       id="path23193-1-1"
       cx="-159.81485"
       cy="329.83844"
       rx="59.319756"
       ry="22.650114"
       transform="scale(-1,1)" />
    <path
       style="display:inline;opacity:1;fill:#0088aa;fill-opacity:1;stroke:none;stroke-width:10;stroke-miterlimit:4;stroke-dasharray:none;stroke-opacity:1"
       d="m 160.00936,309.04422 c 27.28149,1e-4 55.219,8.80765 55.21896,16.73072 -8.69048,-12.10048 -39.47193,-16.24619 -55.28611,-16.41086 -25.69063,0.004 -53.7878,8.9625 -55.90852,16.39808 0.15318,-7.89039 28.80623,-16.71647 55.97567,-16.71794 z"
       id="path23193-7-6-3-4"
       inkscape:connector-curvature="0"
       sodipodi:nodetypes="ccccc" />
    <path
       style="display:inline;opacity:1;fill:#0088aa;fill-opacity:1;stroke:none;stroke-width:10;stroke-miterlimit:4;stroke-dasharray:none;stroke-opacity:1"
       d="m 161.24013,350.95781 c -27.27397,0.62824 -55.41488,-7.53341 -55.60474,-15.45429 8.97811,11.89698 39.85043,15.33257 55.66419,15.13297 25.68345,-0.59546 53.55814,-10.19888 55.50006,-17.68126 0.036,7.89175 -28.39762,17.37534 -55.55951,18.00258 z"
       id="path23193-7-6-6-9-7"
       inkscape:connector-curvature="0"
       sodipodi:nodetypes="ccccc" />
    <ellipse
       style="display:inline;opacity:1;fill:#006680;fill-opacity:1;stroke:none;stroke-width:10;stroke-miterlimit:4;stroke-dasharray:none;stroke-opacity:1"
       id="path23193-1-0-5"
       cx="-114.94967"
       cy="321.52774"
       rx="59.319756"
       ry="22.650114"
       transform="scale(-1,1)" />
    <ellipse
       style="display:inline;opacity:1;fill:#006680;fill-opacity:1;stroke:none;stroke-width:10;stroke-miterlimit:4;stroke-dasharray:none;stroke-opacity:1"
       id="path23193-1-6-1"
       cx="-119.31382"
       cy="347.98434"
       rx="59.319756"
       ry="22.650114"
       transform="scale(-1,1)" />
    <path
       style="display:inline;opacity:1;fill:#0088aa;fill-opacity:1;stroke:none;stroke-width:10;stroke-miterlimit:4;stroke-dasharray:none;stroke-opacity:1"
       d="M 118.34872,366.98716 C 91.087329,365.96089 63.515133,356.109 63.8253,348.19177 c 8.210443,12.41845 38.80695,17.7189 54.60304,18.47828 25.67185,0.96259 54.099,-6.93273 56.50921,-14.28308 -0.46193,7.87884 -29.43935,15.62067 -56.58883,14.60019 z"
       id="path23193-7-6-6-9-8-0"
       inkscape:connector-curvature="0"
       sodipodi:nodetypes="ccccc" />
    <path
       style="display:inline;opacity:1;fill:#0088aa;fill-opacity:1;stroke:none;stroke-width:10;stroke-miterlimit:4;stroke-dasharray:none;stroke-opacity:1"
       d="m 109.16861,300.74029 c 25.62825,-1.34301 52.2972,6.07801 52.67896,13.99108 -8.74695,-11.65737 -37.86284,-14.28241 -52.72663,-13.66831 -24.133603,1.26852 -50.096386,11.59925 -51.730283,19.12986 -0.236334,-7.88798 26.255047,-18.11357 51.777953,-19.45263 z"
       id="path23193-7-6-3-0-9"
       inkscape:connector-curvature="0"
       sodipodi:nodetypes="ccccc" />
    <ellipse
       style="display:inline;opacity:1;fill:#a0892c;fill-opacity:1;stroke:none;stroke-width:10;stroke-miterlimit:4;stroke-dasharray:none;stroke-opacity:1"
       id="path23193-7-4-23"
       cx="-567.62219"
       cy="191.65495"
       rx="71.522118"
       ry="27.014612"
       transform="scale(-1,1)" />
    <ellipse
       style="display:inline;opacity:1;fill:#806600;fill-opacity:1;stroke:none;stroke-width:10;stroke-miterlimit:4;stroke-dasharray:none;stroke-opacity:1"
       id="path23193-1-4"
       cx="-567.35431"
       cy="193.73299"
       rx="71.522118"
       ry="27.014612"
       transform="scale(-1,1)" />
    <path
       style="display:inline;opacity:1;fill:#a0892c;fill-opacity:1;stroke:none;stroke-width:10;stroke-miterlimit:4;stroke-dasharray:none;stroke-opacity:1"
       d="m 567.58885,168.93188 c 32.89343,1.3e-4 66.57783,10.50482 66.57778,19.9546 -10.47816,-14.43215 -47.59151,-19.3767 -66.65874,-19.57311 -30.97531,0.004 -64.85221,10.68951 -67.40917,19.55787 0.18468,-9.41082 34.73182,-19.93761 67.49013,-19.93936 z"
       id="path23193-7-6-3-2"
       inkscape:connector-curvature="0"
       sodipodi:nodetypes="ccccc" />
    <path
       style="display:inline;opacity:1;fill:#a0892c;fill-opacity:1;stroke:none;stroke-width:10;stroke-miterlimit:4;stroke-dasharray:none;stroke-opacity:1"
       d="m 569.07279,218.92189 c -32.88434,0.7493 -66.81398,-8.98504 -67.0429,-18.43221 10.82496,14.18944 48.04786,18.28704 67.11459,18.04897 30.96666,-0.71019 64.57531,-12.16412 66.91669,-21.0883 0.0434,9.41244 -34.23915,20.72344 -66.98838,21.47154 z"
       id="path23193-7-6-6-9-9"
       inkscape:connector-curvature="0"
       sodipodi:nodetypes="ccccc" />
    <ellipse
       style="display:inline;opacity:1;fill:#806600;fill-opacity:1;stroke:none;stroke-width:10;stroke-miterlimit:4;stroke-dasharray:none;stroke-opacity:1"
       id="path23193-1-0-7"
       cx="-516.32452"
       cy="208.27809"
       rx="71.522118"
       ry="27.014612"
       transform="scale(-1,1)" />
    <ellipse
       style="display:inline;opacity:1;fill:#806600;fill-opacity:1;stroke:none;stroke-width:10;stroke-miterlimit:4;stroke-dasharray:none;stroke-opacity:1"
       id="path23193-1-6-5"
       cx="-541.50452"
       cy="226.46101"
       rx="71.522118"
       ry="27.014612"
       transform="scale(-1,1)" />
    <path
       style="display:inline;opacity:1;fill:#a0892c;fill-opacity:1;stroke:none;stroke-width:10;stroke-miterlimit:4;stroke-dasharray:none;stroke-opacity:1"
       d="m 515.70918,183.4947 c 32.89343,1.3e-4 66.57783,10.50482 66.57778,19.9546 -10.47816,-14.43215 -47.5915,-19.3767 -66.65874,-19.57311 -30.97531,0.004 -64.85221,10.68951 -67.40917,19.55787 0.18468,-9.41081 34.73182,-19.93761 67.49013,-19.93936 z"
       id="path23193-7-6-3-0-6"
       inkscape:connector-curvature="0"
       sodipodi:nodetypes="ccccc" />
    <path
       style="display:inline;opacity:1;fill:#a0892c;fill-opacity:1;stroke:none;stroke-width:10;stroke-miterlimit:4;stroke-dasharray:none;stroke-opacity:1"
       d="m 542.33543,250.68374 c -32.88435,0.7493 -66.81398,-8.98504 -67.0429,-18.43221 10.82496,14.18944 48.04786,18.28704 67.11459,18.04897 30.96665,-0.71019 64.5753,-12.16412 66.91668,-21.0883 0.0434,9.41244 -34.23915,20.72344 -66.98837,21.47154 z"
       id="path23193-7-6-6-9-8-3"
       inkscape:connector-curvature="0"
       sodipodi:nodetypes="ccccc" />
    <ellipse
       style="display:inline;opacity:1;fill:#aa8800;fill-opacity:1;stroke:none;stroke-width:10;stroke-miterlimit:4;stroke-dasharray:none;stroke-opacity:1"
       id="path23193-7-4-2-0"
       cx="-574.31537"
       cy="287.79999"
       rx="59.319756"
       ry="22.650114"
       transform="scale(-1,1)" />
    <ellipse
       style="display:inline;opacity:1;fill:#aa8800;fill-opacity:1;stroke:none;stroke-width:10;stroke-miterlimit:4;stroke-dasharray:none;stroke-opacity:1"
       id="path23193-7-4-9-2-5"
       cx="-529.67236"
       cy="279.48929"
       rx="59.319756"
       ry="22.650114"
       transform="scale(-1,1)" />
    <ellipse
       style="display:inline;opacity:1;fill:#806600;fill-opacity:1;stroke:none;stroke-width:10;stroke-miterlimit:4;stroke-dasharray:none;stroke-opacity:1"
       id="path23193-1-1-9"
       cx="-574.0932"
       cy="289.54233"
       rx="59.319756"
       ry="22.650114"
       transform="scale(-1,1)" />
    <path
       style="display:inline;opacity:1;fill:#aa8800;fill-opacity:1;stroke:none;stroke-width:10;stroke-miterlimit:4;stroke-dasharray:none;stroke-opacity:1"
       d="m 574.2877,268.74808 c 27.28149,10e-5 55.219,8.80765 55.21896,16.73072 -8.69048,-12.10048 -39.47193,-16.24619 -55.28611,-16.41086 -25.69064,0.004 -53.78781,8.9625 -55.90853,16.39808 0.15318,-7.89039 28.80623,-16.71647 55.97568,-16.71794 z"
       id="path23193-7-6-3-4-3"
       inkscape:connector-curvature="0"
       sodipodi:nodetypes="ccccc" />
    <path
       style="display:inline;opacity:1;fill:#aa8800;fill-opacity:1;stroke:none;stroke-width:10;stroke-miterlimit:4;stroke-dasharray:none;stroke-opacity:1"
       d="m 575.51847,310.66167 c -27.27398,0.62824 -55.41489,-7.53341 -55.60475,-15.45429 8.97811,11.89698 39.85043,15.33257 55.6642,15.13297 25.68345,-0.59546 53.55814,-10.19888 55.50006,-17.68126 0.036,7.89175 -28.39762,17.37534 -55.55951,18.00258 z"
       id="path23193-7-6-6-9-7-8"
       inkscape:connector-curvature="0"
       sodipodi:nodetypes="ccccc" />
    <ellipse
       style="display:inline;opacity:1;fill:#806600;fill-opacity:1;stroke:none;stroke-width:10;stroke-miterlimit:4;stroke-dasharray:none;stroke-opacity:1"
       id="path23193-1-0-5-8"
       cx="-529.22803"
       cy="281.23163"
       rx="59.319756"
       ry="22.650114"
       transform="scale(-1,1)" />
    <ellipse
       style="display:inline;opacity:1;fill:#806600;fill-opacity:1;stroke:none;stroke-width:10;stroke-miterlimit:4;stroke-dasharray:none;stroke-opacity:1"
       id="path23193-1-6-1-5"
       cx="-594.7088"
       cy="186.01164"
       rx="59.319756"
       ry="22.650114"
       transform="matrix(-0.98105889,-0.19370971,-0.19370971,0.98105889,0,0)" />
    <path
       style="display:inline;opacity:1;fill:#aa8800;fill-opacity:1;stroke:none;stroke-width:10;stroke-miterlimit:4;stroke-dasharray:none;stroke-opacity:1"
       d="m 542.78423,316.14514 c -26.54623,-6.28762 -51.68777,-21.29391 -49.84984,-29.0011 5.64936,13.77368 34.63958,24.90057 49.98938,28.70542 24.99913,5.91725 54.41725,3.67809 58.20564,-3.06615 -1.97939,7.64012 -31.90762,9.6221 -58.34518,3.36183 z"
       id="path23193-7-6-6-9-8-0-6"
       inkscape:connector-curvature="0"
       sodipodi:nodetypes="ccccc" />
    <path
       style="display:inline;opacity:1;fill:#aa8800;fill-opacity:1;stroke:none;stroke-width:10;stroke-miterlimit:4;stroke-dasharray:none;stroke-opacity:1"
       d="m 523.44694,260.44415 c 25.62825,-1.34301 52.29721,6.07801 52.67897,13.99108 -8.74696,-11.65737 -37.86285,-14.28241 -52.72664,-13.66831 -24.1336,1.26852 -50.09638,11.59925 -51.73028,19.12986 -0.23633,-7.88798 26.25505,-18.11357 51.77795,-19.45263 z"
       id="path23193-7-6-3-0-9-8"
       inkscape:connector-curvature="0"
       sodipodi:nodetypes="ccccc" />
  </g>
</svg>
