<?xml version="1.0" encoding="UTF-8" standalone="no"?>
<!-- Created with Inkscape (http://www.inkscape.org/) -->

<svg
   xmlns:dc="http://purl.org/dc/elements/1.1/"
   xmlns:cc="http://creativecommons.org/ns#"
   xmlns:rdf="http://www.w3.org/1999/02/22-rdf-syntax-ns#"
   xmlns:svg="http://www.w3.org/2000/svg"
   xmlns="http://www.w3.org/2000/svg"
   xmlns:sodipodi="http://sodipodi.sourceforge.net/DTD/sodipodi-0.dtd"
   xmlns:inkscape="http://www.inkscape.org/namespaces/inkscape"
   width="210mm"
   height="297mm"
   viewBox="0 0 744.09448819 1052.3622047"
   id="svg15161"
   version="1.1"
   inkscape:version="0.91 r13725"
   sodipodi:docname="Route.svg">
  <defs
     id="defs15163" />
  <sodipodi:namedview
     id="base"
     pagecolor="#ffffff"
     bordercolor="#666666"
     borderopacity="1.0"
     inkscape:pageopacity="0.0"
     inkscape:pageshadow="2"
     inkscape:zoom="1.4142136"
     inkscape:cx="98.616455"
     inkscape:cy="879.11749"
     inkscape:document-units="px"
     inkscape:current-layer="layer12"
     showgrid="false"
     inkscape:window-width="1366"
     inkscape:window-height="744"
     inkscape:window-x="0"
     inkscape:window-y="24"
     inkscape:window-maximized="1"
     showguides="true" />
  <metadata
     id="metadata15166">
    <rdf:RDF>
      <cc:Work
         rdf:about="">
        <dc:format>image/svg+xml</dc:format>
        <dc:type
           rdf:resource="http://purl.org/dc/dcmitype/StillImage" />
        <dc:title />
      </cc:Work>
    </rdf:RDF>
  </metadata>
  <g
     inkscape:groupmode="layer"
     id="layer1"
     inkscape:label="Calque 4" />
  <g
     inkscape:groupmode="layer"
     id="layer11"
     inkscape:label="Calque 2"
     style="display:inline;opacity:0.97">
    <rect
       style="opacity:1;fill:#333333;fill-opacity:1;stroke:none;stroke-width:10;stroke-miterlimit:4;stroke-dasharray:none;stroke-opacity:1"
       id="rect15725"
       width="746.3573"
       height="104"
       x="-1.6037601"
       y="-0.6808033" />
    <rect
       style="display:inline;opacity:1;fill:#4d4d4d;fill-opacity:1;stroke:none;stroke-width:10;stroke-miterlimit:4;stroke-dasharray:none;stroke-opacity:1"
       id="rect15725-1"
       width="745.66907"
       height="78.956932"
       x="-1.5412601"
       y="11.532272" />
  </g>
  <g
     inkscape:groupmode="layer"
     id="layer12"
     inkscape:label="Calque 3"
     style="display:inline">
    <rect
       style="display:inline;opacity:1;fill:#f9f9f9;fill-opacity:1;stroke:none;stroke-width:10;stroke-miterlimit:4;stroke-dasharray:none;stroke-opacity:1"
       id="rect15742-5"
       width="746.54858"
       height="8.6199684"
       x="-2.60376"
       y="143.23923" />
    <rect
       style="display:inline;opacity:1;fill:#f9f9f9;fill-opacity:1;stroke:none;stroke-width:10;stroke-miterlimit:4;stroke-dasharray:none;stroke-opacity:1"
       id="rect15742-9"
       width="23.397057"
       height="8.6199684"
       x="35.694149"
       y="117.0092" />
    <rect
       style="display:inline;opacity:1;fill:#f9f9f9;fill-opacity:1;stroke:none;stroke-width:10;stroke-miterlimit:4;stroke-dasharray:none;stroke-opacity:1"
       id="rect15742-2"
       width="23.397057"
       height="8.6199684"
       x="68.1045"
       y="117.0092" />
    <rect
       style="display:inline;opacity:1;fill:#f9f9f9;fill-opacity:1;stroke:none;stroke-width:10;stroke-miterlimit:4;stroke-dasharray:none;stroke-opacity:1"
       id="rect15742-4"
       width="23.397057"
       height="8.6199684"
       x="100.51485"
       y="117.0092" />
    <rect
       style="display:inline;opacity:1;fill:#f9f9f9;fill-opacity:1;stroke:none;stroke-width:10;stroke-miterlimit:4;stroke-dasharray:none;stroke-opacity:1"
       id="rect15742-9-7"
       width="23.397057"
       height="8.6199684"
       x="132.9252"
       y="117.0092" />
    <rect
       style="display:inline;opacity:1;fill:#f9f9f9;fill-opacity:1;stroke:none;stroke-width:10;stroke-miterlimit:4;stroke-dasharray:none;stroke-opacity:1"
       id="rect15742-2-0"
       width="23.397057"
       height="8.6199684"
       x="165.33556"
       y="117.0092" />
    <rect
       style="display:inline;opacity:1;fill:#f9f9f9;fill-opacity:1;stroke:none;stroke-width:10;stroke-miterlimit:4;stroke-dasharray:none;stroke-opacity:1"
       id="rect15742-4-4"
       width="23.397057"
       height="8.6199684"
       x="197.74591"
       y="117.0092" />
    <rect
       style="display:inline;opacity:1;fill:#f9f9f9;fill-opacity:1;stroke:none;stroke-width:10;stroke-miterlimit:4;stroke-dasharray:none;stroke-opacity:1"
       id="rect15742-9-7-6"
       width="23.397057"
       height="8.6199684"
       x="230.15625"
       y="117.0092" />
    <rect
       style="display:inline;opacity:1;fill:#f9f9f9;fill-opacity:1;stroke:none;stroke-width:10;stroke-miterlimit:4;stroke-dasharray:none;stroke-opacity:1"
       id="rect15742-2-0-8"
       width="23.397057"
       height="8.6199684"
       x="262.56659"
       y="117.0092" />
    <rect
       style="display:inline;opacity:1;fill:#f9f9f9;fill-opacity:1;stroke:none;stroke-width:10;stroke-miterlimit:4;stroke-dasharray:none;stroke-opacity:1"
       id="rect15742-4-8"
       width="23.397057"
       height="8.6199684"
       x="294.97696"
       y="117.0092" />
    <rect
       style="display:inline;opacity:1;fill:#f9f9f9;fill-opacity:1;stroke:none;stroke-width:10;stroke-miterlimit:4;stroke-dasharray:none;stroke-opacity:1"
       id="rect15742-9-7-7"
       width="23.397057"
       height="8.6199684"
       x="327.3873"
       y="117.0092" />
    <rect
       style="display:inline;opacity:1;fill:#f9f9f9;fill-opacity:1;stroke:none;stroke-width:10;stroke-miterlimit:4;stroke-dasharray:none;stroke-opacity:1"
       id="rect15742-2-0-1"
       width="23.397057"
       height="8.6199684"
       x="359.79767"
       y="117.0092" />
    <rect
       style="display:inline;opacity:1;fill:#f9f9f9;fill-opacity:1;stroke:none;stroke-width:10;stroke-miterlimit:4;stroke-dasharray:none;stroke-opacity:1"
       id="rect15742-4-2"
       width="23.397057"
       height="8.6199684"
       x="392.20801"
       y="117.0092" />
    <rect
       style="display:inline;opacity:1;fill:#f9f9f9;fill-opacity:1;stroke:none;stroke-width:10;stroke-miterlimit:4;stroke-dasharray:none;stroke-opacity:1"
       id="rect15742-9-7-2"
       width="23.397057"
       height="8.6199684"
       x="424.61835"
       y="117.0092" />
    <rect
       style="display:inline;opacity:1;fill:#f9f9f9;fill-opacity:1;stroke:none;stroke-width:10;stroke-miterlimit:4;stroke-dasharray:none;stroke-opacity:1"
       id="rect15742-2-0-13"
       width="23.397057"
       height="8.6199684"
       x="457.02872"
       y="117.0092" />
    <rect
       style="display:inline;opacity:1;fill:#f9f9f9;fill-opacity:1;stroke:none;stroke-width:10;stroke-miterlimit:4;stroke-dasharray:none;stroke-opacity:1"
       id="rect15742-0"
       width="23.397057"
       height="8.6199684"
       x="489.43906"
       y="117.0092" />
    <rect
       style="display:inline;opacity:1;fill:#f9f9f9;fill-opacity:1;stroke:none;stroke-width:10;stroke-miterlimit:4;stroke-dasharray:none;stroke-opacity:1"
       id="rect15742-9-9"
       width="23.397057"
       height="8.6199684"
       x="521.84943"
       y="117.0092" />
    <rect
       style="display:inline;opacity:1;fill:#f9f9f9;fill-opacity:1;stroke:none;stroke-width:10;stroke-miterlimit:4;stroke-dasharray:none;stroke-opacity:1"
       id="rect15742-2-8"
       width="23.397057"
       height="8.6199684"
       x="554.25977"
       y="117.0092" />
    <rect
       style="display:inline;opacity:1;fill:#f9f9f9;fill-opacity:1;stroke:none;stroke-width:10;stroke-miterlimit:4;stroke-dasharray:none;stroke-opacity:1"
       id="rect15742-4-6"
       width="23.397057"
       height="8.6199684"
       x="586.6701"
       y="117.0092" />
    <rect
       style="display:inline;opacity:1;fill:#f9f9f9;fill-opacity:1;stroke:none;stroke-width:10;stroke-miterlimit:4;stroke-dasharray:none;stroke-opacity:1"
       id="rect15742-9-7-5"
       width="23.397057"
       height="8.6199684"
       x="619.08044"
       y="117.0092" />
    <rect
       style="display:inline;opacity:1;fill:#f9f9f9;fill-opacity:1;stroke:none;stroke-width:10;stroke-miterlimit:4;stroke-dasharray:none;stroke-opacity:1"
       id="rect15742-2-0-3"
       width="23.397057"
       height="8.6199684"
       x="651.49084"
       y="117.0092" />
    <rect
       style="display:inline;opacity:1;fill:#f9f9f9;fill-opacity:1;stroke:none;stroke-width:10;stroke-miterlimit:4;stroke-dasharray:none;stroke-opacity:1"
       id="rect15742-4-4-7"
       width="23.397057"
       height="8.6199684"
       x="683.90118"
       y="117.0092" />
    <rect
       style="display:inline;opacity:1;fill:#f9f9f9;fill-opacity:1;stroke:none;stroke-width:10;stroke-miterlimit:4;stroke-dasharray:none;stroke-opacity:1"
       id="rect15742-9-7-6-2"
       width="23.397057"
       height="8.6199684"
       x="716.31152"
       y="117.0092" />
    <rect
       style="display:inline;opacity:1;fill:#f9f9f9;fill-opacity:1;stroke:none;stroke-width:10;stroke-miterlimit:4;stroke-dasharray:none;stroke-opacity:1"
       id="rect15742-9-4"
       width="23.397057"
       height="8.6199684"
       x="3.4089346"
       y="116.4512" />
    <rect
       style="opacity:1;fill:#333333;fill-opacity:1;stroke:none;stroke-width:15;stroke-miterlimit:4;stroke-dasharray:none;stroke-opacity:1"
       id="rect4161"
       width="38.360542"
       height="14.642136"
       x="2.4580092"
       y="164.18732" />
    <rect
       style="opacity:1;fill:#808080;fill-opacity:1;stroke:none;stroke-width:15;stroke-miterlimit:4;stroke-dasharray:none;stroke-opacity:1"
       id="rect6569"
       width="36.453613"
       height="12.5"
       x="3.5000014"
       y="164.86221" />
    <rect
       style="opacity:1;fill:#b3b3b3;fill-opacity:1;stroke:none;stroke-width:15;stroke-miterlimit:4;stroke-dasharray:none;stroke-opacity:1"
       id="rect6618"
       width="36.504387"
       height="7.8665628"
       x="3.5186782"
       y="167.65764" />
    <rect
       style="opacity:1;fill:#1a1a1a;fill-opacity:1;stroke:none;stroke-width:15;stroke-miterlimit:4;stroke-dasharray:none;stroke-opacity:1"
       id="rect6571"
       width="3.7123106"
       height="11.136932"
       x="4.4030166"
       y="165.21313" />
    <rect
       style="display:inline;opacity:1;fill:#1a1a1a;fill-opacity:1;stroke:none;stroke-width:15;stroke-miterlimit:4;stroke-dasharray:none;stroke-opacity:1"
       id="rect6571-5"
       width="3.7123106"
       height="11.136932"
       x="9.5148325"
       y="165.21313" />
    <rect
       style="display:inline;opacity:1;fill:#1a1a1a;fill-opacity:1;stroke:none;stroke-width:15;stroke-miterlimit:4;stroke-dasharray:none;stroke-opacity:1"
       id="rect6571-7"
       width="3.7123106"
       height="11.136932"
       x="14.626374"
       y="165.21313" />
    <rect
       style="display:inline;opacity:1;fill:#1a1a1a;fill-opacity:1;stroke:none;stroke-width:15;stroke-miterlimit:4;stroke-dasharray:none;stroke-opacity:1"
       id="rect6571-0"
       width="3.7123106"
       height="11.136932"
       x="19.738161"
       y="165.21313" />
    <rect
       style="display:inline;opacity:1;fill:#1a1a1a;fill-opacity:1;stroke:none;stroke-width:15;stroke-miterlimit:4;stroke-dasharray:none;stroke-opacity:1"
       id="rect6571-1"
       width="3.7123106"
       height="11.136932"
       x="24.849977"
       y="165.21313" />
    <rect
       style="display:inline;opacity:1;fill:#1a1a1a;fill-opacity:1;stroke:none;stroke-width:15;stroke-miterlimit:4;stroke-dasharray:none;stroke-opacity:1"
       id="rect6571-06"
       width="3.7123106"
       height="11.136932"
       x="29.961794"
       y="165.21313" />
    <rect
       style="display:inline;opacity:1;fill:#1a1a1a;fill-opacity:1;stroke:none;stroke-width:15;stroke-miterlimit:4;stroke-dasharray:none;stroke-opacity:1"
       id="rect6571-2"
       width="3.7123106"
       height="11.136932"
       x="35.073822"
       y="165.21313" />
    <rect
       style="display:inline;opacity:1;fill:#000000;fill-opacity:1;stroke:none;stroke-width:15;stroke-miterlimit:4;stroke-dasharray:none;stroke-opacity:1"
       id="rect6571-76"
       width="3.7123106"
       height="11.136932"
       x="4.4030166"
       y="165.81328" />
    <rect
       style="display:inline;opacity:1;fill:#000000;fill-opacity:1;stroke:none;stroke-width:15;stroke-miterlimit:4;stroke-dasharray:none;stroke-opacity:1"
       id="rect6571-5-7"
       width="3.7123106"
       height="11.136932"
       x="9.5148325"
       y="165.81328" />
    <rect
       style="display:inline;opacity:1;fill:#000000;fill-opacity:1;stroke:none;stroke-width:15;stroke-miterlimit:4;stroke-dasharray:none;stroke-opacity:1"
       id="rect6571-7-7"
       width="3.7123106"
       height="11.136932"
       x="14.626863"
       y="165.81328" />
    <rect
       style="display:inline;opacity:1;fill:#000000;fill-opacity:1;stroke:none;stroke-width:15;stroke-miterlimit:4;stroke-dasharray:none;stroke-opacity:1"
       id="rect6571-0-9"
       width="3.7123106"
       height="11.136932"
       x="19.738649"
       y="165.81328" />
    <rect
       style="display:inline;opacity:1;fill:#000000;fill-opacity:1;stroke:none;stroke-width:15;stroke-miterlimit:4;stroke-dasharray:none;stroke-opacity:1"
       id="rect6571-1-8"
       width="3.7123106"
       height="11.136932"
       x="24.850466"
       y="165.81328" />
    <rect
       style="display:inline;opacity:1;fill:#000000;fill-opacity:1;stroke:none;stroke-width:15;stroke-miterlimit:4;stroke-dasharray:none;stroke-opacity:1"
       id="rect6571-06-0"
       width="3.7123106"
       height="11.136932"
       x="29.962282"
       y="165.81328" />
    <rect
       style="display:inline;opacity:1;fill:#000000;fill-opacity:1;stroke:none;stroke-width:15;stroke-miterlimit:4;stroke-dasharray:none;stroke-opacity:1"
       id="rect6571-2-5"
       width="3.7123106"
       height="11.136932"
       x="35.073822"
       y="165.81328" />
    <path
       style="display:inline;fill:#333333;fill-rule:evenodd;stroke:none;stroke-width:1px;stroke-linecap:butt;stroke-linejoin:miter;stroke-opacity:1"
       d="m 49,160.48721 3,2 -2.25,3.75 2.5,1.5 -2.75,2.75 -0.5,2 3.75,3 1,0.5 c -1,1.25 -3.75,5 -3.75,5 l 6,4.5 -4.25,6.5 3.5,3.5 -3.5,6.5 7.25,-0.5 3.5,2.5 -5.75,6.75 18.25,-11.5 4.25,10 21.5,-13.75 11,11.25 30,-9.75 10.5,4.75 14.75,-11.75 -5.25,-3 2.75,-1.75 -1.75,-2.25 2.75,-2.75 -2.5,-3.25 1.5,-5.25 -1.5,-2 c -1.25,0.25 -1.25,-4.75 -1.25,-4.75 l 4.75,-2.25 -5.75,-2.25 0.25,-4.5 -11,1.75 -10.25,6.75 0,-6 -37.5,5.5 0.75,-4.25 -7.5,1.25 -10.25,-1.75 -8.5,5.75 -24.25,-6.5 z"
       id="path6778-9"
       inkscape:connector-curvature="0" />
    <path
       style="display:inline;fill:#000000;fill-rule:evenodd;stroke:none;stroke-width:1px;stroke-linecap:butt;stroke-linejoin:miter;stroke-opacity:1"
       d="m 49.343353,160.39863 2.8125,2.70013 -2.25,2.76292 2.1875,2.95131 -2.4375,1.31867 -0.5,2.0094 3.5625,3.20248 1.5,1.06749 c -1,1.25588 -4.0625,4.26998 -4.0625,4.26998 l 5.8125,5.9654 -4.0625,5.0863 3.5625,4.83511 -3.5625,5.21189 7.25,-0.50235 3.5,2.51175 -5.75,6.78172 18.25,-11.55405 4.25,10.047 21.499997,-13.81462 11,11.30287 30,-9.79582 10.5,4.77232 14.48483,-11.62762 -4.98483,-2.12606 2.48483,-2.55746 -1.92677,-1.46134 3.01516,-3.65096 -2.58839,-2.37724 1.58839,-5.84058 -1.32322,-0.49974 c -1.25,0.25118 -1.25,-6.78172 -1.25,-6.78172 l 3.07062,-1.37254 -4.07062,-1.13921 -0.0152,-4.96517 -10.46966,1.1366 -10.95711,6.726 -0.32062,-5.70607 -38.20343,4.93731 0.95343,-3.43657 -8.737437,1.43348 -7.75,-1.38146 -8.5,5.77703 -24.25,-6.53055 z"
       id="path6778-5-3"
       inkscape:connector-curvature="0"
       sodipodi:nodetypes="cccccccccccccccccccccccccccccccccccccccccccc" />
    <path
       style="display:inline;fill:#333333;fill-rule:evenodd;stroke:none;stroke-width:1px;stroke-linecap:butt;stroke-linejoin:miter;stroke-opacity:1"
       d="m 213.17225,208.94694 -21.73829,-6.83985 -7.24023,3.39063 -11,1.75 0.25,-4.5 -6.28033,-0.30546 5.28033,-4.19454 c 0,0 0,-5 -1.25,-4.75 l -1.5,-2 1.5,-5.25 -2.5,-3.25 2.75,-2.75 -1.75,-2.25 2.75,-1.75 -5.25,-3 14.75,-11.75 8.25,3.73242 0.0937,2.06445 0.38477,0.90235 13.25,-13.125 -1.875,9.375 4.625,0.375 7.25,0.625 -3.5,6.5 3.5,3.5 -4.25,6.5 6,4.5 c 0,0 -2.75,3.75 -3.75,5 l 1,0.5 3.75,3 -0.5,2 -2.75,2.75 2.5,1.5 -2.25,3.75 3,2 -3.5,2 z"
       id="path6887"
       inkscape:connector-curvature="0"
       sodipodi:nodetypes="ccccccccccccccccccccccccccccccccccccc" />
    <path
       style="display:inline;fill:#000000;fill-rule:evenodd;stroke:none;stroke-width:1px;stroke-linecap:butt;stroke-linejoin:miter;stroke-opacity:1"
       d="m 211.76538,208.66372 -21.50586,-6.28516 -6.30664,3.87305 -10.71875,0.82421 0.2969,-4.21484 -5.2471,-0.36018 4.2471,-3.33904 c 0,0 -0.1875,-5.96993 -1.4375,-5.71875 l -1.00977,-1.75 1.40039,-4.90429 -2.21289,-3.18946 2.63867,-2.83789 -1.67578,-2.08594 2.60938,-2.30859 -4.35938,-2.5625 13.48438,-10.81641 7.34374,3.00977 1.0625,2.93164 12.95313,-11.50195 -1.125,7.15625 4.875,1.13672 5.875,0.87304 -2.625,5.52344 3.4375,3.83594 -3.6875,6.46094 4.625,5.27734 c 0,0 -1.8125,2.5781 -2.8125,3.83398 l 0.25,1.50391 4.3125,3.64063 -1.25,1.57226 -2.375,2.00586 2.6875,1.45117 -1.6875,3.44922 2.375,2.13867 -3,1.68946 z"
       id="path6876"
       inkscape:connector-curvature="0"
       sodipodi:nodetypes="cccccccccccccccccccccccccccccccccccc" />
  </g>
</svg>
